<svg width="246" height="237" viewBox="0 0 246 237" fill="none" xmlns="http://www.w3.org/2000/svg">
<g opacity="0.05">
<path d="M238.056 159.588C221.585 201.622 182.538 231.344 136.631 236.258C100.367 240.143 64.3704 228.675 37.9165 204.15C9.10639 177.437 -4.34258 139.707 1.24001 101.297C1.66294 98.3777 2.23087 95.4833 2.94379 92.6139C16.2976 38.6578 65.245 -0.119047 122.593 0.000269185C153.086 0.0621367 179.679 9.53355 202.372 28.4145C218.083 41.4859 229.878 57.5004 237.757 76.458C248.877 103.211 248.519 132.88 238.056 159.588ZM221.639 164.904C232.387 143.848 236.135 120.052 230.797 97.0462C226.542 78.6984 217.593 61.5968 204.506 47.8228C182.996 25.1754 153.579 12.0509 121.687 12.3072C72.7352 12.6917 31.405 44.292 17.2447 89.5382C14.9579 96.8502 13.5954 104.321 13.1574 111.951C11.7194 136.892 18.3578 159.444 33.0726 179.606C39.063 187.808 45.9581 194.96 53.7581 201.061C69.367 213.269 87.1916 220.752 107.232 223.509C124.276 225.854 140.546 224.593 156.044 219.727C184.183 210.897 208.244 191.153 221.639 164.904Z" fill="#333333"/>
<path d="M199.017 116.82C201.964 116.772 202.504 112.99 199.51 112.756C196.005 112.487 191.657 112.478 186.466 112.732C186.274 112.738 186.195 112.644 186.229 112.449C186.362 111.664 186.686 110.989 187.2 110.424C192.769 104.306 201.402 104.077 208.291 107.747C212.556 110.019 216.2 113.171 219.225 117.205C219.298 117.302 219.351 117.415 219.38 117.535C219.409 117.655 219.413 117.78 219.393 117.901C219.373 118.023 219.328 118.139 219.263 118.241C219.197 118.343 219.111 118.43 219.011 118.495C213.019 122.418 205.669 125.48 198.436 125.042C193.344 124.733 189.281 122.301 186.247 117.745C186.198 117.672 186.169 117.586 186.163 117.496C186.157 117.407 186.175 117.317 186.214 117.237C186.254 117.158 186.313 117.091 186.386 117.044C186.459 116.997 186.543 116.972 186.628 116.971C190.676 116.936 194.805 116.885 199.017 116.82Z" fill="#333333"/>
<path d="M181.861 150.964C182.513 149.608 181.664 148.679 180.925 147.567C174.274 137.569 166.369 128.456 157.209 120.227C156.824 119.88 156.438 119.569 156.053 119.293C156.001 119.255 155.962 119.205 155.941 119.148C155.92 119.091 155.917 119.029 155.934 118.971C155.95 118.913 155.985 118.86 156.034 118.819C156.082 118.778 156.143 118.75 156.209 118.739C163.996 117.541 173.257 121.008 178.947 125.446C190.69 134.608 193.669 149.175 192.613 162.555C192.567 163.161 192.503 163.664 192.42 164.064C192.389 164.22 192.293 164.36 192.153 164.456C192.013 164.552 191.838 164.596 191.663 164.58C179.493 163.473 165.832 159.034 157.26 151.137C151.141 145.501 147.548 138.529 146.48 130.223C146.19 127.959 146.201 125.931 146.513 124.14C146.525 124.068 146.568 124.003 146.633 123.959C146.698 123.914 146.78 123.893 146.861 123.901C147.482 123.961 148.11 124.146 148.743 124.454C154.17 127.113 158.875 130.342 162.858 134.141C168.873 139.879 173.789 145.44 177.607 150.823C177.869 151.195 178.415 151.823 178.911 152.042C180.251 152.635 181.234 152.275 181.861 150.964Z" fill="#333333"/>
<path d="M152.248 83.477C159.576 72.709 171.377 67.4261 183.64 65.8878C184.26 65.8094 184.795 65.8157 185.245 65.9066C185.395 65.9349 185.492 66.0274 185.536 66.1842C185.794 67.078 185.961 68.1333 186.034 69.3502C186.823 82.5738 184.098 95.9386 174.128 104.778C168.206 110.028 159.709 113.114 151.78 111.477C151.681 111.456 151.59 111.403 151.52 111.326C151.449 111.249 151.402 111.151 151.384 111.045C151.367 110.938 151.38 110.829 151.421 110.731C151.463 110.633 151.531 110.55 151.617 110.494C161.953 103.818 171.099 94.4003 176.862 82.9455C178.577 79.5349 175.063 77.3709 173.374 80.4099C167.847 90.3672 160.305 98.0744 150.748 103.531C149.455 104.271 148.139 104.872 146.802 105.333C146.749 105.351 146.693 105.356 146.638 105.347C146.583 105.339 146.531 105.317 146.485 105.283C146.44 105.249 146.402 105.205 146.375 105.153C146.348 105.102 146.333 105.044 146.33 104.985C145.889 97.11 147.895 89.8654 152.248 83.477Z" fill="#333333"/>
<path d="M132.469 210.483C108.568 211.958 84.8559 204.515 66.6153 189.274C66.5769 189.242 66.5457 189.203 66.5235 189.159C66.5014 189.114 66.4889 189.066 66.4868 189.017C66.4847 188.968 66.493 188.919 66.5113 188.873C66.5295 188.827 66.5573 188.785 66.5928 188.75L132.442 125.294C132.796 124.954 132.973 125.026 132.973 125.51L132.91 210.026C132.91 210.142 132.865 210.255 132.783 210.34C132.701 210.425 132.589 210.476 132.469 210.483ZM116.844 157.76C117.177 158.042 117.566 158.254 117.989 158.385C118.411 158.515 118.859 158.561 119.306 158.521C119.753 158.48 120.191 158.354 120.595 158.148C120.999 157.943 121.361 157.663 121.66 157.323C122.263 156.639 122.575 155.756 122.526 154.869C122.477 153.983 122.071 153.165 121.397 152.596C121.064 152.314 120.675 152.102 120.252 151.972C119.83 151.841 119.382 151.795 118.935 151.835C118.488 151.876 118.05 152.003 117.646 152.208C117.242 152.413 116.88 152.694 116.581 153.033C115.978 153.718 115.666 154.6 115.715 155.487C115.764 156.373 116.17 157.191 116.844 157.76ZM110.52 200.902C111.857 200.902 113.181 200.644 114.417 200.143C115.652 199.642 116.775 198.908 117.72 197.982C118.666 197.056 119.416 195.958 119.928 194.748C120.44 193.539 120.703 192.242 120.703 190.933C120.703 189.624 120.44 188.328 119.928 187.118C119.416 185.909 118.666 184.81 117.72 183.884C116.775 182.959 115.652 182.224 114.417 181.723C113.181 181.222 111.857 180.965 110.52 180.965C107.819 180.965 105.228 182.015 103.319 183.884C101.409 185.754 100.336 188.289 100.336 190.933C100.336 193.577 101.409 196.113 103.319 197.982C105.228 199.852 107.819 200.902 110.52 200.902ZM87.3152 185.419C88.0641 185.419 88.7823 185.127 89.3118 184.609C89.8413 184.091 90.1388 183.388 90.1388 182.655C90.1388 181.922 89.8413 181.219 89.3118 180.7C88.7823 180.182 88.0641 179.891 87.3152 179.891C86.5664 179.891 85.8482 180.182 85.3187 180.7C84.7892 181.219 84.4917 181.922 84.4917 182.655C84.4917 183.388 84.7892 184.091 85.3187 184.609C85.8482 185.127 86.5664 185.419 87.3152 185.419Z" fill="#333333"/>
<g style="mix-blend-mode:plus-darker">
<path d="M37.9114 148.767C27.3729 116.316 35.0324 83.0941 57.3022 57.8126C59.2784 55.5683 61.3726 53.4307 63.585 51.3998C82.7127 33.8424 105.66 25.5084 132.426 26.3977C132.565 26.4024 132.698 26.4619 132.795 26.5636C132.892 26.6654 132.946 26.8014 132.946 26.943L132.973 111.562C132.973 111.741 132.937 111.919 132.868 112.085C132.799 112.25 132.697 112.401 132.569 112.526C109.083 135.678 85.5184 158.836 61.8764 182.003C60.9406 182.916 60.099 183.67 59.3516 184.265C59.2261 184.364 59.108 184.355 58.9974 184.238C49.2212 173.771 42.1926 161.947 37.9114 148.767ZM103.587 119.435C104.482 120.417 105.564 121.209 106.77 121.766C107.977 122.324 109.284 122.636 110.619 122.684C111.953 122.733 113.287 122.517 114.546 122.049C115.805 121.581 116.963 120.87 117.955 119.957C119.958 118.112 121.16 115.556 121.298 112.85C121.436 110.144 120.498 107.51 118.69 105.527C117.795 104.546 116.713 103.753 115.506 103.196C114.3 102.638 112.992 102.326 111.658 102.278C110.324 102.229 108.989 102.445 107.73 102.913C106.471 103.381 105.313 104.092 104.321 105.005C102.319 106.85 101.116 109.406 100.978 112.112C100.84 114.818 101.779 117.452 103.587 119.435ZM114.367 79.4708C114.723 79.4708 115.075 79.4004 115.403 79.2636C115.732 79.1269 116.031 78.9264 116.282 78.6736C116.534 78.4209 116.733 78.1208 116.869 77.7905C117.006 77.4603 117.076 77.1064 117.076 76.7489C117.076 76.3915 117.006 76.0375 116.869 75.7073C116.733 75.377 116.534 75.077 116.282 74.8242C116.031 74.5715 115.732 74.371 115.403 74.2342C115.075 74.0974 114.723 74.027 114.367 74.027C113.649 74.027 112.96 74.3138 112.452 74.8242C111.944 75.3347 111.658 76.027 111.658 76.7489C111.658 77.4708 111.944 78.1631 112.452 78.6736C112.96 79.1841 113.649 79.4708 114.367 79.4708ZM107.81 45.5733C108.758 45.6182 109.685 45.2767 110.388 44.6238C111.09 43.9709 111.51 43.0602 111.556 42.092C111.601 41.1238 111.268 40.1773 110.63 39.4609C109.992 38.7445 109.1 38.3168 108.152 38.2719C107.204 38.227 106.277 38.5685 105.575 39.2214C104.872 39.8742 104.452 40.785 104.406 41.7532C104.361 42.7214 104.694 43.6678 105.332 44.3843C105.971 45.1007 106.862 45.5284 107.81 45.5733ZM103.743 86.866C104.463 86.866 105.153 86.5788 105.662 86.0675C106.171 85.5562 106.456 84.8627 106.456 84.1396C106.456 83.4165 106.171 82.723 105.662 82.2117C105.153 81.7004 104.463 81.4131 103.743 81.4131C103.024 81.4131 102.334 81.7004 101.825 82.2117C101.316 82.723 101.03 83.4165 101.03 84.1396C101.03 84.8627 101.316 85.5562 101.825 86.0675C102.334 86.5788 103.024 86.866 103.743 86.866ZM82.7246 70.8003C85.4233 70.8003 88.0114 69.723 89.9196 67.8054C91.8278 65.8878 92.8999 63.287 92.8999 60.575C92.8999 57.8631 91.8278 55.2623 89.9196 53.3447C88.0114 51.4271 85.4233 50.3498 82.7246 50.3498C81.3884 50.3498 80.0652 50.6143 78.8307 51.1281C77.5962 51.642 76.4745 52.3952 75.5296 53.3447C74.5848 54.2942 73.8353 55.4214 73.3239 56.662C72.8126 57.9026 72.5494 59.2322 72.5494 60.575C72.5494 61.9178 72.8126 63.2475 73.3239 64.4881C73.8353 65.7287 74.5848 66.8559 75.5296 67.8054C76.4745 68.7549 77.5962 69.5081 78.8307 70.022C80.0652 70.5358 81.3884 70.8003 82.7246 70.8003ZM83.5363 105.46C84.4319 105.46 85.2908 105.102 85.9241 104.466C86.5573 103.83 86.9131 102.966 86.9131 102.066C86.9131 101.167 86.5573 100.303 85.9241 99.667C85.2908 99.0306 84.4319 98.6731 83.5363 98.6731C82.6407 98.6731 81.7818 99.0306 81.1485 99.667C80.5153 100.303 80.1595 101.167 80.1595 102.066C80.1595 102.966 80.5153 103.83 81.1485 104.466C81.7818 105.102 82.6407 105.46 83.5363 105.46ZM74.7064 148.533C77.4122 148.533 80.0071 147.453 81.9204 145.53C83.8337 143.608 84.9085 141 84.9085 138.281C84.9085 135.562 83.8337 132.954 81.9204 131.031C80.0071 129.109 77.4122 128.028 74.7064 128.028C72.0006 128.028 69.4057 129.109 67.4924 131.031C65.5791 132.954 64.5043 135.562 64.5043 138.281C64.5043 141 65.5791 143.608 67.4924 145.53C69.4057 147.453 72.0006 148.533 74.7064 148.533ZM79.303 89.4888C79.975 89.4888 80.6194 89.2206 81.0946 88.7431C81.5698 88.2656 81.8367 87.6179 81.8367 86.9426C81.8367 86.2673 81.5698 85.6197 81.0946 85.1422C80.6194 84.6647 79.975 84.3964 79.303 84.3964C78.631 84.3964 77.9865 84.6647 77.5113 85.1422C77.0362 85.6197 76.7692 86.2673 76.7692 86.9426C76.7692 87.6179 77.0362 88.2656 77.5113 88.7431C77.9865 89.2206 78.631 89.4888 79.303 89.4888ZM53.4691 113.113C54.3816 114.076 55.4762 114.847 56.6905 115.381C57.9047 115.916 59.2147 116.203 60.5457 116.228C61.8768 116.253 63.2027 116.014 64.4479 115.525C65.6931 115.036 66.8332 114.307 67.803 113.379C69.7615 111.504 70.9077 108.934 70.9895 106.234C71.0712 103.533 70.0818 100.924 68.2388 98.9787C67.3262 98.0157 66.2316 97.2449 65.0174 96.7104C63.8032 96.1758 62.4931 95.888 61.1621 95.8633C59.8311 95.8386 58.5051 96.0775 57.2599 96.5664C56.0147 97.0553 54.8747 97.7846 53.9049 98.7127C51.9463 100.587 50.8001 103.157 50.7184 105.858C50.6366 108.558 51.6261 111.168 53.4691 113.113ZM64.9393 165.176C65.6493 165.176 66.3302 164.892 66.8323 164.388C67.3344 163.883 67.6165 163.199 67.6165 162.485C67.6165 161.772 67.3344 161.087 66.8323 160.583C66.3302 160.078 65.6493 159.795 64.9393 159.795C64.2292 159.795 63.5483 160.078 63.0462 160.583C62.5441 161.087 62.262 161.772 62.262 162.485C62.262 163.199 62.5441 163.883 63.0462 164.388C63.5483 164.892 64.2292 165.176 64.9393 165.176ZM51.2497 136.552C51.1037 136.892 51.0287 137.26 51.0291 137.634C51.0296 138.007 51.1054 138.379 51.2522 138.728C51.3991 139.077 51.6141 139.397 51.885 139.669C52.1559 139.941 52.4774 140.16 52.8312 140.313C53.5456 140.622 54.3479 140.645 55.0616 140.377C55.7753 140.109 56.342 139.572 56.637 138.883C56.7831 138.542 56.858 138.175 56.8576 137.801C56.8571 137.428 56.7814 137.056 56.6345 136.707C56.4877 136.358 56.2726 136.038 56.0017 135.766C55.7308 135.494 55.4093 135.275 55.0556 135.122C54.3412 134.813 53.5388 134.79 52.8251 135.058C52.1114 135.326 51.5447 135.863 51.2497 136.552Z" fill="#5C5C5C"/>
</g>
</g>
</svg>
