<svg width="1482" height="988" viewBox="0 0 1482 988" fill="none" xmlns="http://www.w3.org/2000/svg">
<path opacity="0.05" d="M430.976 986.01C162.335 736.474 4.98496 386.281 0.603234 7.22273C0.591032 6.42774 0.744992 5.6268 1.05555 4.87037C1.36611 4.11394 1.82634 3.41822 2.40744 2.82755C2.98854 2.23688 3.67757 1.76393 4.4315 1.43834C5.18543 1.11275 5.98788 0.941537 6.78786 0.935779L1475.02 3.91804C1482.9 3.93957 1483.88 6.74001 1477.94 12.3195L441.206 985.648C439.774 986.998 437.917 987.788 436.014 987.855C434.112 987.922 432.309 987.262 430.976 986.01ZM913.496 204.139C913.538 211.104 915.015 217.888 917.844 224.103C920.673 230.319 924.798 235.843 929.983 240.363C935.168 244.882 941.312 248.308 948.065 250.443C954.817 252.579 962.045 253.383 969.336 252.809C984.061 251.65 998.15 244.951 1008.5 234.185C1018.86 223.42 1024.62 209.469 1024.54 195.403C1024.5 188.437 1023.02 181.654 1020.19 175.438C1017.36 169.223 1013.24 163.698 1008.05 159.178C1002.87 154.659 996.724 151.234 989.972 149.098C983.22 146.963 975.992 146.159 968.7 146.732C953.975 147.891 939.886 154.59 929.533 165.356C919.181 176.122 913.412 190.072 913.496 204.139ZM318.323 630.818C332.343 645.731 349.387 657.526 368.481 665.531C387.575 673.535 408.346 677.591 429.607 677.468C450.868 677.344 472.204 673.044 492.396 664.812C512.588 656.58 531.24 644.578 547.288 629.491C563.337 614.404 576.466 596.527 585.928 576.881C595.389 557.236 600.998 536.206 602.432 514.992C603.866 493.779 601.098 472.798 594.287 453.247C587.476 433.695 576.755 415.957 562.735 401.044C534.42 370.926 494.39 354.145 451.451 354.394C408.512 354.643 366.181 371.901 333.77 402.371C301.359 432.841 281.523 474.027 278.626 516.87C275.73 559.712 290.009 600.7 318.323 630.818ZM264.873 193.62C272.723 201.97 283.822 206.622 295.728 206.553C307.633 206.484 319.37 201.699 328.356 193.251C337.343 184.803 342.842 173.384 343.645 161.505C344.449 149.627 340.489 138.262 332.639 129.912C324.788 121.561 313.69 116.909 301.784 116.978C289.879 117.047 278.142 121.831 269.156 130.279C260.169 138.728 254.67 150.147 253.867 162.026C253.064 173.904 257.022 185.269 264.873 193.62Z" fill="#5C5C5C"/>
</svg>
