<svg width="487" height="233" viewBox="0 0 487 233" fill="none" xmlns="http://www.w3.org/2000/svg">
<g opacity="0.05">
<path d="M328.159 -257.265C414.671 -223.694 475.997 -143.722 486.355 -49.5314C494.543 24.8744 471.166 98.817 420.889 153.247C366.128 212.524 288.631 240.337 209.629 229.093C203.624 228.241 197.67 227.092 191.767 225.645C80.7593 198.538 0.762382 98.2962 0.688893 -19.4045C0.646582 -81.9872 19.9719 -136.618 58.6648 -183.297C85.4523 -215.616 118.312 -239.913 157.245 -256.188C212.187 -279.159 273.188 -278.59 328.159 -257.265ZM339.18 -223.601C295.828 -245.543 246.882 -253.102 199.613 -242.018C161.914 -233.183 126.803 -214.721 98.5563 -187.786C52.1129 -143.513 25.2927 -83.0646 25.9969 -17.613C27.0595 82.852 92.2592 167.501 185.364 196.311C200.41 200.964 215.778 203.718 231.468 204.575C282.754 207.387 329.083 193.637 370.455 163.325C387.285 150.985 401.95 136.793 414.45 120.751C439.464 88.648 454.749 52.0235 460.307 10.8777C465.034 -24.1156 462.351 -57.5016 452.259 -89.2803C433.949 -146.984 393.222 -196.256 339.18 -223.601Z" fill="#333333"/>
<path d="M433.385 -40.846C436.549 8.19977 421.38 56.9076 390.145 94.4289C390.08 94.5079 389.999 94.5722 389.908 94.6179C389.818 94.6635 389.718 94.6895 389.617 94.6941C389.516 94.6987 389.415 94.6819 389.321 94.6447C389.226 94.6075 389.14 94.5508 389.068 94.478L258.237 -40.3163C257.535 -41.0403 257.682 -41.4036 258.678 -41.4063L432.442 -41.7478C432.682 -41.7488 432.914 -41.656 433.089 -41.4883C433.265 -41.3206 433.371 -41.0908 433.385 -40.846ZM325.074 -8.48273C325.651 -9.16862 326.085 -9.9683 326.351 -10.8361C326.617 -11.7039 326.71 -12.6228 326.624 -13.5404C326.538 -14.4579 326.275 -15.3562 325.851 -16.1839C325.426 -17.0116 324.848 -17.7525 324.149 -18.3642C322.738 -19.5997 320.921 -20.2344 319.099 -20.1285C317.276 -20.0226 315.597 -19.185 314.431 -17.7998C313.854 -17.1139 313.42 -16.3142 313.154 -15.4464C312.888 -14.5786 312.795 -13.6597 312.881 -12.7421C312.967 -11.8245 313.229 -10.9263 313.654 -10.0986C314.079 -9.27091 314.657 -8.53002 315.356 -7.91826C316.767 -6.68276 318.584 -6.04813 320.406 -6.15399C322.229 -6.25985 323.908 -7.09753 325.074 -8.48273ZM413.808 4.25656C413.8 1.51186 413.263 -1.20453 412.226 -3.73751C411.189 -6.27049 409.673 -8.57048 407.765 -10.5061C405.856 -12.4418 403.593 -13.9752 401.103 -15.0188C398.614 -16.0624 395.947 -16.5958 393.256 -16.5885C390.564 -16.5812 387.901 -16.0334 385.417 -14.9763C382.933 -13.9192 380.678 -12.3736 378.78 -10.4276C376.882 -8.48166 375.379 -6.1735 374.355 -3.63494C373.332 -1.09637 372.809 1.62289 372.817 4.36759C372.832 9.91076 375.006 15.2211 378.86 19.1303C382.714 23.0395 387.933 25.2273 393.369 25.2126C398.805 25.1979 404.012 22.9818 407.845 19.0518C411.678 15.1217 413.823 9.79973 413.808 4.25656ZM382.103 51.9665C382.099 50.4296 381.496 48.9572 380.428 47.8734C379.359 46.7895 377.912 46.1829 376.405 46.187C374.898 46.1911 373.454 46.8055 372.391 47.8951C371.329 48.9848 370.734 50.4604 370.738 51.9973C370.742 53.5342 371.345 55.0065 372.414 56.0904C373.482 57.1743 374.929 57.7809 376.436 57.7768C377.944 57.7728 379.387 57.1583 380.45 56.0686C381.513 54.979 382.107 53.5034 382.103 51.9665Z" fill="#333333"/>
<g style="mix-blend-mode:plus-darker">
<path d="M307.024 153.566C240.362 175.375 172.016 159.84 119.913 114.275C115.288 110.232 110.882 105.945 106.694 101.416C70.4897 62.257 53.2274 15.2078 54.907 -39.7313C54.9158 -40.0179 55.0374 -40.2898 55.2461 -40.4896C55.4548 -40.6894 55.7342 -40.8014 56.0252 -40.802L230 -41.3284C230.37 -41.3297 230.736 -41.2575 231.077 -41.1161C231.418 -40.9748 231.727 -40.7672 231.986 -40.5055C279.715 7.56871 327.461 55.8024 375.222 104.196C377.105 106.111 378.66 107.834 379.888 109.365C380.092 109.622 380.074 109.864 379.834 110.092C358.368 130.214 334.098 144.706 307.024 153.566ZM246.351 18.9393C248.364 17.0966 249.987 14.8721 251.127 12.3927C252.266 9.91334 252.9 7.22767 252.993 4.48909C253.085 1.75051 252.633 -0.987335 251.664 -3.56819C250.695 -6.14904 249.227 -8.52233 247.344 -10.5525C243.541 -14.6527 238.279 -17.1066 232.714 -17.3744C227.15 -17.6421 221.739 -15.7019 217.673 -11.9803C215.66 -10.1376 214.037 -7.91304 212.897 -5.43366C211.758 -2.95428 211.124 -0.268657 211.031 2.46992C210.939 5.2085 211.391 7.9464 212.36 10.5273C213.329 13.1081 214.797 15.4814 216.68 17.5116C220.483 21.6118 225.745 24.0657 231.31 24.3335C236.874 24.6012 242.285 22.6609 246.351 18.9393ZM164.125 -2.96336C164.123 -3.69338 163.977 -4.41587 163.694 -5.08956C163.411 -5.76326 162.997 -6.37498 162.476 -6.88978C161.955 -7.40458 161.337 -7.81241 160.657 -8.08994C159.977 -8.36747 159.249 -8.50924 158.514 -8.50725C157.779 -8.50526 157.052 -8.35954 156.374 -8.07834C155.695 -7.79713 155.08 -7.38596 154.561 -6.86834C154.043 -6.35073 153.632 -5.73677 153.353 -5.06155C153.074 -4.38633 152.931 -3.66307 152.933 -2.93304C152.937 -1.45868 153.53 -0.0462999 154.583 0.993385C155.635 2.03307 157.06 2.61487 158.544 2.61085C160.028 2.60683 161.45 2.01732 162.497 0.971949C163.544 -0.0734214 164.129 -1.489 164.125 -2.96336ZM94.4688 10.6831C94.5559 8.73716 93.8485 6.83599 92.5023 5.39785C91.1561 3.95971 89.2813 3.10242 87.2904 3.01456C85.2995 2.9267 83.3555 3.61544 81.8861 4.92934C80.4167 6.24324 79.5423 8.07461 79.4552 10.0206C79.3681 11.9666 80.0755 13.8678 81.4217 15.306C82.7679 16.7441 84.6427 17.6014 86.6336 17.6893C88.6245 17.7771 90.5685 17.0883 92.0379 15.7744C93.5073 14.4605 94.3817 12.6291 94.4688 10.6831ZM179.389 18.7992C179.385 17.3224 178.79 15.9076 177.736 14.8662C176.682 13.8248 175.255 13.2421 173.768 13.2461C172.282 13.2501 170.857 13.8406 169.809 14.8877C168.761 15.9348 168.174 17.3527 168.178 18.8295C168.182 20.3063 168.776 21.7211 169.83 22.7625C170.884 23.8039 172.312 24.3866 173.798 24.3826C175.285 24.3786 176.709 23.7881 177.758 22.741C178.806 21.6939 179.393 20.276 179.389 18.7992ZM146.475 62.0266C146.46 56.488 144.23 51.1823 140.277 47.2766C136.324 43.3709 130.971 41.1851 125.395 41.2002C119.819 41.2153 114.478 43.43 110.546 47.3571C106.614 51.2842 104.414 56.6019 104.429 62.1405C104.436 64.8829 104.987 67.5971 106.051 70.1279C107.114 72.6587 108.669 74.9567 110.626 76.8906C112.584 78.8245 114.905 80.3565 117.459 81.399C120.012 82.4416 122.747 82.9744 125.508 82.9669C128.269 82.9594 131.001 82.4118 133.549 81.3554C136.097 80.2991 138.41 78.7545 140.357 76.81C142.304 74.8656 143.846 72.5592 144.896 70.0227C145.946 67.4861 146.482 64.7691 146.475 62.0266ZM217.73 60.1677C217.725 58.3297 216.985 56.5689 215.673 55.2727C214.361 53.9765 212.585 53.2512 210.734 53.2562C208.884 53.2612 207.112 53.9962 205.807 55.2994C204.502 56.6027 203.771 58.3675 203.776 60.2055C203.781 62.0436 204.521 63.8044 205.833 65.1006C207.145 66.3967 208.922 67.122 210.772 67.117C212.622 67.112 214.395 66.3771 215.7 65.0738C217.005 63.7706 217.735 62.0058 217.73 60.1677ZM306.337 78.0501C306.322 72.4968 304.087 67.177 300.123 63.261C296.16 59.345 290.792 57.1535 285.202 57.1686C279.612 57.1838 274.256 59.4043 270.314 63.3418C266.371 67.2792 264.165 72.611 264.18 78.1643C264.195 83.7175 266.43 89.0373 270.394 92.9533C274.358 96.8693 279.725 99.0609 285.315 99.0457C290.906 99.0306 296.261 96.81 300.204 92.8726C304.146 88.9351 306.352 83.6033 306.337 78.0501ZM184.917 68.945C184.913 67.5659 184.358 66.2447 183.374 65.2721C182.39 64.2996 181.057 63.7553 179.668 63.7591C178.28 63.7628 176.95 64.3143 175.971 65.2922C174.992 66.27 174.444 67.5942 174.447 68.9734C174.451 70.3525 175.006 71.6737 175.991 72.6463C176.975 73.6188 178.308 74.1631 179.696 74.1593C181.085 74.1556 182.415 73.6041 183.394 72.6262C184.373 71.6484 184.921 70.3242 184.917 68.945ZM233.631 121.834C235.606 119.956 237.185 117.705 238.277 115.21C239.369 112.715 239.954 110.025 239.997 107.293C240.041 104.561 239.542 101.841 238.53 99.2881C237.518 96.7352 236.012 94.3995 234.099 92.4142C230.234 88.405 224.944 86.0668 219.391 85.9141C213.838 85.7614 208.478 87.8067 204.49 91.6C202.515 93.4782 200.936 95.7291 199.844 98.2241C198.752 100.719 198.167 103.409 198.124 106.141C198.081 108.873 198.579 111.593 199.591 114.146C200.603 116.699 202.109 119.035 204.023 121.02C207.887 125.029 213.178 127.367 218.73 127.52C224.283 127.673 229.643 125.627 233.631 121.834ZM340.609 98.0031C340.605 96.5459 340.018 95.1499 338.978 94.1223C337.938 93.0947 336.529 92.5195 335.062 92.5235C333.595 92.5275 332.19 93.1102 331.155 94.1435C330.121 95.1767 329.542 96.5758 329.546 98.0331C329.55 99.4904 330.136 100.886 331.176 101.914C332.217 102.942 333.625 103.517 335.092 103.513C336.559 103.509 337.964 102.926 338.999 101.893C340.034 100.86 340.612 99.4604 340.609 98.0031ZM281.834 126.258C282.536 126.556 283.292 126.708 284.06 126.705C284.827 126.702 285.592 126.545 286.309 126.241C287.026 125.938 287.682 125.495 288.24 124.937C288.797 124.38 289.245 123.719 289.558 122.992C290.189 121.524 290.232 119.877 289.677 118.414C289.122 116.95 288.015 115.79 286.598 115.189C285.896 114.891 285.14 114.739 284.372 114.742C283.604 114.745 282.84 114.903 282.123 115.206C281.406 115.509 280.75 115.953 280.192 116.51C279.635 117.068 279.187 117.729 278.874 118.456C278.242 119.923 278.199 121.57 278.754 123.034C279.31 124.497 280.417 125.657 281.834 126.258Z" fill="#333333"/>
</g>
</g>
</svg>
