<svg width="1426" height="808" viewBox="0 0 1426 808" fill="none" xmlns="http://www.w3.org/2000/svg">
<path opacity="0.05" d="M483.275 941.186C207.26 700.01 31.2721 362.023 0.454814 -3.46516C0.387283 -4.2317 0.479226 -5.00361 0.724983 -5.73227C0.97074 -6.46093 1.36478 -7.13073 1.8825 -7.69899C2.40022 -8.26725 3.03006 -8.72176 3.73268 -9.03406C4.43531 -9.34636 5.19547 -9.50971 5.96485 -9.51353L1419 -3.46772C1426.59 -3.42994 1427.72 -0.727736 1422.4 4.63907L493.093 940.859C491.81 942.158 490.078 942.916 488.252 942.976C486.426 943.037 484.645 942.396 483.275 941.186ZM892.717 188.368C893.246 195.083 895.144 201.627 898.302 207.626C901.46 213.625 905.817 218.961 911.124 223.33C916.431 227.698 922.583 231.014 929.231 233.088C935.878 235.161 942.89 235.952 949.865 235.415C963.954 234.329 977.041 227.901 986.247 217.543C995.454 207.185 1000.03 193.747 998.958 180.184C998.429 173.469 996.531 166.924 993.373 160.926C990.215 154.927 985.858 149.591 980.551 145.222C975.245 140.853 969.092 137.538 962.444 135.464C955.797 133.391 948.785 132.6 941.81 133.137C927.721 134.222 914.634 140.651 905.428 151.009C896.221 161.367 891.649 174.805 892.717 188.368ZM349.947 598.476C364.484 612.885 381.712 624.295 400.648 632.053C419.583 639.812 439.854 643.768 460.305 643.695C480.755 643.622 500.984 639.522 519.836 631.628C538.688 623.735 555.795 612.203 570.179 597.691C584.562 583.179 595.942 565.971 603.668 547.049C611.394 528.128 615.314 507.864 615.206 487.413C615.098 466.963 610.962 446.728 603.036 427.862C595.109 408.996 583.548 391.87 569.01 377.461C539.651 348.361 499.954 332.095 458.653 332.243C417.351 332.39 377.829 348.938 348.779 378.247C319.73 407.555 303.532 447.223 303.751 488.524C303.971 529.825 320.588 569.376 349.947 598.476ZM267.833 176.825C275.973 184.893 286.979 189.403 298.431 189.362C309.882 189.321 320.84 184.733 328.894 176.607C336.949 168.48 341.44 157.482 341.379 146.031C341.318 134.58 336.711 123.614 328.571 115.545C320.43 107.477 309.424 102.967 297.973 103.008C286.521 103.049 275.563 107.637 267.509 115.763C259.454 123.889 254.964 134.888 255.025 146.339C255.085 157.79 259.692 168.756 267.833 176.825Z" fill="#5C5C5C"/>
</svg>
