<svg xmlns="http://www.w3.org/2000/svg" viewBox="0 0 1024 1024"><g stroke-width="2" fill="none"><path stroke="#f4f4ed" vector-effect="non-scaling-stroke" d="M995.39 1024c8.92-.41 18.41.47 27.19-.99q.52-.08.58-.6.85-7.09.69-11.66c-.58-15.78-.11-32.99-.22-47.26-.1-13.57-.2-25.93-.01-40.74.23-17.51-.33-34.63-.13-52.5.19-16.77-.67-33.58-.15-51.05.16-5.4-.29-11.18-.25-16.82.09-10.8.03-18.09.11-27.14q0-.08-.29-2.94-.15-1.49.17-3.55.71-4.5-.37-17.07-.05-.6.14-2.38.14-1.29-.26-2.58-.13-.4-.02-.81.61-2.17-.14-4.31-.06-.16 0-.33.09-.23.26-.36.3-.23.24-.61-.41-2.34-2.71-2.06a1.08 1.01 53.8 0 0-.24 1.99q.18.1.56-.3.09-.1.09.04t.01.28q.01.09-.41.15-.91.13-1.19-.62-.18-.48-.64-.23l-.65.35q-.66.36-1.36.11-.91-.32-1.96.13-.45.19-.93.09-1.34-.28-1.88-1.55-.07-.15-.18-.03l-.33.33q-.16.15-.37.11-1.96-.42-3.67.53-.41.22-.79-.06l-.5-.38q-.41-.31-.89-.13-1.22.44-2.12-.01a1.11 1.08 42.6 0 0-1.03.03q-1.5.87-2.93-.06-.44-.29-.81.08l-.47.47q-.16.16-.38.11l-3.87-.8q-.51-.11-.75.36-.25.47-.78.39-.33-.05-.64-.41-.17-.19-.33-.38-.17-.21-.41-.12l-.99.37q-.32.12-.22-.2.06-.21.04-.38-.06-.42-.41-.18-1.1.74-1.61-.37-.14-.3-.02-.61.41-1.07-.47-2.42-.52-.8-1.21-.63-.41.1-.13.42.18.22.23.45a.24.24 0 0 1-.44.16q-.06-.11-.04-.25.04-.25-.21-.26-1.16-.04-2.4-.15-.7-.06-.13-.48.36-.26.49-.64.18-.51.71-.4.63.12.95-.23.33-.37-.11-.6-1.87-.98-2.93.7-.34.54-.77.06l-1.61-1.86q-.35-.4-.87-.39l-4.46.05q-.48 0-.39.47.08.48-.38.54-.63.08-.75.02l-.41-.22q-.72-.4-.7.42v.46q0 .18-.19.2-2.28.18.64.37-.31-.1-.78.01-.66.16-.13.58 1.63 1.31.37 2.3-.46.36-.43.94.06.92-.82 1.17-.56.16-.6.74l-.1 1.3a.76.75-88 0 1-.75.71h-.6a.29.29 0 0 1-.21-.5l.28-.28q.38-.37-.14-.51-2.45-.62-2.73 1.56-.09.64-.65.95-.98.53-.27.82a.5.49 58.3 0 1-.22.95q-1.9-.16-3.4-1.23-.66-.47.11-.71 1.22-.39 1.2-1.93a.79.78-77.6 0 0-.44-.69q-1.07-.52-.36-1.42a1.25 1.25 0 0 0-1-2.03l-4.99.1q-.61.01-.76.61-.15.62.25.77.45.16.33.62l-.13.52a.17.16 32.8 0 1-.29.06q-.54-.71-.28-1.53.06-.19-.73.54-.36.33-.85.46-.07.02-.1-.05-.1-.27-.36-.33-.51-.11-.81.18-.23.21-.3-.09l-.11-.43q-.13-.52-.54-.17-.59.52-.96.13-.36-.37-.88-.39-1.22-.04-.77.96a.59.59 0 0 1-.71.81q-.93-.27-1.32.69-.17.4-.57.54-1.64.56-1.38 2.46.06.51-.45.54l-3.63.2a.75.73-66.8 0 0-.41.17q-1.25 1.1-2.92.86-.53-.08-.92-.45-.76-.73-1.91-.67-.9.04-.31.72.69.79.49 1.85-.02.12-.14.11-1.23-.14-1.53 1.09a.45.45 0 0 1-.58.32q-1.62-.56-1.48.89a.51.5 87.5 0 1-.51.56q-1.69-.03-2.69 1.24-.21.27-.51.1l-.45-.25a.18.18 0 0 0-.24.07l-2.18 3.99q-.26.47-.74.23l-.58-.28q-.33-.16-.7-.09l-1.82.36q-.38.08-.22-.27.16-.35-.35-.69a.38.38 0 0 0-.58.39q.45 2.04-1.72 2.01-.59-.01-.17.4l.17.18q.79.79-.31.6l-3.24-.55q-.48-.08-.63.38-.14.44-.01.98.09-.39 0-.7-.13-.45-.41-.07-1.2 1.58-3.46 1.3a.44.44 0 0 0-.27.83q.68.38.02.93a.31.31 0 0 1-.5-.18q-.34-1.89-2.17-2.9-.5-.28-.67.26l-.32.99a.25.24 54.1 0 1-.48-.08v-.96a.53.53 0 0 0-.69-.5q-2.44.79-3.53-1.33a.54.53-34.8 0 0-.84-.15q-.94.88-1.99.75-1.06-.13-1.18-.13-2 .01-4.04-.11a.68.66 15.6 0 0-.62.34l-.31.52q-.24.43-.51.01l-1.32-2.05a.38.38 0 0 0-.65.01l-.5.86q-.15.25-.42.13-.87-.41-.6-1.62.18-.82-.52-.35-.8.54-.39 1.28a.35.34-24.3 0 1-.19.49q-.34.13-.49-.14a.34.34 0 0 0-.5-.1q-3.02 2.27-2.59 6.16.05.45-.36.64-.51.23-.78.65-.12.17-.1.34.03.19.14.34.33.45.64-.03.65-1.03 1.33-.87a.37.37 0 0 1 .12.67q-1.44 1.01.02 1.28.51.1.72-.37.49-1.08 1.64-1.35.54-.12.51-.68-.02-.38 0-.76 0-.04.04-.04.01-.01.02-.01a.03.03 0 0 1 .03.04q-.71 1.77.72 2.44a.3.3 0 0 0 .43-.24q.08-.58-.35-.8-.83-.44-.09-1.01.6-.46.99.14.31.46-.15.78-.59.42-.23 1.14.28.57.88.38 1.04-.34 1.81.29.8.65.73-.39l-.05-.67q-.04-.44.39-.33 1.25.33.84 1.76a.27.27 0 0 1-.2.2q-1.19.26-2.29-.26-.26-.12-.43.1-1.34 1.71-3.86 1.28-.07-.01-.1.05-.06.13-.12.25-.12.23.12.3 3.11.99 3.12 4.21.01.46.46.37 2.38-.44 2.79 2.21.21 1.31.74 2.58.24.57-.37.68-2.8.5-4.12 3a.37.37 0 0 1-.7-.15q-.12-2.49-2.73-2.29-.56.04-.69.59l-.26 1.09q-.12.51-.63.63-1.91.45-1.91-1a.19.19 0 0 0-.37-.03l-.04.29q-.08.66-.24.02l-.24-.99a.38.38 0 0 0-.66-.16l-1.41 1.61q-.26.3-.59.1l-1.89-1.15a.43.43 0 0 1 .32-.78l.62.15q1.04.25.38-.59-1.47-1.86-3.52-1.51a.74.74 0 0 1-.75-1.12l.42-.69a.42.42 0 0 0-.53-.6q-2.09.99-2.83 3.06a.26.26 0 0 1-.5-.09v-.52q0-.19-.15-.29-.12-.07-.26-.05-.24.04-.28.28l-.43 2.7q-.08.47.06.91.6 1.92-.35 3.65-.27.49-.16 1.05l.79 4.04q.08.43-.12.81l-1.52 2.86q-.22.41-.03.84.92 2.09-.34 3.28a.46.46 0 0 0 .31.8q.85.01 1.08.92a.54.53 67.5 0 0 .79.33q.94-.57 1.87.06.86.59-.18.7-1.21.12-2.51-.17-.55-.12-.71-.66-.21-.73-1.17-.69-.31.02-.57-.14l-2.16-1.36q-.35-.22-.44-.62l-.34-1.55q-.13-.6.3-1.04.54-.56.59-1.62.02-.41.29-.7 1.26-1.33.44-3.42-.18-.45-.62-.64-1.03-.45-1.22-1.62-.07-.44.03-.87.31-1.36-.62-2.23-.28-.26-.01-.52l.39-.4q.25-.25 0-.49l-.24-.24q-.22-.22.09-.23.33 0 .53-.23.12-.14.12-.35.01-.82-.61-1.28-.37-.28-.38-.74-.04-2.17-1.88-3.46-.22-.15.04-.2.51-.1.9-.24.5-.17.62-.52.19-.5-.32-.32-1.87.65-3.95.1-.42-.11-.67.25-.33.45-.9.23a1.49 1.4 83.6 0 0-1.65 2.19q1.3 2.12-.56 3.51-.47.35-.81-.13l-2.49-3.49a.28.27-52.9 0 0-.48.07l-.11.3a.5.48 43.5 0 0 .02.38l.51 1.12q.3.63-.34.92-1.44.65-.78 2.22.24.59-.16 1.08-1.2 1.47.01 2.96.35.43-.18.59l-.61.2a.55.55 0 0 0-.3.8q1.36 2.31.82 4.38-.72 2.79-.83 4.33-.01.16-.17.12-.62-.17-1.24.39-.3.28-.23.68.1.6-.54.6a.77.76 84.6 0 0-.74.91l.53 2.9q.1.55-.45.65l-1.72.3q-.55.09-.6.65-.08.77-.88.55a.42.41-25.4 0 0-.28.78q1.27.56.61 1.74-.3.54.31.67 1.31.28 1.14 1.67-.03.21-.24.2l-.25-.02q-.8-.07-.36.6.75 1.17 2.05 1.27.61.04.41.14-.15.07-.15.21-.01.14-.13.19l-1.4.53q-.97.37-.06.87l.32.17a.67.66-68.1 0 1 .32.76q-.37 1.34-1.42.96-.37-.14-.74-.02-1.43.45-2.57-.38-.35-.26-.41-.69l-.31-2.25a.58.58 0 0 0-1.15.05l-.07 1.69a.04.03 0 0 1-.04.03q-.59-.02-.44-.71.09-.46-.05-.91l-.41-1.28a.68.67-28.3 0 1 .22-.73l.85-.66q.4-.31.05-.67l-.52-.51a.33.33 0 0 1 0-.46l.52-.51a.58.58 0 0 0-.45-.98q-1.28.09-1.24-.79a.66.46 72.9 0 0-.86-.67q-.37.5-.62-.03a.52.26-81.3 0 0-.47.67q.04.22.36.49.26.21.05.47-.48.57-1.25.31-.44-.15-.44-.61v-5.72q0-.82-.8-.64-1.56.35-2.59-.63-.33-.31-.62.03-.1.12-.17.23-.07.12-.21.14l-5.57.72q-.73.1-.79.83-.15 1.76 1.31 2.74a.53.52-57.3 0 1 .15.71l-1.55 2.49q-.22.37-.64.31l-1.35-.2q-.52-.08-.25-.53.36-.62.1-1.2a1.09.05-81.7 0 1 .1-.99q.09-.62.71-.63.73-.02.28-.59-.58-.74-.27-1.73.18-.55-.39-.56-.43-.01-.65.41-.31.58-.53-.03l-.59-1.59a.31.31 0 0 0-.5-.12l-1.47 1.33q-.27.24-.52-.01-.78-.78-2.1-.28-.2.07-.05.21l1.32 1.25a.16.16 0 0 0 .27-.11q0-.13-.03-.25-.04-.17.08-.05l.47.47q.17.17-.07.19l-2.46.14q-.49.03-.59.51l-.22.97a.43.43 0 0 0 .61.47q.61-.31.97.28.45.74-.39.54-1.14-.28-1.47 1.02a.96.95 3.9 0 1-.83.72l-5.87.67q-.5.05-.78.47l-.83 1.24a.36.35 62 0 1-.65-.2v-.94a.63.63 0 0 0-.69-.63l-1.56.15a.54.53-.7 0 0-.49.49l-.17 2.09q-.05.61-.55.27-.4-.28-.3-.71.16-.65-.46-.38l-1.48.65q-.68.3-.37.97l.4.87q.21.46-.28.56-1.48.3-1.68 1.9a.12.12 0 0 0 .17.13q.21-.07.16.12-.1.38-.5.38-.72-.01-1.55.41-.23.12-.49.1l-1.02-.08a.43.42-26.8 0 0-.26.78l.6.37q.57.35.07.8-1.55 1.39-.77 3.5a.32.31-49.3 0 0 .6-.05l.36-1.58q.1-.45.16.01l.37 2.61q.07.49-.38.7-1.11.5-1.75 1.34-.26.35-.66.51-1.4.58-1.56-.72a.54.53-14.3 0 0-.73-.43l-.5.19q-.44.18-.34.64l.19.85q.08.38-.17.68l-1.91 2.17q-.31.37-.3.84l.04 2.47q.02.71-.64.46-1.46-.53-2.99-.15-.36.09-.66-.14l-.36-.29a.46.46 0 0 0-.68.61q1.06 1.7-.4 3.22-.3.32-.14.72.81 1.99-.49 3.94-.4.58-.82.02-1.29-1.7-3.45-1.19a.8.8 0 0 1-.98-.66q-.48-3.33 1.27-5.93a.3.29-72.8 0 0-.24-.46h-.3q-.25 0-.31-.24l-1.08-3.89q-.25-.9-1.13-.33-.33.22-.84-.37a.29.29 0 0 0-.51.23q.02.21-.09.33-.17.17-.63.17-1.5.03-2.11 1.3-.09.19-.28.09l-1.4-.75q-.25-.13-.27-.41-.05-.57-.55-.83a.86.85 12.8 0 1-.46-.72l-.16-3.49q-.02-.64-.63-.84-1.69-.56-.72-2.51a.54.54 0 0 0-.54-.77q-1.33.14-1.04-.78a.65.65 0 0 0-.52-.85l-1.09-.16q-.85-.13-.47.64.87 1.73 2.31 2.79.12.09-.02.13l-1.07.34q-.28.09-.27.39.01.13.04.26a.23.22-67.3 0 1-.41.17q-.49-.78-.77-1.84a.27.27 0 0 0-.53.02q-.12.68.36.96a.26.26 0 0 1-.11.49q-1.28.09-1.27.38a2.15 2.15 0 0 1-3.01 2.09q-1.12-.5-2.62-.44-1.77.08-2.5-.42-1.84-1.25-1.22-4.02.4-1.78-.55-3.34-.31-.5-.38.08c-.25 1.82-.49 2.85-.11 4.92q.43 2.35-1.59 3.6-.32.2-.08.49l.67.8q.31.38.23.86l-.32 2q-.08.49-.54.29-1.1-.5-1.25.74a.53.53 0 0 1-.94.26l-1.19-1.49q-.23-.28-.59-.2l-.62.13q-.2.05-.3-.14-.64-1.24-.12-2.5a.29.29 0 0 0-.41-.37l-.49.27a.25.25 0 0 1-.37-.16l-.13-.49a.12.11 61.2 0 0-.19-.06q-.11.1-.21.21-.28.3-.05.65.75 1.12-.18 1.94-.06.05-.1-.02l-.25-.48q-.2-.38-1.1.27-.19.14-.44.12-.37-.03-.37-.4v-1.79q0-.57-.56-.68-3.57-.67-3.19 3.05.01.12.12.18.15.07.27.12.29.1.35.4l.63 3.18a.53.53 0 0 1-.73.59q-1.1-.48-1.16.47a2.31 2.22 14.9 0 1-3.28 1.82q-.44-.21-.84.7-.15.35-.12 1 .08 1.66-1.48 1.8-.45.04-.59.47-.55 1.71-2.22 1.47-.52-.08-1.02.11-1.08.4-2.19.22-1.46-.24-1.98-.03-.92.38-1.51 1.3a.3.29 39.1 0 0 .04.37l.2.2q.28.29.02.61l-1.25 1.46q-.16.19-.37.05-.89-.57-1.85.12-.36.26-.28.71.04-.17-.01-.33-.15-.45-.45-.08-.55.7-1.08-.12a.21.21 0 0 0-.37.19l.36.83a.18.18 0 0 1-.27.21l-1.19-.88q-.31-.24-.66-.05l-1.03.56q-.3.17-.33.5l-.42 4.1a.86.85-1.8 0 1-.71.75q-1.24.21-1.13 1.24.05.47-.4.33l-.9-.27q-.66-.2-.66.49v1.1q0 .44.43.32l.78-.21q.23-.07.36.14l1.1 1.83a.53.53 0 0 1-.24.75q-1.16.53-1.41 1.71-.08.39-.42.59-1.74 1.05-1.42 3.26a.12.12 0 0 1-.2.11l-.28-.28a.39.38 24.7 0 0-.66.24l-.07 1.05a.22.22 0 0 1-.44.01l-.2-1.51q-.05-.37.19-.66l.49-.59q.1-.12-.05-.17l-1.43-.48a.58.58 0 0 0-.74.41l-.65 2.49a1.9 1.87-5.7 0 1-1.01 1.22q-2.09.98-3.01.34-.4-.27-.88-.21-.61.07-1.15.35-.35.18-.74.13-2.54-.32-4.59 1.26a.04.04 0 0 1-.06-.05q.37-.94-1.01-1.16-1.81-.29-3.57-1.14a.59.59 0 0 0-.81.32q-.43 1.14-1.46.05-.11-.12-.11-.28V859q.03-.58-.43-.23l-1.22.93q-.27.21-.58.06l-1.35-.65q-.35-.17-.43-.54l-.29-1.31a.9.01-59.9 0 1 .44-.77q.13-.22.43.07.64.6.69-.27.04-.71-.61-1.07-.35-.19-.45-.59-.58-2.52-.81-5.11c-.12-1.41.7-2.53.4-4.1q-.52-2.71-.52-2.91.04-2.26.58-4.49.16-.68-.5-.88l-1.51-.46q-.39-.12-.02-.3l1.01-.51q.68-.35 0-.7l-1.05-.54q-.21-.11-.22-.35v-.29q0-.58.58-.51.33.04.6-.16.32-.22.38-.74.18-1.76-1.26-3.09-.38-.35-.77-.01-.73.62-1.27 1.39c-.97 1.4-.54 3.98-.57 5.72q0 .17-.16.1l-1.05-.48q-.35-.16-.5.2-.07.16-.03.35.17.78-.61 0-1.84-1.84-.38-3.83a.66.66 0 0 0-.53-1.05h-.57q-.37 0-.44.36l-.63 2.97q-.09.41-.41.67l-2.09 1.65q-.52.4-.27 1.01l.9 2.16q.1.23-.15.27l-.62.1a.33.32-21.7 0 0-.22.5q.25.4.68.28.49-.13.24.31l-.4.74q-.33.6-.87.18-1.16-.94-2.25 0-.09.08-.01.17.09.09.18.19.19.25-.09.38c-2.1 1.06-1.1 3.93-1.67 6.01q-.05.19-.24.19-.18 0-.33-.06-.35-.14-.47.22-.5 1.48-.55 2.95a.02.02 0 0 0 .04 0q.28-2.49-1.99-2.41-.55.02-.29-.47l.23-.41q.43-.82-.42-.45l-3.11 1.35a.39.39 0 0 1-.53-.45l.18-.74q.09-.35-.15-.63l-.93-1.09a.31.3 82.2 0 1 .36-.48q.95.47 1.31.24a1.36 1.36 0 0 0-1.18-2.43q-1.08.37-1.09 1.44 0 .4-.35.59l-.46.24q-.17.09-.12.28.32 1.13 1.34 1.38.67.17.05.45-2.71 1.25-5.6.25-.47-.16-.56.33l-.37 2.08a.74.74 0 0 1-.42.54q-.96.41-1.12 1.5-.1.65.31 1.15 1.06 1.3.23 3-.21.43-.69.45-.88.05-.89-.85-.01-.36-.36-.36-.25 0-.55-.05-.07-.01-.07-.08-.01-.13-.01-.25 0-.19-.17-.27-.27-.15-.61-.11a.37.28 31 0 1-.24-.61l1.46-.18q.56-.07.56-.64v-3.5q0-.52-.52-.45-2.38.34-4.58-.68-.49-.23-.32-.74.44-1.29 1.52-2.1a1.68 1.66-14.2 0 0 .63-1.04q.31-1.75-1.12-2.65-.55-.34-.75.27l-.26.84q-.08.25-.27.06l-.52-.52q-.32-.31-.44.12l-.09.31q-.02.08-.03 0-.01-.16.02-.39a1.27.86-35.3 0 0-2.11.05q-1.96 3.08-5.48 4.14-.55.17-1.02.5-2.21 1.57-4.73.55-.58-.24-1.08.14l-1 .74a.4.4 0 0 0 .17.71l.88.15a.77.77 0 0 1 .22 1.44q-2.67 1.37-5.19 2.92-.48.29-.7.76-.19.39-.29.83-.11.52-.64.5-2.33-.07-4.28-1.22-.54-.32-1.11-.08l-3.09 1.29q-.48.2-.8-.2-1.69-2.17-3.09-4.53-.1-.16-.22-.22-.18-.08-.36-.05-.4.08-.6-.27-.65-1.16-1.95-1-.62.08-.78.68-1.04 3.95-.22 7.91.11.49-.2.88-1.05 1.4-.89 3.06.05.54-.46.71-1.27.44-.94 1.45.18.54-.3.84-2.12 1.31-3.9-.86-.49-.6-1.15-.19-.56.36-.77-.28l-1.17-3.77q-.09-.28.19-.36.31-.09.4-.39a.46.45 21.1 0 0-.24-.53l-.72-.37q-.75-.38.05-.6l1.56-.44a.38.37-32.2 0 0 .15-.64l-.76-.66q-.29-.25-.62-.05-.98.62-2.37.49-.65-.07-.65.59v1.11q0 .62-.55.33-.9-.46-.68-1.37.11-.46.53-.7l2.52-1.38q.78-.43-.07-.7-1.34-.43-2.06-1.68-.2-.36.21-.42 1.09-.17.82.69-.19.59.31.21.35-.27.81-.75a.62.62 0 0 1 .35-.2q.65-.15.61.51a.53.53 0 0 0 .75.52l.52-.25q.42-.2-.02-.36-.3-.11-.56-.33-.33-.29.11-.29.47-.01.86.33.31.27.33-.15.05-1.3-.89-2.23-.37-.38-.9-.36l-5.52.15q-.53.02-.94-.33-1.45-1.25-4.78-.35-.33.09-.39-.25l-.53-3.36a.44.44 0 0 0-.84-.1l-1.1 2.62q-.22.51-.71.26-.92-.47-1.3.46-.24.57-.68.13-.67-.67-1.22.05a.89.87-63.1 0 1-.95.32q-3.29-.95-4.15 1.97-.55 1.9-.19 4.61.06.43-.35.58-.26.1-.33.32-.15.48-.62.65-.7.26-.68-.18a.23.23 0 0 0-.41-.17q-1.12 1.32-1.7 2.86-.18.49.1.92.38.57-.32 1.3a.49.49 0 0 0 .47.82q.64-.16 1.07.02a.13.13 0 0 1-.09.24q-.46-.15-.84.19-.45.4-.61.98l-.46 1.69a.59.58 17 0 1-.76.4q-1.02-.36-1.18.57-.09.52-.6.4-1.69-.39-2.07 1.2-.1.43-.37.07l-.41-.54a.23.23 0 0 0-.35-.02l-1.97 1.94q-.23.21-.54.22l-3.33.05q-.44 0-.2-.36.31-.5-.21-.78-.26-.14-.08-.37.12-.16.32-.17.11 0 .16.1l.5.94a.63.63 0 0 0 1.16-.5q-.25-.74-.06-1.36.46-1.49-1.08-1.64-1.74-.17-1.46.99.07.26-.19.33-1.45.4-2.87.56-.31.04-.33-.28l-.07-1.68a.56.56 0 0 0-.68-.53q-2 .43-3.55-.77-.53-.4-1.2-.38-1.94.06-2.68-1.92a.5.49 61.8 0 0-.75-.23q-2.27 1.59-5.01 1.57-.14-.01-.19.13l-.12.33q-.16.45-.43.05-1.11-1.63-2.94-1.23a.82.82 0 0 1-.67-.15q-.74-.55-1.68-.24-.4.13-.32.54l.15.73q0 .02-.01.02l-.18.18q-.08.09-.18.02-1.09-.7-2.02-1.59-.41-.39-.48.17l-.11.87a.58.57 31.2 0 1-1.04.25q-1.32-1.87-3.53-1.02-.49.19-1.02.09-4.75-.88-9.46 0c-1.24.23-2.65-.18-3.93-.24q-.55-.03-1.04.25-1.59.89-2.87-.37a.8.8 0 0 0-1.24.15q-.43.68-1.16.12-.58-.44-1.02.14l-.26.34q-.27.36-.47-.03-.31-.6.01-1.22.17-.32-.13-.52l-.43-.28a.57.57 0 0 0-.74.11q-.73.88-1.91.92-.54.01-.59.55l-.09.95q-.05.42-.43.58-1.74.74-2.05 2.61a.92.92 0 0 1-1.72.28q-.49-.91-1.37-.96-.4-.03-.4.37 0 .13-.01.26-.03.25-.2.42-.83.85-1.11.02a.22.22 0 0 0-.43.07v.49q0 .46-.15.03l-.31-.89q-.19-.56-.71-.28-1.36.74-1.37 2.19 0 .64-.62.49-.41-.09-.36-.41a.35.35 0 0 0-.63-.26l-.56.76q-.36.49-.65-.05l-.17-.31q-.34-.63-.57.05-.59 1.7-.11 3.37.11.39-.28.28-.6-.18-.62-1.16-.01-.69-.66-.45l-1 .37a.44.44 0 0 1-.59-.38q-.05-.69-.54-.79-.65-.13-.63-.8.05-1.13-.58-1.94a.43.43 0 0 0-.75.12l-.42 1.16q-.24.67-.71.14-.7-.79-.61-1.75a.41.4 79.5 0 0-.58-.4l-1.55.75a.05.04-37.8 0 0-.01.07q.1.08.19.18.14.16-.03.28-.27.19-.55.13a.47.47 0 0 0-.54.28l-.27.64q-.13.32.17.48 1.07.57 1.66-.43.37-.63.72.01l1.33 2.42q.13.23.07.49-.3 1.24-1.53 1.29-.74.04-.74-.7v-.76q0-.55-.55-.63-.96-.14-1.61-.83a.33.24 22.2 0 1-.08-.13q-.11-.36.18-.22a.28.27-7.2 0 0 .33-.42l-.49-.61q-.12-.14.05-.22.18-.09.35-.18a.18.18 0 0 0-.08-.34h-.61q-.65-.01-.17-.44.51-.45.51-1.26-.01-.45-.23-.84-.63-1.15-1.68-1.97-.05-.04-.03-.09l.1-.4q.15-.61-.47-.54-1.4.15-2.21 1.29-.44.61-.45-.14l-.03-1.13a.46.46 0 0 1 .66-.43q.84.41 1.24-.46.23-.47-.15-.85l-.35-.35q-.29-.29.25-.3.19 0 .5-.13a.52.52 0 0 0-.35-.98q-1.2.36-.88-.75a.55.55 0 0 0-.99-.45l-1.1 1.65q-.51.76-1.03 0l-1.49-2.17a.46.46 0 0 0-.68-.09q-.58.48.25.88.48.23.29.74-.43 1.08-.18 2.15.12.52-.14.99-.77 1.41.64 2.77.26.24.6.14.21-.06.41.2.6.78 1.41.48.4-.15.6.23l.26.5q.41.77-.45.59l-1.26-.27q-.5-.11-.95.13-.57.31-.45.98.06.33-.26.24-1.11-.31-1.49-1.52a1.63 1.63 0 0 0-3.19.45q-.07 2.97-2.58 4.85-.52.39-.79-.2l-.5-1.09q-.21-.45-.69-.37-2.3.38-1.82 2.84a.59.58 71 0 1-.3.63l-.51.28q-.38.2-.34.62l.19 2.36a.56.56 0 0 1-.72.59q-1-.28-.83-1.63.17-1.28.67-2.4.17-.38-.24-.49l-.51-.12q-.27-.07-.25.21.1 1.36-1.07 1.56a.59.59 0 0 0-.43.84l.52 1.04q.34.68-.33.31l-.24-.13q-.33-.18-.59.1-.84.89-2.06 1.12a.26.26 0 0 1-.13-.51q.25-.09.53-.02.47.1.47-.38v-.58q0-.5-.49-.54-.59-.06-.97.47-.28.4-.75.49-2.69.55-3.19-1.93a.55.55 0 0 0-1.09.11v.33q0 .42-.19.8l-.72 1.48q-.27.54-.83.32l-1.4-.54q-.43-.17-.9-.16-1.34.01-2.34-1.09a.73.68-13.1 0 0-.38-.22q-1.49-.35-1.76.97-.05.23-.28.23-.18 0-.39-.01a.5.5 0 0 0-.26.94q.47.24.45.67-.01.19-.18.1-1.58-.85-.75-2.39.42-.79-.47-.65l-1.74.28q-.36.06-.36.43v.61q0 .35-.28.14l-1.26-.94q-.13-.1.03-.15l.71-.25q.28-.09.26-.39-.03-.56.53-.56a.38.38 0 0 0 .14-.74l-3.15-1.23q-.54-.2-.8.31-.51 1-1.8 1.01a.26.26 0 0 0-.03.51l.55.08a.12.12 0 0 1 .1.12v.26q-.01.48-.49.43-2.44-.25-3.52-2.51-.21-.45-.67-.26-1.37.57-2.77-.2-.43-.24-.25-.7l1.11-2.7q.06-.14.03-.2-.06-.15-.21-.16-.23 0-.17-.22.51-1.99-.72-3.77-.21-.29-.51-.1l-.22.15q-.28.18-.32-.15l-.12-.74a.49.49 0 0 0-.97.04q-.07.99-.84.95-.32-.02-.36-.34-.02-.13-.09-.24-.05-.08-.15-.07l-1.52.18a.56.56 0 0 0-.48.67q.17.9-.74 1.08a.6.6 0 0 0-.48.69q.25 1.56-1.17 2.4-.33.19-.7.12-1-.2-2.06.49a.55.54 63.8 0 1-.81-.28q-.57-1.69-2.11-.77a1.15 1.15 0 0 0-.11 1.9l1.99 1.53q.23.18.02.38l-1.74 1.61q-.43.4-.84-.02l-.39-.38q-.09-.1-.04-.22.06-.17.14-.32a.3.3 0 0 0-.5-.33q-1.08 1.28-2.62.3-1.8-1.15-3.62-.26-.17.08-.31-.04l-1.5-1.22a.26.26 0 0 0-.42.21q0 .14-.01.29-.02.3-.32.29-1.46-.08-1.75 1.18a.92.92 0 0 1-1.77.07l-.15-.48q-.05-.18-.23-.24-2.88-1.01-5.36.48-.5.3-.57.88-.11 1.01.54 1.86.11.15-.07.21l-.32.1q-.36.11-.38-.27-.02-.31-.14-.57-.36-.73-.79-.05l-.19.29a.03.03 0 0 1-.06-.02l.25-2.03a.85.84-73.9 0 0-.47-.86q-1.5-.71-2.57.45a.41.41 0 0 1-.68-.11q-.68-1.47-1.94-.92-.27.12-.55.02l-.71-.25q-.26-.1-.54-.02-2.94.8-5.33-1.08-.46-.37-1.05-.3-.63.07-.8-.24-.57-.97-1.31-.3l-1.44 1.31q-.36.32-.84.3l-5.58-.29q-.63-.04-.63-.66v-.79a.51.51 0 0 0-.96-.25q-.45.82-1.17.46-.38-.18-.76-.01-1.91.84-3.88-.05-.42-.19-.82.02-3.09 1.6-5.55-.73-.1-.1.03-.17l.22-.12a.12.1 40.3 0 1 .11 0q.29.16.29.39a.22.07 72.7 0 0 .19.27q.08-2.92 2.47-4.72a.37.37 0 0 1 .54.12l.9 1.62q.31.57.85.21l1.29-.86q.41-.28.8.03l1.2.94q.86.69.89-.42.01-.61.59-.66a.31.31 0 0 0 .06-.6q-1.43-.47-1.53-1.87-.04-.66-.67-.48l-.97.28q-.47.14-.36.62.03.12 0 .26a.17.16-51.5 0 1-.31.04q-.85-1.83.21-2.94.34-.35.02-.73-.74-.87-.13-2.05.19-.35.44-.04l1.09 1.34a.45.45 0 0 0 .8-.28l.05-2.51a.69.69 0 0 0-.72-.7l-3.46.17a.78.78 0 0 0-.74.84q.02.3-.12.51-.18.28-.41.05l-.51-.51q-.14-.14.03-.24l.26-.14q.93-.5-.11-.69-.82-.15-1.52.43a.13.13 0 0 0 .03.22q.11.05.25.09.57.17-.04.15h-.33q-.11 0-.18-.08-1.63-1.76-3.78-.42-.49.31-.57-.26-.12-.8-.8-1.41-.45-.4-.45.21v.46a.01.01 0 0 0 .02 0q.03-.2-.12-.44-.13-.21-.3-.04l-.22.23a.13.13 0 0 1-.2-.15q.19-.36.03-.59a.27.27 0 0 0-.48.25q.27.76-.35 1.04a.39.39 0 0 1-.39-.67l.44-.32q.23-.17.07-.41l-.72-1.08q-.04-.06-.04-.13.01-.11.04-.24-.22.32.16.5a.21.21 0 0 0 .3-.19v-.28q0-.07.14.01l.51.28q.29.16.37-.16.19-.76-.38-1.14-.18-.11-.05-.27.54-.67 0-1.81-.21-.46-.7-.55-2.1-.39-4.25-.18a.6.6 0 0 1-.55-.95q.5-.69-.46-1.17-.53-.26-.11-.68l.5-.5q.31-.32.18-.74-.69-2.07.19-4.15.28-.68-.45-.61-2.04.2-3.94-.5-.94-.35-2.8.64-.39.21-.71-.09-1.22-1.07-1.79-2.53-.18-.44-.63-.28-.3.11-.16.42.25.55-.36.52-1.4-.09-1.69-1.62-.13-.66-.79-.56-.77.11-.57-.66a.5.5 0 0 0-.84-.48l-.27.28q-.31.31.03.58l.59.47q.44.35-.11.46l-1.67.33a.54.54 0 0 1-.63-.38l-1.16-3.92q-.16-.54-.72-.63l-5.19-.8q-.51-.08-.53-.59l-.18-6.73a.45.45 0 0 0-.72-.35q-1.13.82-1.62-.64a.65.65 0 0 0-1.06-.27q-2.43 2.29-4.98.44-.16-.12-.3.02l-.26.27q-.4.4-.67-.09-.6-1.11-1.55-.5-.45.28-.68-.19l-.34-.67a.45.45 0 0 0-.83.08q-.54 1.94-2.39 2.34a.92.91 79.7 0 0-.71 1.04l.53 3.49q.07.42-.24.12l-.31-.32q-.45-.45-.65.15-.24.7.32 1.29a1.03 1.03 0 0 1-1.19 1.64q-1.38-.65-1.3-1.76.03-.44-.26-.76-1.92-2.15-5.02-1.64-2.37.39-4.71-1.84-2.02-1.93-2.37-3.8-.06-.32-.39-.35-1.39-.13-1.72.98a.49.49 0 0 1-.84.18q-1.49-1.7-3.39-.6a.53.52 56.3 0 1-.67-.14q-1.07-1.37-2.75-1.21-.36.04-.71-.03-2.06-.42-4.2.04-.56.11-.96-.28l-4.34-4.21q-.3-.29-.71-.32-1.3-.08-1.86-1.27c-.31-.65-.08-1.31-.37-1.95q-.15-.32-.09-.68.1-.67.96-.52.69.13.47-.53l-.33-.96a.39.39 0 0 0-.75.02l-.09.34a.21.21 0 0 1-.36.1l-.23-.23q-.17-.17.01-.34l1.37-1.2a.39.38-61 0 0-.19-.67l-6.05-1a.72.68 39.7 0 0-.33.02l-3.62 1.1q-.6.19-.69.81l-.73 5.17q-.07.48-.46.76-.35.24-.25.63a1.36 1.17 10.7 0 1-2.02 1.16q-1.32-.75-2.63.2-.06.04-.12-.01l-.21-.21q-.34-.35.1-.53l1.38-.57q.36-.15.72.02.83.41 1.71.08.44-.17.44-.64v-1.29a.39.39 0 0 0-.63-.3q-1.21.94-2.69.14-.54-.29-.07-.68l1.7-1.44q.33-.28.33-.71v-1.77a1.4 1.4 0 0 0-2.55-.8l-.47.67a.4.4 0 0 0 .51.59l.29-.15a.39.39 0 0 1 .5.56l-.35.54q-.16.24-.44.26l-1.02.07a.28.28 0 0 0-.15.5q.38.29.05.59a.19.19 0 0 1-.31-.19l.12-.46q.17-.7-.54-.57-1.32.24-1.07-.93.03-.13.06-.13.15 0 .29-.01a.27.27 0 0 0 .16-.48q-2.62-2.11-5.7-1.04-.63.21-1.02-.32l-.55-.75a.9.9 0 0 0-.9-.35q-1.3.24-1.52-1.07a.87.87 0 0 0-1.71-.04q-.35 1.6-1.48 2.86-.19.22-.2.42-.03.35.2.63.2.24-.1.3l-1 .21q-.54.11-.67-.42-.45-1.85-2.02-1.65a.56.55-10.6 0 1-.61-.41l-.15-.61a.14.14 0 0 0-.26-.02q-.07.13-.14.27-.2.48-.52.07-.96-1.23-2.33-.66-.64.27-.64-.43-.01-1.23 1.04-1.75a.31.31 0 0 0-.21-.57l-1.12.28a.16.16 0 0 0-.1.23l.16.3a.08.08 0 0 1-.11.1q-.7-.51-.54-1.61.14-1-.45-2.12-.22-.41.09-.76.61-.69.3-1.21-.2-.35-.13-.75.58-3.23-.26-6.36-.18-.69-.81-.26a.14.14 0 0 0 .03.24l.37.13a.17.17 0 0 1-.02.33l-3.57.64q-.44.08-.85-.1l-.83-.38q-.44-.2-.72.2-.6.87-1.13.57-.81-.47-.76.47.16 2.55 2.93 2.29.51-.05.42.46l-.19 1.13q-.07.44-.52.47-1.08.09-1.12-.85-.02-.66-.52-.23l-1.14.99q-.33.29-.45.71-.72 2.53-.27 4.63.4 1.85-.61 3.09a.88.87 26.3 0 1-.9.3q-1.25-.31-2.25.37-.32.22-.64.02-.16-.1-.38-.05-.13.03-.14.15-.01.07.01.13.06.13.01.14-.51.12-.34-.2a.3.3 0 0 0-.38-.41l-1.87.75q-.46.18-.93.05-1.64-.45-3.14-.08a3 3 0 0 1-3.7-2.59l-.44-4.1a.79.78-79.9 0 0-.41-.6q-1.34-.73-2.78-.29-.45.13-.89-.02l-3.03-1.08a.61.61 0 0 0-.72.27q-.83 1.43-2.28 1-.47-.13-.9.08-.62.3-1.43-.14-1.27-.69-1.99.44a.55.54 25.6 0 1-.65.22q-1.75-.64-3.14-1.88-.28-.25-.66-.24-1.69.02-1.16 1.81a.5.5 0 0 1-.68.6l-4.13-1.72q-.52-.22-.75-.74l-1.14-2.56q-.33-.73-.89-.17l-.19.19a.37.36 45.6 0 0 0 .51q.9.9.13 2.02-.3.43-.83.46-2.3.14-2.46-2.28-.01-.16-.07-.25-.07-.12-.18-.19-.17-.11.03-.11h1.9q.66 0 .46-.63-.05-.18-.18-.31-.19-.2-.46-.24l-1.73-.26q-.67-.1-.5-.76.25-.93 1.11-1.27a.36.36 0 0 0-.05-.68q-1.82-.43-1.28-2.09.2-.63-.42-.86l-1.04-.38q-.58-.22-.05-.53 2.07-1.22.68-3.41-.21-.32-.08-.68.66-1.81-.23-3.41-.33-.59-.91-.22l-.32.21q-.35.23-.32-.19.03-.29.24-.37.45-.19.24-.63-.38-.79-1.16-.79-.48 0-.36-.46l.1-.42a.39.39 0 0 0-.73-.26l-.64 1.32a1.33 1.33 0 0 1-2.44-1.05q.38-1 1.45-1.41.44-.17.33-.62-.07-.3-.4-.35-.07-.01-.03-.06.09-.09.19-.18a.16.16 0 0 1 .26.12v.68q0 .57.55.42l3.76-1.08a.8.8 0 0 0 .28-1.39q-.83-.68-.29-1.85a1.22 1.22 0 0 0-1.71-1.57q-1.6.9-.9 1.85a.05.05 0 0 1-.02.08q-.21.06-.38.17-.15.09-.21-.07l-.45-1.2q-.21-.56-.73-.27-.47.27-.41.74.13.98-.41.14-.65-1.03-.24-2.31.15-.47-.2-.82l-.39-.38q-.35-.35-.03-.73.8-.95-.18-1.71a.55.55 0 0 0-.85.65q.3.71-.17 1.28-.32.37-.04.77 1 1.42.33 3.14-.19.47.11.88.75 1.05-.41 1.16a.36.35-34.1 0 0-.13.67l.28.14q.34.19.03.43-1.13.86-1.86-.44-.1-.18-.03-.38.15-.41-.09-.99-.27-.66-.89-.64-.44.01-.35-.42l.09-.43q.08-.36.4-.16l.44.29a.24.24 0 0 0 .35-.29l-.7-1.71a.61.61 0 0 0-1.13 0q-.9 2.16-3.31 1.78a.05.05 0 0 1 0-.1q.15-.03.26-.09.12-.06.1-.19-.37-1.78-2.36-1.91-.12-.01-.12-.13 0-.33.03-.62a.08.07 73 0 0-.12-.07q-.58.45-1.69.01a.23.23 0 0 1 .12-.45q2.19.33 2.31-1.59.04-.77-.72-.65-.65.1-1.14-.18a.95.95 0 0 1 .38-1.77l1.88-.21a.39.39 0 0 0-.06-.77q-1.5.05-1.62-1.47-.03-.26.12-.48.12-.19.28-.37.45-.51-.19-.75l-1.31-.5q-.37-.14-.33.25l.02.29q.03.3-.18.51-.9.91-.81 2.16.02.37-.35.34-1.48-.12-2.24-1.39a.49.49 0 0 1-.04-.42l.37-.92a.46.46 0 0 0-.77-.47q-1.27 1.4-.44 2.84a.52.51-17.8 0 1-.4.77l-3.67.36q-.53.05-.16-.34 1.23-1.32.59-3.13a.11.11 0 0 0-.18-.04q-.09.1-.19.19-.1.1-.17-.03-.11-.19-.21-.38a.26.26 0 0 0-.5.14q.07.74-.45.78-.35.02-.08-.21.11-.1.19-.21.31-.38-.03-.73-.77-.81-1.37-.41-.36.23-.36.66v.56q.01.69-.69.69h-.74a.86.85-38.4 0 0-.2 1.69q1.03.24 1.9-.03.4-.13.47.28.05.33-.37.37-2.26.22-5.46.01-.48-.03-.81-.38-.5-.53-1.1-.08-.34.26-.67-.02-.18-.15-.26-.34-.17-.36.04-.7.38-.6.78-.42a.32.32 0 0 0 .3-.56l-.29-.18q-.06-.04-.04-.11l.14-.39q.11-.31-.17-.48-3.02-1.83-2.22-5.36.07-.3-.16-.51l-.84-.74a.38.37 12.8 0 0-.61.38q.38 1.32-.9.9-.21-.07-.24-.29l-.06-.48q-.05-.38.31-.24.55.2.9-.19a.33.33 0 0 0-.31-.54q-1.25.24-2.17-.53-.1-.09-.06-.22.11-.37-.15-.65a.39.39 0 0 0-.51-.04l-.43.33q-.33.24.06.38.33.12.48.39.33.6-.34.44l-1.42-.35q-.41-.11-.34-.52l.15-.84q.08-.44.51-.54.89-.22 1.53.18.5.31.88-.14 1.15-1.37 2.5-.53.75.46.65-.42-.11-.98-.04-1.92.02-.34.68-2.29.57-1.71-.99-3.33-.73-.77-.72-1.88 0-.48-.2-.92-.75-1.6-2.16-2.41-.35-.2-.36.21 0 .13.05.28a.51.23 44.2 0 1-.75-.27q-.25-.59-.96-.24a2.02 1.6-86.8 0 1-1.96-2.78q.44-1.09-.29-1.71-.22-.18-.17-.47l.57-3.26a.62.61-80 0 0-.49-.71q-2.7-.5-4.87-.36-3.12.19-3.84-2.44-.13-.47-.6-.62-1.64-.49-3.23-.57-.57-.03-.91.21-.52.37-.56.97a.32.32 0 0 0 .44.32q.65-.27.36-.76-.13-.23.1-.11l.3.16q.37.2.14.55l-.68 1.03q-.21.32-.58.37-2.31.28-4.56-.25-.44-.11-.57-.55-.51-1.7-1.9-2.84-.4-.33-.11-.8a.34.33 16.3 0 0-.28-.51h-.57q-.17 0-.23.16l-.1.29q-.24.65-.24-.04l-.01-1.57q0-.37.34-.5 2.29-.89 4.68-.66.33.03.62-.13.43-.24.92.14 1.63 1.24 3.41.26.38-.22.81-.1 3.3.94 4.66-2.1.17-.39.09-.81-.35-1.78.04-3.56.1-.43.02-.85l-1.33-7.19q-.1-.55-.57-.83c-1.76-1.01-3.11-.34-4.82-.13q-2.89.35-5.86.74-.96.13-.09.56 1.06.52 1.97.06a.13.13 0 0 1 .13.22q-2.38 1.49-.47 3.25.28.25.55.25.55 0 .39-.9a.27.27 0 0 1 .26-.32l.39-.01q.48-.01.21.39l-.5.74q-.13.18.03.34l.21.22q.34.34-.1.52l-.68.28q-.58.24-.77-.37-.26-.85-1.24-.68a.35.35 0 0 1-.3-.6q.57-.51.39-1.15-.24-.82-.91-.29-.4.31-.79-.08a.68.67-44.7 0 0-.95 0l-2.66 2.63q-.46.46-1.11.52l-5.08.47a.82.81-87.2 0 0-.73.67q-.36 2.06-2.07 1.69-.43-.09-.28-.39.24-.51-.32-.55-2.02-.16-3.02 1.45a.05.04 70 0 1-.08-.04q.11-.39.09-.73-.02-.39-.39-.27l-1.21.38a.12.12 0 0 0-.02.22q.12.07.3.04.26-.04.12.18-2.32 3.6 1.15 6.06a.69.68 10 0 0 1.06-.74q-.17-.6.45-.36a.66.65 23.2 0 0 .83-.33l.55-1.19q.11-.23.36-.27 1.35-.23 1.81-1.67a.27.27 0 0 1 .53.08q.01.57-.52.68a.3.3 0 0 0-.15.51l.36.36q.16.16-.04.27l-.91.5q-.57.31-.13.79 1.48 1.63.21 3.79-.05.09.06.11.14.03.25.06.08.02.04.09l-.31.52q-.33.57-.88.22-.21-.14-.39-.34-.31-.33.12-.19l.32.1a.26.26 0 0 0 .23-.45q-1.73-1.41-3.92-1.3-.48.02-.58.49l-.07.33q-.1.41-.42.69-1.5 1.31-1.15 3.43.07.4-.15.74-.57.94.2 1.91.28.35.24.8-.31 4.18-.21 8.33.03 1.22-.3 2.26-.33 1.1-.71 2.23-.2.6-.76.32-.71-.34-1.12.24a.38.38 0 0 1-.65-.39l.26-.54q.21-.43.04-.88-.45-1.17-.56-2.67a1.46 1.46 0 0 0-2.91.09l-.04 2.79q-.01.45.44.45h.64q.14 0 .21.13.06.14.14.26.17.27-.14.23l-.84-.12q-.21-.04-.31.16-.07.13-.14.27-.09.16-.27.17-7.59.63-15.19 1.12-1.05.07-2.77-.09-1.4-.14-2.8-.05-2.76.18-4.12.12-3.37-.15-6.73.18-.58.05-.89.31-.43.35-.52.86-.06.28-.3.44l-.39.26q-.41.26-.27-.73.13-.89-.98-1.19-1.61-.45-3.23-.62c-1.07-.11-2.28.48-3.59-.39q-.33-.22-.64.01-1.53 1.1-3.52.6a.75.75 0 0 0-.91.53q-.21.76-.95.55-.03-.01-.03-.05v-.34a.49.32-52.1 0 0-.78.27q-.29 1.67-.54 3.39-.05.36.05.7.39 1.41-1.03 2.31-.48.3-.11.73.46.52.07 1-.28.33-.39.74-.27.99.19 1.96.26.57.24 1.18-.05 1.63-1.09 2.79a.63.6-24.3 0 0-.17.42v1.37q0 .56-.35.13-.19-.22-.41-.23-.47-.01-.24.39l.36.67q.23.4.02.8-.97 1.87-.77 3.89.51 5.15-.05 9.38"/><path stroke="#93928d" vector-effect="non-scaling-stroke" d="M604.79 278.44c-60.44-23.09-127.58-23.88-188.12.66q-64.35 26.08-108.72 78.09-64.09 75.12-64.3 176.06c-.27 126.56 87.48 234.58 209.58 264.05q9.74 2.36 19.65 3.76c86.92 12.32 172.3-17.36 232.75-80.94 55.5-58.38 81.45-137.82 72.66-217.85-11.12-101.31-78.38-187.48-173.5-223.83"/><path stroke="#93928d" vector-effect="non-scaling-stroke" d="M616.82 314.67c-47.65-23.72-101.5-31.99-153.56-20.21-41.52 9.39-80.22 29.14-111.39 58.02-51.25 47.47-80.95 112.39-80.37 182.77.87 108.03 72.38 199.24 174.77 230.49q24.82 7.57 50.72 9.02 84.66 4.76 153.1-43.95 27.84-19.83 48.55-45.65 41.44-51.67 50.8-118.01 7.96-56.42-8.56-107.72c-19.98-62.1-64.66-115.2-124.06-144.76"/><path stroke="#93928d" vector-effect="non-scaling-stroke" d="M500.08 364.2c.48-6.44 8.25-5.28 8.35 1.06q.2 13.59.31 26.65a1.01 1.01 0 0 0 1.59.82q14.04-9.79 14.99-26.22c.9-15.56-5.39-31.37-13.45-44.26a1.81 1.8-35 0 0-2.65-.46q-12.43 9.76-19.43 23.52c-7.54 14.82-7.07 33.39 5.5 45.37q1.74 1.66 4.16 2.09.6.11.58-.51-.78-16.75.05-28.06M589.69 410.08q4.76 2.05 2.61 6.43c-.53 1.08-2.05 2.27-2.95 2.84q-19.54 12.48-40.37 32.14-13.79 13.02-23.44 30.76-1.12 2.07-1.34 4.1a.7.69-82.6 0 0 .58.76q6.5 1.02 14.72.07 30.15-3.49 50.61-23.49c19.11-18.68 29.85-48.45 32.53-74.97a1.53 1.52 8 0 0-1.25-1.65q-1.45-.27-3.65-.42c-32.38-2.3-67.63 4.19-89.8 29.78-10.74 12.4-19.13 32.58-16.23 49.55a.76.76 0 0 0 1.34.34q1-1.26 2.26-2.52 29.87-29.94 66.16-51.68c2.69-1.61 4.94-3.46 8.22-2.04M435.28 475.16c13.58 9.87 28.98 14.42 45.72 13.42a.82.82 0 0 0 .74-1.07q-1.47-4.55-3.83-8.95-17.4-32.51-49.15-51.31c-6.46-3.83-1.86-11.8 5.39-7.91 24.35 13.07 44.37 33.81 58.56 57.25a1.14 1.14 0 0 0 2.09-.37c3.48-17.98-3.08-37.25-14.24-50.68-18.79-22.61-47.2-28.79-75.31-27q-3.88.25-6.73 1.13-.5.15-.59.66-.29 1.53-.04 3.64c3.27 27.81 14.5 54.57 37.39 71.19M670.1 664.72c34.63-40.57 51.54-93.31 48.19-146.47a1.04 1.04 0 0 0-1.04-.98l-192.03-.14q-1.65 0-.49 1.18l144.18 146.46a.81.81 0 0 0 1.19-.05M374.19 685.94c56.1 49.66 129.82 66.74 201.83 43.24q43.87-14.32 78.71-47.02.39-.37.06-.79-1.98-2.5-5.02-5.63-77.11-79.08-154.17-157.64a2.99 2.99 0 0 0-2.14-.9l-187.77.06a1.21 1.2 1 0 0-1.21 1.16q-2.96 89.53 55.48 153.51 6.76 7.4 14.23 14.01"/><path stroke="#93928d" vector-effect="non-scaling-stroke" d="M598.497 553.004a7.75 7.46 40.8 0 0-.992-10.711 7.75 7.46 40.8 0 0-10.742.583 7.75 7.46 40.8 0 0 .992 10.711 7.75 7.46 40.8 0 0 10.742-.583M696.52 567.07a22.65 22.65 0 0 0-22.65-22.65 22.65 22.65 0 0 0-22.65 22.65 22.65 22.65 0 0 0 22.65 22.65 22.65 22.65 0 0 0 22.65-22.65M661.34 618.68a6.28 6.28 0 0 0-6.28-6.28 6.28 6.28 0 0 0-6.28 6.28 6.28 6.28 0 0 0 6.28 6.28 6.28 6.28 0 0 0 6.28-6.28M510.93 582.73a22.84 22.5 47.5 0 0 1.159-32.04 22.84 22.5 47.5 0 0-32.02-1.64 22.84 22.5 47.5 0 0-1.158 32.04 22.84 22.5 47.5 0 0 32.02 1.64M422.25 558.69a6.04 6.04 0 0 0-6.04-6.04 6.04 6.04 0 0 0-6.04 6.04 6.04 6.04 0 0 0 6.04 6.04 6.04 6.04 0 0 0 6.04-6.04M347.031 573.312a8.11 7.98 2.7 0 0-7.725-8.353 8.11 7.98 2.7 0 0-8.477 7.589 8.11 7.98 2.7 0 0 7.725 8.353 8.11 7.98 2.7 0 0 8.477-7.589M438.66 582.38a6.05 6.05 0 0 0-6.05-6.05 6.05 6.05 0 0 0-6.05 6.05 6.05 6.05 0 0 0 6.05 6.05 6.05 6.05 0 0 0 6.05-6.05M403.01 629.25a22.69 22.69 0 0 0-22.69-22.69 22.69 22.69 0 0 0-22.69 22.69 22.69 22.69 0 0 0 22.69 22.69 22.69 22.69 0 0 0 22.69-22.69M479.92 627.44a7.53 7.53 0 0 0-7.53-7.53 7.53 7.53 0 0 0-7.53 7.53 7.53 7.53 0 0 0 7.53 7.53 7.53 7.53 0 0 0 7.53-7.53M575.5 647.13a22.75 22.75 0 0 0-22.75-22.75A22.75 22.75 0 0 0 530 647.13a22.75 22.75 0 0 0 22.75 22.75 22.75 22.75 0 0 0 22.75-22.75M444.48 636.88a5.65 5.65 0 0 0-5.65-5.65 5.65 5.65 0 0 0-5.65 5.65 5.65 5.65 0 0 0 5.65 5.65 5.65 5.65 0 0 0 5.65-5.65M496.902 694.488a22.74 22.47 46.4 0 0 .59-31.964 22.74 22.47 46.4 0 0-31.954-.972 22.74 22.47 46.4 0 0-.59 31.964 22.74 22.47 46.4 0 0 31.954.972M612.43 668.91a5.97 5.97 0 0 0-5.97-5.97 5.97 5.97 0 0 0-5.97 5.97 5.97 5.97 0 0 0 5.97 5.97 5.97 5.97 0 0 0 5.97-5.97M548.913 699.437a6.54 6.27 113.3 0 0 8.346-3.527 6.54 6.27 113.3 0 0-3.172-8.487 6.54 6.27 113.3 0 0-8.346 3.527 6.54 6.27 113.3 0 0 3.172 8.487"/><path stroke="#f4f4ed" vector-effect="non-scaling-stroke" d="M64 1024q-17.94-.58-35.9-.3c-7.84.13-15.56-.33-23.39-.54q-3.98-.1-4.71-5.06"/></g><path fill="#f7f6f1" d="M0 0h1024v1024h-28.61c8.92-.41 18.41.47 27.19-.99q.52-.08.58-.6.85-7.09.69-11.66c-.58-15.78-.11-32.99-.22-47.26-.1-13.57-.2-25.93-.01-40.74.23-17.51-.33-34.63-.13-52.5.19-16.77-.67-33.58-.15-51.05.16-5.4-.29-11.18-.25-16.82.09-10.8.03-18.09.11-27.14q0-.08-.29-2.94-.15-1.49.17-3.55.71-4.5-.37-17.07-.05-.6.14-2.38.14-1.29-.26-2.58-.13-.4-.02-.81.61-2.17-.14-4.31-.06-.16 0-.33.09-.23.26-.36.3-.23.24-.61-.41-2.34-2.71-2.06a1.08 1.01 53.8 0 0-.24 1.99q.18.1.56-.3.09-.1.09.04t.01.28q.01.09-.41.15-.91.13-1.19-.62-.18-.48-.64-.23l-.65.35q-.66.36-1.36.11-.91-.32-1.96.13-.45.19-.93.09-1.34-.28-1.88-1.55-.07-.15-.18-.03l-.33.33q-.16.15-.37.11-1.96-.42-3.67.53-.41.22-.79-.06l-.5-.38q-.41-.31-.89-.13-1.22.44-2.12-.01a1.11 1.08 42.6 0 0-1.03.03q-1.5.87-2.93-.06-.44-.29-.81.08l-.47.47q-.16.16-.38.11l-3.87-.8q-.51-.11-.75.36-.25.47-.78.39-.33-.05-.64-.41-.17-.19-.33-.38-.17-.21-.41-.12l-.99.37q-.32.12-.22-.2.06-.21.04-.38-.06-.42-.41-.18-1.1.74-1.61-.37-.14-.3-.02-.61.41-1.07-.47-2.42-.52-.8-1.21-.63-.41.1-.13.42.18.22.23.45a.24.24 0 0 1-.44.16q-.06-.11-.04-.25.04-.25-.21-.26-1.16-.04-2.4-.15-.7-.06-.13-.48.36-.26.49-.64.18-.51.71-.4.63.12.95-.23.33-.37-.11-.6-1.87-.98-2.93.7-.34.54-.77.06l-1.61-1.86q-.35-.4-.87-.39l-4.46.05q-.48 0-.39.47.08.48-.38.54-.63.08-.75.02l-.41-.22q-.72-.4-.7.42v.46q0 .18-.19.2-2.28.18.64.37-.31-.1-.78.01-.66.16-.13.58 1.63 1.31.37 2.3-.46.36-.43.94.06.92-.82 1.17-.56.16-.6.74l-.1 1.3a.76.75-88 0 1-.75.71h-.6a.29.29 0 0 1-.21-.5l.28-.28q.38-.37-.14-.51-2.45-.62-2.73 1.56-.09.64-.65.95-.98.53-.27.82a.5.49 58.3 0 1-.22.95q-1.9-.16-3.4-1.23-.66-.47.11-.71 1.22-.39 1.2-1.93a.79.78-77.6 0 0-.44-.69q-1.07-.52-.36-1.42a1.25 1.25 0 0 0-1-2.03l-4.99.1q-.61.01-.76.61-.15.62.25.77.45.16.33.62l-.13.52a.17.16 32.8 0 1-.29.06q-.54-.71-.28-1.53.06-.19-.73.54-.36.33-.85.46-.07.02-.1-.05-.1-.27-.36-.33-.51-.11-.81.18-.23.21-.3-.09l-.11-.43q-.13-.52-.54-.17-.59.52-.96.13-.36-.37-.88-.39-1.22-.04-.77.96a.59.59 0 0 1-.71.81q-.93-.27-1.32.69-.17.4-.57.54-1.64.56-1.38 2.46.06.51-.45.54l-3.63.2a.75.73-66.8 0 0-.41.17q-1.25 1.1-2.92.86-.53-.08-.92-.45-.76-.73-1.91-.67-.9.04-.31.72.69.79.49 1.85-.02.12-.14.11-1.23-.14-1.53 1.09a.45.45 0 0 1-.58.32q-1.62-.56-1.48.89a.51.5 87.5 0 1-.51.56q-1.69-.03-2.69 1.24-.21.27-.51.1l-.45-.25a.18.18 0 0 0-.24.07l-2.18 3.99q-.26.47-.74.23l-.58-.28q-.33-.16-.7-.09l-1.82.36q-.38.08-.22-.27.16-.35-.35-.69a.38.38 0 0 0-.58.39q.45 2.04-1.72 2.01-.59-.01-.17.4l.17.18q.79.79-.31.6l-3.24-.55q-.48-.08-.63.38-.14.44-.01.98.09-.39 0-.7-.13-.45-.41-.07-1.2 1.58-3.46 1.3a.44.44 0 0 0-.27.83q.68.38.02.93a.31.31 0 0 1-.5-.18q-.34-1.89-2.17-2.9-.5-.28-.67.26l-.32.99a.25.24 54.1 0 1-.48-.08v-.96a.53.53 0 0 0-.69-.5q-2.44.79-3.53-1.33a.54.53-34.8 0 0-.84-.15q-.94.88-1.99.75-1.06-.13-1.18-.13-2 .01-4.04-.11a.68.66 15.6 0 0-.62.34l-.31.52q-.24.43-.51.01l-1.32-2.05a.38.38 0 0 0-.65.01l-.5.86q-.15.25-.42.13-.87-.41-.6-1.62.18-.82-.52-.35-.8.54-.39 1.28a.35.34-24.3 0 1-.19.49q-.34.13-.49-.14a.34.34 0 0 0-.5-.1q-3.02 2.27-2.59 6.16.05.45-.36.64-.51.23-.78.65-.12.17-.1.34.03.19.14.34.33.45.64-.03.65-1.03 1.33-.87a.37.37 0 0 1 .12.67q-1.44 1.01.02 1.28.51.1.72-.37.49-1.08 1.64-1.35.54-.12.51-.68-.02-.38 0-.76 0-.04.04-.04.01-.01.02-.01a.03.03 0 0 1 .03.04q-.71 1.77.72 2.44a.3.3 0 0 0 .43-.24q.08-.58-.35-.8-.83-.44-.09-1.01.6-.46.99.14.31.46-.15.78-.59.42-.23 1.14.28.57.88.38 1.04-.34 1.81.29.8.65.73-.39l-.05-.67q-.04-.44.39-.33 1.25.33.84 1.76a.27.27 0 0 1-.2.2q-1.19.26-2.29-.26-.26-.12-.43.1-1.34 1.71-3.86 1.28-.07-.01-.1.05-.06.13-.12.25-.12.23.12.3 3.11.99 3.12 4.21.01.46.46.37 2.38-.44 2.79 2.21.21 1.31.74 2.58.24.57-.37.68-2.8.5-4.12 3a.37.37 0 0 1-.7-.15q-.12-2.49-2.73-2.29-.56.04-.69.59l-.26 1.09q-.12.51-.63.63-1.91.45-1.91-1a.19.19 0 0 0-.37-.03l-.04.29q-.08.66-.24.02l-.24-.99a.38.38 0 0 0-.66-.16l-1.41 1.61q-.26.3-.59.1l-1.89-1.15a.43.43 0 0 1 .32-.78l.62.15q1.04.25.38-.59-1.47-1.86-3.52-1.51a.74.74 0 0 1-.75-1.12l.42-.69a.42.42 0 0 0-.53-.6q-2.09.99-2.83 3.06a.26.26 0 0 1-.5-.09v-.52q0-.19-.15-.29-.12-.07-.26-.05-.24.04-.28.28l-.43 2.7q-.08.47.06.91.6 1.92-.35 3.65-.27.49-.16 1.05l.79 4.04q.08.43-.12.81l-1.52 2.86q-.22.41-.03.84.92 2.09-.34 3.28a.46.46 0 0 0 .31.8q.85.01 1.08.92a.54.53 67.5 0 0 .79.33q.94-.57 1.87.06.86.59-.18.7-1.21.12-2.51-.17-.55-.12-.71-.66-.21-.73-1.17-.69-.31.02-.57-.14l-2.16-1.36q-.35-.22-.44-.62l-.34-1.55q-.13-.6.3-1.04.54-.56.59-1.62.02-.41.29-.7 1.26-1.33.44-3.42-.18-.45-.62-.64-1.03-.45-1.22-1.62-.07-.44.03-.87.31-1.36-.62-2.23-.28-.26-.01-.52l.39-.4q.25-.25 0-.49l-.24-.24q-.22-.22.09-.23.33 0 .53-.23.12-.14.12-.35.01-.82-.61-1.28-.37-.28-.38-.74-.04-2.17-1.88-3.46-.22-.15.04-.2.51-.1.9-.24.5-.17.62-.52.19-.5-.32-.32-1.87.65-3.95.1-.42-.11-.67.25-.33.45-.9.23a1.49 1.4 83.6 0 0-1.65 2.19q1.3 2.12-.56 3.51-.47.35-.81-.13l-2.49-3.49a.28.27-52.9 0 0-.48.07l-.11.3a.5.48 43.5 0 0 .02.38l.51 1.12q.3.63-.34.92-1.44.65-.78 2.22.24.59-.16 1.08-1.2 1.47.01 2.96.35.43-.18.59l-.61.2a.55.55 0 0 0-.3.8q1.36 2.31.82 4.38-.72 2.79-.83 4.33-.01.16-.17.12-.62-.17-1.24.39-.3.28-.23.68.1.6-.54.6a.77.76 84.6 0 0-.74.91l.53 2.9q.1.55-.45.65l-1.72.3q-.55.09-.6.65-.08.77-.88.55a.42.41-25.4 0 0-.28.78q1.27.56.61 1.74-.3.54.31.67 1.31.28 1.14 1.67-.03.21-.24.2l-.25-.02q-.8-.07-.36.6.75 1.17 2.05 1.27.61.04.41.14-.15.07-.15.21-.01.14-.13.19l-1.4.53q-.97.37-.06.87l.32.17a.67.66-68.1 0 1 .32.76q-.37 1.34-1.42.96-.37-.14-.74-.02-1.43.45-2.57-.38-.35-.26-.41-.69l-.31-2.25a.58.58 0 0 0-1.15.05l-.07 1.69a.04.03 0 0 1-.04.03q-.59-.02-.44-.71.09-.46-.05-.91l-.41-1.28a.68.67-28.3 0 1 .22-.73l.85-.66q.4-.31.05-.67l-.52-.51a.33.33 0 0 1 0-.46l.52-.51a.58.58 0 0 0-.45-.98q-1.28.09-1.24-.79a.66.46 72.9 0 0-.86-.67q-.37.5-.62-.03a.52.26-81.3 0 0-.47.67q.04.22.36.49.26.21.05.47-.48.57-1.25.31-.44-.15-.44-.61v-5.72q0-.82-.8-.64-1.56.35-2.59-.63-.33-.31-.62.03-.1.12-.17.23-.07.12-.21.14l-5.57.72q-.73.1-.79.83-.15 1.76 1.31 2.74a.53.52-57.3 0 1 .15.71l-1.55 2.49q-.22.37-.64.31l-1.35-.2q-.52-.08-.25-.53.36-.62.1-1.2a1.09.05-81.7 0 1 .1-.99q.09-.62.71-.63.73-.02.28-.59-.58-.74-.27-1.73.18-.55-.39-.56-.43-.01-.65.41-.31.58-.53-.03l-.59-1.59a.31.31 0 0 0-.5-.12l-1.47 1.33q-.27.24-.52-.01-.78-.78-2.1-.28-.2.07-.05.21l1.32 1.25a.16.16 0 0 0 .27-.11q0-.13-.03-.25-.04-.17.08-.05l.47.47q.17.17-.07.19l-2.46.14q-.49.03-.59.51l-.22.97a.43.43 0 0 0 .61.47q.61-.31.97.28.45.74-.39.54-1.14-.28-1.47 1.02a.96.95 3.9 0 1-.83.72l-5.87.67q-.5.05-.78.47l-.83 1.24a.36.35 62 0 1-.65-.2v-.94a.63.63 0 0 0-.69-.63l-1.56.15a.54.53-.7 0 0-.49.49l-.17 2.09q-.05.61-.55.27-.4-.28-.3-.71.16-.65-.46-.38l-1.48.65q-.68.3-.37.97l.4.87q.21.46-.28.56-1.48.3-1.68 1.9a.12.12 0 0 0 .17.13q.21-.07.16.12-.1.38-.5.38-.72-.01-1.55.41-.23.12-.49.1l-1.02-.08a.43.42-26.8 0 0-.26.78l.6.37q.57.35.07.8-1.55 1.39-.77 3.5a.32.31-49.3 0 0 .6-.05l.36-1.58q.1-.45.16.01l.37 2.61q.07.49-.38.7-1.11.5-1.75 1.34-.26.35-.66.51-1.4.58-1.56-.72a.54.53-14.3 0 0-.73-.43l-.5.19q-.44.18-.34.64l.19.85q.08.38-.17.68l-1.91 2.17q-.31.37-.3.84l.04 2.47q.02.71-.64.46-1.46-.53-2.99-.15-.36.09-.66-.14l-.36-.29a.46.46 0 0 0-.68.61q1.06 1.7-.4 3.22-.3.32-.14.72.81 1.99-.49 3.94-.4.58-.82.02-1.29-1.7-3.45-1.19a.8.8 0 0 1-.98-.66q-.48-3.33 1.27-5.93a.3.29-72.8 0 0-.24-.46h-.3q-.25 0-.31-.24l-1.08-3.89q-.25-.9-1.13-.33-.33.22-.84-.37a.29.29 0 0 0-.51.23q.02.21-.09.33-.17.17-.63.17-1.5.03-2.11 1.3-.09.19-.28.09l-1.4-.75q-.25-.13-.27-.41-.05-.57-.55-.83a.86.85 12.8 0 1-.46-.72l-.16-3.49q-.02-.64-.63-.84-1.69-.56-.72-2.51a.54.54 0 0 0-.54-.77q-1.33.14-1.04-.78a.65.65 0 0 0-.52-.85l-1.09-.16q-.85-.13-.47.64.87 1.73 2.31 2.79.12.09-.02.13l-1.07.34q-.28.09-.27.39.01.13.04.26a.23.22-67.3 0 1-.41.17q-.49-.78-.77-1.84a.27.27 0 0 0-.53.02q-.12.68.36.96a.26.26 0 0 1-.11.49q-1.28.09-1.27.38a2.15 2.15 0 0 1-3.01 2.09q-1.12-.5-2.62-.44-1.77.08-2.5-.42-1.84-1.25-1.22-4.02.4-1.78-.55-3.34-.31-.5-.38.08c-.25 1.82-.49 2.85-.11 4.92q.43 2.35-1.59 3.6-.32.2-.08.49l.67.8q.31.38.23.86l-.32 2q-.08.49-.54.29-1.1-.5-1.25.74a.53.53 0 0 1-.94.26l-1.19-1.49q-.23-.28-.59-.2l-.62.13q-.2.05-.3-.14-.64-1.24-.12-2.5a.29.29 0 0 0-.41-.37l-.49.27a.25.25 0 0 1-.37-.16l-.13-.49a.12.11 61.2 0 0-.19-.06q-.11.1-.21.21-.28.3-.05.65.75 1.12-.18 1.94-.06.05-.1-.02l-.25-.48q-.2-.38-1.1.27-.19.14-.44.12-.37-.03-.37-.4v-1.79q0-.57-.56-.68-3.57-.67-3.19 3.05.01.12.12.18.15.07.27.12.29.1.35.4l.63 3.18a.53.53 0 0 1-.73.59q-1.1-.48-1.16.47a2.31 2.22 14.9 0 1-3.28 1.82q-.44-.21-.84.7-.15.35-.12 1 .08 1.66-1.48 1.8-.45.04-.59.47-.55 1.71-2.22 1.47-.52-.08-1.02.11-1.08.4-2.19.22-1.46-.24-1.98-.03-.92.38-1.51 1.3a.3.29 39.1 0 0 .04.37l.2.2q.28.29.02.61l-1.25 1.46q-.16.19-.37.05-.89-.57-1.85.12-.36.26-.28.71.04-.17-.01-.33-.15-.45-.45-.08-.55.7-1.08-.12a.21.21 0 0 0-.37.19l.36.83a.18.18 0 0 1-.27.21l-1.19-.88q-.31-.24-.66-.05l-1.03.56q-.3.17-.33.5l-.42 4.1a.86.85-1.8 0 1-.71.75q-1.24.21-1.13 1.24.05.47-.4.33l-.9-.27q-.66-.2-.66.49v1.1q0 .44.43.32l.78-.21q.23-.07.36.14l1.1 1.83a.53.53 0 0 1-.24.75q-1.16.53-1.41 1.71-.08.39-.42.59-1.74 1.05-1.42 3.26a.12.12 0 0 1-.2.11l-.28-.28a.39.38 24.7 0 0-.66.24l-.07 1.05a.22.22 0 0 1-.44.01l-.2-1.51q-.05-.37.19-.66l.49-.59q.1-.12-.05-.17l-1.43-.48a.58.58 0 0 0-.74.41l-.65 2.49a1.9 1.87-5.7 0 1-1.01 1.22q-2.09.98-3.01.34-.4-.27-.88-.21-.61.07-1.15.35-.35.18-.74.13-2.54-.32-4.59 1.26a.04.04 0 0 1-.06-.05q.37-.94-1.01-1.16-1.81-.29-3.57-1.14a.59.59 0 0 0-.81.32q-.43 1.14-1.46.05-.11-.12-.11-.28V859q.03-.58-.43-.23l-1.22.93q-.27.21-.58.06l-1.35-.65q-.35-.17-.43-.54l-.29-1.31a.9.01-59.9 0 1 .44-.77q.13-.22.43.07.64.6.69-.27.04-.71-.61-1.07-.35-.19-.45-.59-.58-2.52-.81-5.11c-.12-1.41.7-2.53.4-4.1q-.52-2.71-.52-2.91.04-2.26.58-4.49.16-.68-.5-.88l-1.51-.46q-.39-.12-.02-.3l1.01-.51q.68-.35 0-.7l-1.05-.54q-.21-.11-.22-.35v-.29q0-.58.58-.51.33.04.6-.16.32-.22.38-.74.18-1.76-1.26-3.09-.38-.35-.77-.01-.73.62-1.27 1.39c-.97 1.4-.54 3.98-.57 5.72q0 .17-.16.1l-1.05-.48q-.35-.16-.5.2-.07.16-.03.35.17.78-.61 0-1.84-1.84-.38-3.83a.66.66 0 0 0-.53-1.05h-.57q-.37 0-.44.36l-.63 2.97q-.09.41-.41.67l-2.09 1.65q-.52.4-.27 1.01l.9 2.16q.1.23-.15.27l-.62.1a.33.32-21.7 0 0-.22.5q.25.4.68.28.49-.13.24.31l-.4.74q-.33.6-.87.18-1.16-.94-2.25 0-.09.08-.01.17.09.09.18.19.19.25-.09.38c-2.1 1.06-1.1 3.93-1.67 6.01q-.05.19-.24.19-.18 0-.33-.06-.35-.14-.47.22-.5 1.48-.55 2.95a.02.02 0 0 0 .04 0q.28-2.49-1.99-2.41-.55.02-.29-.47l.23-.41q.43-.82-.42-.45l-3.11 1.35a.39.39 0 0 1-.53-.45l.18-.74q.09-.35-.15-.63l-.93-1.09a.31.3 82.2 0 1 .36-.48q.95.47 1.31.24a1.36 1.36 0 0 0-1.18-2.43q-1.08.37-1.09 1.44 0 .4-.35.59l-.46.24q-.17.09-.12.28.32 1.13 1.34 1.38.67.17.05.45-2.71 1.25-5.6.25-.47-.16-.56.33l-.37 2.08a.74.74 0 0 1-.42.54q-.96.41-1.12 1.5-.1.65.31 1.15 1.06 1.3.23 3-.21.43-.69.45-.88.05-.89-.85-.01-.36-.36-.36-.25 0-.55-.05-.07-.01-.07-.08-.01-.13-.01-.25 0-.19-.17-.27-.27-.15-.61-.11a.37.28 31 0 1-.24-.61l1.46-.18q.56-.07.56-.64v-3.5q0-.52-.52-.45-2.38.34-4.58-.68-.49-.23-.32-.74.44-1.29 1.52-2.1a1.68 1.66-14.2 0 0 .63-1.04q.31-1.75-1.12-2.65-.55-.34-.75.27l-.26.84q-.08.25-.27.06l-.52-.52q-.32-.31-.44.12l-.09.31q-.02.08-.03 0-.01-.16.02-.39a1.27.86-35.3 0 0-2.11.05q-1.96 3.08-5.48 4.14-.55.17-1.02.5-2.21 1.57-4.73.55-.58-.24-1.08.14l-1 .74a.4.4 0 0 0 .17.71l.88.15a.77.77 0 0 1 .22 1.44q-2.67 1.37-5.19 2.92-.48.29-.7.76-.19.39-.29.83-.11.52-.64.5-2.33-.07-4.28-1.22-.54-.32-1.11-.08l-3.09 1.29q-.48.2-.8-.2-1.69-2.17-3.09-4.53-.1-.16-.22-.22-.18-.08-.36-.05-.4.08-.6-.27-.65-1.16-1.95-1-.62.08-.78.68-1.04 3.95-.22 7.91.11.49-.2.88-1.05 1.4-.89 3.06.05.54-.46.71-1.27.44-.94 1.45.18.54-.3.84-2.12 1.31-3.9-.86-.49-.6-1.15-.19-.56.36-.77-.28l-1.17-3.77q-.09-.28.19-.36.31-.09.4-.39a.46.45 21.1 0 0-.24-.53l-.72-.37q-.75-.38.05-.6l1.56-.44a.38.37-32.2 0 0 .15-.64l-.76-.66q-.29-.25-.62-.05-.98.62-2.37.49-.65-.07-.65.59v1.11q0 .62-.55.33-.9-.46-.68-1.37.11-.46.53-.7l2.52-1.38q.78-.43-.07-.7-1.34-.43-2.06-1.68-.2-.36.21-.42 1.09-.17.82.69-.19.59.31.21.35-.27.81-.75a.62.62 0 0 1 .35-.2q.65-.15.61.51a.53.53 0 0 0 .75.52l.52-.25q.42-.2-.02-.36-.3-.11-.56-.33-.33-.29.11-.29.47-.01.86.33.31.27.33-.15.05-1.3-.89-2.23-.37-.38-.9-.36l-5.52.15q-.53.02-.94-.33-1.45-1.25-4.78-.35-.33.09-.39-.25l-.53-3.36a.44.44 0 0 0-.84-.1l-1.1 2.62q-.22.51-.71.26-.92-.47-1.3.46-.24.57-.68.13-.67-.67-1.22.05a.89.87-63.1 0 1-.95.32q-3.29-.95-4.15 1.97-.55 1.9-.19 4.61.06.43-.35.58-.26.1-.33.32-.15.48-.62.65-.7.26-.68-.18a.23.23 0 0 0-.41-.17q-1.12 1.32-1.7 2.86-.18.49.1.92.38.57-.32 1.3a.49.49 0 0 0 .47.82q.64-.16 1.07.02a.13.13 0 0 1-.09.24q-.46-.15-.84.19-.45.4-.61.98l-.46 1.69a.59.58 17 0 1-.76.4q-1.02-.36-1.18.57-.09.52-.6.4-1.69-.39-2.07 1.2-.1.43-.37.07l-.41-.54a.23.23 0 0 0-.35-.02l-1.97 1.94q-.23.21-.54.22l-3.33.05q-.44 0-.2-.36.31-.5-.21-.78-.26-.14-.08-.37.12-.16.32-.17.11 0 .16.1l.5.94a.63.63 0 0 0 1.16-.5q-.25-.74-.06-1.36.46-1.49-1.08-1.64-1.74-.17-1.46.99.07.26-.19.33-1.45.4-2.87.56-.31.04-.33-.28l-.07-1.68a.56.56 0 0 0-.68-.53q-2 .43-3.55-.77-.53-.4-1.2-.38-1.94.06-2.68-1.92a.5.49 61.8 0 0-.75-.23q-2.27 1.59-5.01 1.57-.14-.01-.19.13l-.12.33q-.16.45-.43.05-1.11-1.63-2.94-1.23a.82.82 0 0 1-.67-.15q-.74-.55-1.68-.24-.4.13-.32.54l.15.73q0 .02-.01.02l-.18.18q-.08.09-.18.02-1.09-.7-2.02-1.59-.41-.39-.48.17l-.11.87a.58.57 31.2 0 1-1.04.25q-1.32-1.87-3.53-1.02-.49.19-1.02.09-4.75-.88-9.46 0c-1.24.23-2.65-.18-3.93-.24q-.55-.03-1.04.25-1.59.89-2.87-.37a.8.8 0 0 0-1.24.15q-.43.68-1.16.12-.58-.44-1.02.14l-.26.34q-.27.36-.47-.03-.31-.6.01-1.22.17-.32-.13-.52l-.43-.28a.57.57 0 0 0-.74.11q-.73.88-1.91.92-.54.01-.59.55l-.09.95q-.05.42-.43.58-1.74.74-2.05 2.61a.92.92 0 0 1-1.72.28q-.49-.91-1.37-.96-.4-.03-.4.37 0 .13-.01.26-.03.25-.2.42-.83.85-1.11.02a.22.22 0 0 0-.43.07v.49q0 .46-.15.03l-.31-.89q-.19-.56-.71-.28-1.36.74-1.37 2.19 0 .64-.62.49-.41-.09-.36-.41a.35.35 0 0 0-.63-.26l-.56.76q-.36.49-.65-.05l-.17-.31q-.34-.63-.57.05-.59 1.7-.11 3.37.11.39-.28.28-.6-.18-.62-1.16-.01-.69-.66-.45l-1 .37a.44.44 0 0 1-.59-.38q-.05-.69-.54-.79-.65-.13-.63-.8.05-1.13-.58-1.94a.43.43 0 0 0-.75.12l-.42 1.16q-.24.67-.71.14-.7-.79-.61-1.75a.41.4 79.5 0 0-.58-.4l-1.55.75a.05.04-37.8 0 0-.01.07q.1.08.19.18.14.16-.03.28-.27.19-.55.13a.47.47 0 0 0-.54.28l-.27.64q-.13.32.17.48 1.07.57 1.66-.43.37-.63.72.01l1.33 2.42q.13.23.07.49-.3 1.24-1.53 1.29-.74.04-.74-.7v-.76q0-.55-.55-.63-.96-.14-1.61-.83a.33.24 22.2 0 1-.08-.13q-.11-.36.18-.22a.28.27-7.2 0 0 .33-.42l-.49-.61q-.12-.14.05-.22.18-.09.35-.18a.18.18 0 0 0-.08-.34h-.61q-.65-.01-.17-.44.51-.45.51-1.26-.01-.45-.23-.84-.63-1.15-1.68-1.97-.05-.04-.03-.09l.1-.4q.15-.61-.47-.54-1.4.15-2.21 1.29-.44.61-.45-.14l-.03-1.13a.46.46 0 0 1 .66-.43q.84.41 1.24-.46.23-.47-.15-.85l-.35-.35q-.29-.29.25-.3.19 0 .5-.13a.52.52 0 0 0-.35-.98q-1.2.36-.88-.75a.55.55 0 0 0-.99-.45l-1.1 1.65q-.51.76-1.03 0l-1.49-2.17a.46.46 0 0 0-.68-.09q-.58.48.25.88.48.23.29.74-.43 1.08-.18 2.15.12.52-.14.99-.77 1.41.64 2.77.26.24.6.14.21-.06.41.2.6.78 1.41.48.4-.15.6.23l.26.5q.41.77-.45.59l-1.26-.27q-.5-.11-.95.13-.57.31-.45.98.06.33-.26.24-1.11-.31-1.49-1.52a1.63 1.63 0 0 0-3.19.45q-.07 2.97-2.58 4.85-.52.39-.79-.2l-.5-1.09q-.21-.45-.69-.37-2.3.38-1.82 2.84a.59.58 71 0 1-.3.63l-.51.28q-.38.2-.34.62l.19 2.36a.56.56 0 0 1-.72.59q-1-.28-.83-1.63.17-1.28.67-2.4.17-.38-.24-.49l-.51-.12q-.27-.07-.25.21.1 1.36-1.07 1.56a.59.59 0 0 0-.43.84l.52 1.04q.34.68-.33.31l-.24-.13q-.33-.18-.59.1-.84.89-2.06 1.12a.26.26 0 0 1-.13-.51q.25-.09.53-.02.47.1.47-.38v-.58q0-.5-.49-.54-.59-.06-.97.47-.28.4-.75.49-2.69.55-3.19-1.93a.55.55 0 0 0-1.09.11v.33q0 .42-.19.8l-.72 1.48q-.27.54-.83.32l-1.4-.54q-.43-.17-.9-.16-1.34.01-2.34-1.09a.73.68-13.1 0 0-.38-.22q-1.49-.35-1.76.97-.05.23-.28.23-.18 0-.39-.01a.5.5 0 0 0-.26.94q.47.24.45.67-.01.19-.18.1-1.58-.85-.75-2.39.42-.79-.47-.65l-1.74.28q-.36.06-.36.43v.61q0 .35-.28.14l-1.26-.94q-.13-.1.03-.15l.71-.25q.28-.09.26-.39-.03-.56.53-.56a.38.38 0 0 0 .14-.74l-3.15-1.23q-.54-.2-.8.31-.51 1-1.8 1.01a.26.26 0 0 0-.03.51l.55.08a.12.12 0 0 1 .1.12v.26q-.01.48-.49.43-2.44-.25-3.52-2.51-.21-.45-.67-.26-1.37.57-2.77-.2-.43-.24-.25-.7l1.11-2.7q.06-.14.03-.2-.06-.15-.21-.16-.23 0-.17-.22.51-1.99-.72-3.77-.21-.29-.51-.1l-.22.15q-.28.18-.32-.15l-.12-.74a.49.49 0 0 0-.97.04q-.07.99-.84.95-.32-.02-.36-.34-.02-.13-.09-.24-.05-.08-.15-.07l-1.52.18a.56.56 0 0 0-.48.67q.17.9-.74 1.08a.6.6 0 0 0-.48.69q.25 1.56-1.17 2.4-.33.19-.7.12-1-.2-2.06.49a.55.54 63.8 0 1-.81-.28q-.57-1.69-2.11-.77a1.15 1.15 0 0 0-.11 1.9l1.99 1.53q.23.18.02.38l-1.74 1.61q-.43.4-.84-.02l-.39-.38q-.09-.1-.04-.22.06-.17.14-.32a.3.3 0 0 0-.5-.33q-1.08 1.28-2.62.3-1.8-1.15-3.62-.26-.17.08-.31-.04l-1.5-1.22a.26.26 0 0 0-.42.21q0 .14-.01.29-.02.3-.32.29-1.46-.08-1.75 1.18a.92.92 0 0 1-1.77.07l-.15-.48q-.05-.18-.23-.24-2.88-1.01-5.36.48-.5.3-.57.88-.11 1.01.54 1.86.11.15-.07.21l-.32.1q-.36.11-.38-.27-.02-.31-.14-.57-.36-.73-.79-.05l-.19.29a.03.03 0 0 1-.06-.02l.25-2.03a.85.84-73.9 0 0-.47-.86q-1.5-.71-2.57.45a.41.41 0 0 1-.68-.11q-.68-1.47-1.94-.92-.27.12-.55.02l-.71-.25q-.26-.1-.54-.02-2.94.8-5.33-1.08-.46-.37-1.05-.3-.63.07-.8-.24-.57-.97-1.31-.3l-1.44 1.31q-.36.32-.84.3l-5.58-.29q-.63-.04-.63-.66v-.79a.51.51 0 0 0-.96-.25q-.45.82-1.17.46-.38-.18-.76-.01-1.91.84-3.88-.05-.42-.19-.82.02-3.09 1.6-5.55-.73-.1-.1.03-.17l.22-.12a.12.1 40.3 0 1 .11 0q.29.16.29.39a.22.07 72.7 0 0 .19.27q.08-2.92 2.47-4.72a.37.37 0 0 1 .54.12l.9 1.62q.31.57.85.21l1.29-.86q.41-.28.8.03l1.2.94q.86.69.89-.42.01-.61.59-.66a.31.31 0 0 0 .06-.6q-1.43-.47-1.53-1.87-.04-.66-.67-.48l-.97.28q-.47.14-.36.62.03.12 0 .26a.17.16-51.5 0 1-.31.04q-.85-1.83.21-2.94.34-.35.02-.73-.74-.87-.13-2.05.19-.35.44-.04l1.09 1.34a.45.45 0 0 0 .8-.28l.05-2.51a.69.69 0 0 0-.72-.7l-3.46.17a.78.78 0 0 0-.74.84q.02.3-.12.51-.18.28-.41.05l-.51-.51q-.14-.14.03-.24l.26-.14q.93-.5-.11-.69-.82-.15-1.52.43a.13.13 0 0 0 .03.22q.11.05.25.09.57.17-.04.15h-.33q-.11 0-.18-.08-1.63-1.76-3.78-.42-.49.31-.57-.26-.12-.8-.8-1.41-.45-.4-.45.21v.46a.01.01 0 0 0 .02 0q.03-.2-.12-.44-.13-.21-.3-.04l-.22.23a.13.13 0 0 1-.2-.15q.19-.36.03-.59a.27.27 0 0 0-.48.25q.27.76-.35 1.04a.39.39 0 0 1-.39-.67l.44-.32q.23-.17.07-.41l-.72-1.08q-.04-.06-.04-.13.01-.11.04-.24-.22.32.16.5a.21.21 0 0 0 .3-.19v-.28q0-.07.14.01l.51.28q.29.16.37-.16.19-.76-.38-1.14-.18-.11-.05-.27.54-.67 0-1.81-.21-.46-.7-.55-2.1-.39-4.25-.18a.6.6 0 0 1-.55-.95q.5-.69-.46-1.17-.53-.26-.11-.68l.5-.5q.31-.32.18-.74-.69-2.07.19-4.15.28-.68-.45-.61-2.04.2-3.94-.5-.94-.35-2.8.64-.39.21-.71-.09-1.22-1.07-1.79-2.53-.18-.44-.63-.28-.3.11-.16.42.25.55-.36.52-1.4-.09-1.69-1.62-.13-.66-.79-.56-.77.11-.57-.66a.5.5 0 0 0-.84-.48l-.27.28q-.31.31.03.58l.59.47q.44.35-.11.46l-1.67.33a.54.54 0 0 1-.63-.38l-1.16-3.92q-.16-.54-.72-.63l-5.19-.8q-.51-.08-.53-.59l-.18-6.73a.45.45 0 0 0-.72-.35q-1.13.82-1.62-.64a.65.65 0 0 0-1.06-.27q-2.43 2.29-4.98.44-.16-.12-.3.02l-.26.27q-.4.4-.67-.09-.6-1.11-1.55-.5-.45.28-.68-.19l-.34-.67a.45.45 0 0 0-.83.08q-.54 1.94-2.39 2.34a.92.91 79.7 0 0-.71 1.04l.53 3.49q.07.42-.24.12l-.31-.32q-.45-.45-.65.15-.24.7.32 1.29a1.03 1.03 0 0 1-1.19 1.64q-1.38-.65-1.3-1.76.03-.44-.26-.76-1.92-2.15-5.02-1.64-2.37.39-4.71-1.84-2.02-1.93-2.37-3.8-.06-.32-.39-.35-1.39-.13-1.72.98a.49.49 0 0 1-.84.18q-1.49-1.7-3.39-.6a.53.52 56.3 0 1-.67-.14q-1.07-1.37-2.75-1.21-.36.04-.71-.03-2.06-.42-4.2.04-.56.11-.96-.28l-4.34-4.21q-.3-.29-.71-.32-1.3-.08-1.86-1.27c-.31-.65-.08-1.31-.37-1.95q-.15-.32-.09-.68.1-.67.96-.52.69.13.47-.53l-.33-.96a.39.39 0 0 0-.75.02l-.09.34a.21.21 0 0 1-.36.1l-.23-.23q-.17-.17.01-.34l1.37-1.2a.39.38-61 0 0-.19-.67l-6.05-1a.72.68 39.7 0 0-.33.02l-3.62 1.1q-.6.19-.69.81l-.73 5.17q-.07.48-.46.76-.35.24-.25.63a1.36 1.17 10.7 0 1-2.02 1.16q-1.32-.75-2.63.2-.06.04-.12-.01l-.21-.21q-.34-.35.1-.53l1.38-.57q.36-.15.72.02.83.41 1.71.08.44-.17.44-.64v-1.29a.39.39 0 0 0-.63-.3q-1.21.94-2.69.14-.54-.29-.07-.68l1.7-1.44q.33-.28.33-.71v-1.77a1.4 1.4 0 0 0-2.55-.8l-.47.67a.4.4 0 0 0 .51.59l.29-.15a.39.39 0 0 1 .5.56l-.35.54q-.16.24-.44.26l-1.02.07a.28.28 0 0 0-.15.5q.38.29.05.59a.19.19 0 0 1-.31-.19l.12-.46q.17-.7-.54-.57-1.32.24-1.07-.93.03-.13.06-.13.15 0 .29-.01a.27.27 0 0 0 .16-.48q-2.62-2.11-5.7-1.04-.63.21-1.02-.32l-.55-.75a.9.9 0 0 0-.9-.35q-1.3.24-1.52-1.07a.87.87 0 0 0-1.71-.04q-.35 1.6-1.48 2.86-.19.22-.2.42-.03.35.2.63.2.24-.1.3l-1 .21q-.54.11-.67-.42-.45-1.85-2.02-1.65a.56.55-10.6 0 1-.61-.41l-.15-.61a.14.14 0 0 0-.26-.02q-.07.13-.14.27-.2.48-.52.07-.96-1.23-2.33-.66-.64.27-.64-.43-.01-1.23 1.04-1.75a.31.31 0 0 0-.21-.57l-1.12.28a.16.16 0 0 0-.1.23l.16.3a.08.08 0 0 1-.11.1q-.7-.51-.54-1.61.14-1-.45-2.12-.22-.41.09-.76.61-.69.3-1.21-.2-.35-.13-.75.58-3.23-.26-6.36-.18-.69-.81-.26a.14.14 0 0 0 .03.24l.37.13a.17.17 0 0 1-.02.33l-3.57.64q-.44.08-.85-.1l-.83-.38q-.44-.2-.72.2-.6.87-1.13.57-.81-.47-.76.47.16 2.55 2.93 2.29.51-.05.42.46l-.19 1.13q-.07.44-.52.47-1.08.09-1.12-.85-.02-.66-.52-.23l-1.14.99q-.33.29-.45.71-.72 2.53-.27 4.63.4 1.85-.61 3.09a.88.87 26.3 0 1-.9.3q-1.25-.31-2.25.37-.32.22-.64.02-.16-.1-.38-.05-.13.03-.14.15-.01.07.01.13.06.13.01.14-.51.12-.34-.2a.3.3 0 0 0-.38-.41l-1.87.75q-.46.18-.93.05-1.64-.45-3.14-.08a3 3 0 0 1-3.7-2.59l-.44-4.1a.79.78-79.9 0 0-.41-.6q-1.34-.73-2.78-.29-.45.13-.89-.02l-3.03-1.08a.61.61 0 0 0-.72.27q-.83 1.43-2.28 1-.47-.13-.9.08-.62.3-1.43-.14-1.27-.69-1.99.44a.55.54 25.6 0 1-.65.22q-1.75-.64-3.14-1.88-.28-.25-.66-.24-1.69.02-1.16 1.81a.5.5 0 0 1-.68.6l-4.13-1.72q-.52-.22-.75-.74l-1.14-2.56q-.33-.73-.89-.17l-.19.19a.37.36 45.6 0 0 0 .51q.9.9.13 2.02-.3.43-.83.46-2.3.14-2.46-2.28-.01-.16-.07-.25-.07-.12-.18-.19-.17-.11.03-.11h1.9q.66 0 .46-.63-.05-.18-.18-.31-.19-.2-.46-.24l-1.73-.26q-.67-.1-.5-.76.25-.93 1.11-1.27a.36.36 0 0 0-.05-.68q-1.82-.43-1.28-2.09.2-.63-.42-.86l-1.04-.38q-.58-.22-.05-.53 2.07-1.22.68-3.41-.21-.32-.08-.68.66-1.81-.23-3.41-.33-.59-.91-.22l-.32.21q-.35.23-.32-.19.03-.29.24-.37.45-.19.24-.63-.38-.79-1.16-.79-.48 0-.36-.46l.1-.42a.39.39 0 0 0-.73-.26l-.64 1.32a1.33 1.33 0 0 1-2.44-1.05q.38-1 1.45-1.41.44-.17.33-.62-.07-.3-.4-.35-.07-.01-.03-.06.09-.09.19-.18a.16.16 0 0 1 .26.12v.68q0 .57.55.42l3.76-1.08a.8.8 0 0 0 .28-1.39q-.83-.68-.29-1.85a1.22 1.22 0 0 0-1.71-1.57q-1.6.9-.9 1.85a.05.05 0 0 1-.02.08q-.21.06-.38.17-.15.09-.21-.07l-.45-1.2q-.21-.56-.73-.27-.47.27-.41.74.13.98-.41.14-.65-1.03-.24-2.31.15-.47-.2-.82l-.39-.38q-.35-.35-.03-.73.8-.95-.18-1.71a.55.55 0 0 0-.85.65q.3.71-.17 1.28-.32.37-.04.77 1 1.42.33 3.14-.19.47.11.88.75 1.05-.41 1.16a.36.35-34.1 0 0-.13.67l.28.14q.34.19.03.43-1.13.86-1.86-.44-.1-.18-.03-.38.15-.41-.09-.99-.27-.66-.89-.64-.44.01-.35-.42l.09-.43q.08-.36.4-.16l.44.29a.24.24 0 0 0 .35-.29l-.7-1.71a.61.61 0 0 0-1.13 0q-.9 2.16-3.31 1.78a.05.05 0 0 1 0-.1q.15-.03.26-.09.12-.06.1-.19-.37-1.78-2.36-1.91-.12-.01-.12-.13 0-.33.03-.62a.08.07 73 0 0-.12-.07q-.58.45-1.69.01a.23.23 0 0 1 .12-.45q2.19.33 2.31-1.59.04-.77-.72-.65-.65.1-1.14-.18a.95.95 0 0 1 .38-1.77l1.88-.21a.39.39 0 0 0-.06-.77q-1.5.05-1.62-1.47-.03-.26.12-.48.12-.19.28-.37.45-.51-.19-.75l-1.31-.5q-.37-.14-.33.25l.02.29q.03.3-.18.51-.9.91-.81 2.16.02.37-.35.34-1.48-.12-2.24-1.39a.49.49 0 0 1-.04-.42l.37-.92a.46.46 0 0 0-.77-.47q-1.27 1.4-.44 2.84a.52.51-17.8 0 1-.4.77l-3.67.36q-.53.05-.16-.34 1.23-1.32.59-3.13a.11.11 0 0 0-.18-.04q-.09.1-.19.19-.1.1-.17-.03-.11-.19-.21-.38a.26.26 0 0 0-.5.14q.07.74-.45.78-.35.02-.08-.21.11-.1.19-.21.31-.38-.03-.73-.77-.81-1.37-.41-.36.23-.36.66v.56q.01.69-.69.69h-.74a.86.85-38.4 0 0-.2 1.69q1.03.24 1.9-.03.4-.13.47.28.05.33-.37.37-2.26.22-5.46.01-.48-.03-.81-.38-.5-.53-1.1-.08-.34.26-.67-.02-.18-.15-.26-.34-.17-.36.04-.7.38-.6.78-.42a.32.32 0 0 0 .3-.56l-.29-.18q-.06-.04-.04-.11l.14-.39q.11-.31-.17-.48-3.02-1.83-2.22-5.36.07-.3-.16-.51l-.84-.74a.38.37 12.8 0 0-.61.38q.38 1.32-.9.9-.21-.07-.24-.29l-.06-.48q-.05-.38.31-.24.55.2.9-.19a.33.33 0 0 0-.31-.54q-1.25.24-2.17-.53-.1-.09-.06-.22.11-.37-.15-.65a.39.39 0 0 0-.51-.04l-.43.33q-.33.24.06.38.33.12.48.39.33.6-.34.44l-1.42-.35q-.41-.11-.34-.52l.15-.84q.08-.44.51-.54.89-.22 1.53.18.5.31.88-.14 1.15-1.37 2.5-.53.75.46.65-.42-.11-.98-.04-1.92.02-.34.68-2.29.57-1.71-.99-3.33-.73-.77-.72-1.88 0-.48-.2-.92-.75-1.6-2.16-2.41-.35-.2-.36.21 0 .13.05.28a.51.23 44.2 0 1-.75-.27q-.25-.59-.96-.24a2.02 1.6-86.8 0 1-1.96-2.78q.44-1.09-.29-1.71-.22-.18-.17-.47l.57-3.26a.62.61-80 0 0-.49-.71q-2.7-.5-4.87-.36-3.12.19-3.84-2.44-.13-.47-.6-.62-1.64-.49-3.23-.57-.57-.03-.91.21-.52.37-.56.97a.32.32 0 0 0 .44.32q.65-.27.36-.76-.13-.23.1-.11l.3.16q.37.2.14.55l-.68 1.03q-.21.32-.58.37-2.31.28-4.56-.25-.44-.11-.57-.55-.51-1.7-1.9-2.84-.4-.33-.11-.8a.34.33 16.3 0 0-.28-.51h-.57q-.17 0-.23.16l-.1.29q-.24.65-.24-.04l-.01-1.57q0-.37.34-.5 2.29-.89 4.68-.66.33.03.62-.13.43-.24.92.14 1.63 1.24 3.41.26.38-.22.81-.1 3.3.94 4.66-2.1.17-.39.09-.81-.35-1.78.04-3.56.1-.43.02-.85l-1.33-7.19q-.1-.55-.57-.83c-1.76-1.01-3.11-.34-4.82-.13q-2.89.35-5.86.74-.96.13-.09.56 1.06.52 1.97.06a.13.13 0 0 1 .13.22q-2.38 1.49-.47 3.25.28.25.55.25.55 0 .39-.9a.27.27 0 0 1 .26-.32l.39-.01q.48-.01.21.39l-.5.74q-.13.18.03.34l.21.22q.34.34-.1.52l-.68.28q-.58.24-.77-.37-.26-.85-1.24-.68a.35.35 0 0 1-.3-.6q.57-.51.39-1.15-.24-.82-.91-.29-.4.31-.79-.08a.68.67-44.7 0 0-.95 0l-2.66 2.63q-.46.46-1.11.52l-5.08.47a.82.81-87.2 0 0-.73.67q-.36 2.06-2.07 1.69-.43-.09-.28-.39.24-.51-.32-.55-2.02-.16-3.02 1.45a.05.04 70 0 1-.08-.04q.11-.39.09-.73-.02-.39-.39-.27l-1.21.38a.12.12 0 0 0-.02.22q.12.07.3.04.26-.04.12.18-2.32 3.6 1.15 6.06a.69.68 10 0 0 1.06-.74q-.17-.6.45-.36a.66.65 23.2 0 0 .83-.33l.55-1.19q.11-.23.36-.27 1.35-.23 1.81-1.67a.27.27 0 0 1 .53.08q.01.57-.52.68a.3.3 0 0 0-.15.51l.36.36q.16.16-.04.27l-.91.5q-.57.31-.13.79 1.48 1.63.21 3.79-.05.09.06.11.14.03.25.06.08.02.04.09l-.31.52q-.33.57-.88.22-.21-.14-.39-.34-.31-.33.12-.19l.32.1a.26.26 0 0 0 .23-.45q-1.73-1.41-3.92-1.3-.48.02-.58.49l-.07.33q-.1.41-.42.69-1.5 1.31-1.15 3.43.07.4-.15.74-.57.94.2 1.91.28.35.24.8-.31 4.18-.21 8.33.03 1.22-.3 2.26-.33 1.1-.71 2.23-.2.6-.76.32-.71-.34-1.12.24a.38.38 0 0 1-.65-.39l.26-.54q.21-.43.04-.88-.45-1.17-.56-2.67a1.46 1.46 0 0 0-2.91.09l-.04 2.79q-.01.45.44.45h.64q.14 0 .21.13.06.14.14.26.17.27-.14.23l-.84-.12q-.21-.04-.31.16-.07.13-.14.27-.09.16-.27.17-7.59.63-15.19 1.12-1.05.07-2.77-.09-1.4-.14-2.8-.05-2.76.18-4.12.12-3.37-.15-6.73.18-.58.05-.89.31-.43.35-.52.86-.06.28-.3.44l-.39.26q-.41.26-.27-.73.13-.89-.98-1.19-1.61-.45-3.23-.62c-1.07-.11-2.28.48-3.59-.39q-.33-.22-.64.01-1.53 1.1-3.52.6a.75.75 0 0 0-.91.53q-.21.76-.95.55-.03-.01-.03-.05v-.34a.49.32-52.1 0 0-.78.27q-.29 1.67-.54 3.39-.05.36.05.7.39 1.41-1.03 2.31-.48.3-.11.73.46.52.07 1-.28.33-.39.74-.27.99.19 1.96.26.57.24 1.18-.05 1.63-1.09 2.79a.63.6-24.3 0 0-.17.42v1.37q0 .56-.35.13-.19-.22-.41-.23-.47-.01-.24.39l.36.67q.23.4.02.8-.97 1.87-.77 3.89.51 5.15-.05 9.38V0Zm604.79 278.44c-60.44-23.09-127.58-23.88-188.12.66q-64.35 26.08-108.72 78.09-64.09 75.12-64.3 176.06c-.27 126.56 87.48 234.58 209.58 264.05q9.74 2.36 19.65 3.76c86.92 12.32 172.3-17.36 232.75-80.94 55.5-58.38 81.45-137.82 72.66-217.85-11.12-101.31-78.38-187.48-173.5-223.83Z"/><path fill="#2e2d28" d="M604.79 278.44c95.12 36.35 162.38 122.52 173.5 223.83 8.79 80.03-17.16 159.47-72.66 217.85-60.45 63.58-145.83 93.26-232.75 80.94q-9.91-1.4-19.65-3.76c-122.1-29.47-209.85-137.49-209.58-264.05q.21-100.94 64.3-176.06 44.37-52.01 108.72-78.09c60.54-24.54 127.68-23.75 188.12-.66Zm12.03 36.23c-47.65-23.72-101.5-31.99-153.56-20.21-41.52 9.39-80.22 29.14-111.39 58.02-51.25 47.47-80.95 112.39-80.37 182.77.87 108.03 72.38 199.24 174.77 230.49q24.82 7.57 50.72 9.02 84.66 4.76 153.1-43.95 27.84-19.83 48.55-45.65 41.44-51.67 50.8-118.01 7.96-56.42-8.56-107.72c-19.98-62.1-64.66-115.2-124.06-144.76Z"/><path fill="#f7f6f1" d="M616.82 314.67c59.4 29.56 104.08 82.66 124.06 144.76q16.52 51.3 8.56 107.72-9.36 66.34-50.8 118.01-20.71 25.82-48.55 45.65-68.44 48.71-153.1 43.95-25.9-1.45-50.72-9.02c-102.39-31.25-173.9-122.46-174.77-230.49-.58-70.38 29.12-135.3 80.37-182.77 31.17-28.88 69.87-48.63 111.39-58.02 52.06-11.78 105.91-3.51 153.56 20.21ZM500.08 364.2c.48-6.44 8.25-5.28 8.35 1.06q.2 13.59.31 26.65a1.01 1.01 0 0 0 1.59.82q14.04-9.79 14.99-26.22c.9-15.56-5.39-31.37-13.45-44.26a1.81 1.8-35 0 0-2.65-.46q-12.43 9.76-19.43 23.52c-7.54 14.82-7.07 33.39 5.5 45.37q1.74 1.66 4.16 2.09.6.11.58-.51-.78-16.75.05-28.06Zm89.61 45.88q4.76 2.05 2.61 6.43c-.53 1.08-2.05 2.27-2.95 2.84q-19.54 12.48-40.37 32.14-13.79 13.02-23.44 30.76-1.12 2.07-1.34 4.1a.7.69-82.6 0 0 .58.76q6.5 1.02 14.72.07 30.15-3.49 50.61-23.49c19.11-18.68 29.85-48.45 32.53-74.97a1.53 1.52 8 0 0-1.25-1.65q-1.45-.27-3.65-.42c-32.38-2.3-67.63 4.19-89.8 29.78-10.74 12.4-19.13 32.58-16.23 49.55a.76.76 0 0 0 1.34.34q1-1.26 2.26-2.52 29.87-29.94 66.16-51.68c2.69-1.61 4.94-3.46 8.22-2.04Zm-154.41 65.08c13.58 9.87 28.98 14.42 45.72 13.42a.82.82 0 0 0 .74-1.07q-1.47-4.55-3.83-8.95-17.4-32.51-49.15-51.31c-6.46-3.83-1.86-11.8 5.39-7.91 24.35 13.07 44.37 33.81 58.56 57.25a1.14 1.14 0 0 0 2.09-.37c3.48-17.98-3.08-37.25-14.24-50.68-18.79-22.61-47.2-28.79-75.31-27q-3.88.25-6.73 1.13-.5.15-.59.66-.29 1.53-.04 3.64c3.27 27.81 14.5 54.57 37.39 71.19ZM670.1 664.72c34.63-40.57 51.54-93.31 48.19-146.47a1.04 1.04 0 0 0-1.04-.98l-192.03-.14q-1.65 0-.49 1.18l144.18 146.46a.81.81 0 0 0 1.19-.05Zm-295.91 21.22c56.1 49.66 129.82 66.74 201.83 43.24q43.87-14.32 78.71-47.02.39-.37.06-.79-1.98-2.5-5.02-5.63-77.11-79.08-154.17-157.64a2.99 2.99 0 0 0-2.14-.9l-187.77.06a1.21 1.2 1 0 0-1.21 1.16q-2.96 89.53 55.48 153.51 6.76 7.4 14.23 14.01Z"/><path fill="#2e2d28" d="M508.43 365.26c-.1-6.34-7.87-7.5-8.35-1.06q-.83 11.31-.05 28.06.02.62-.58.51-2.42-.43-4.16-2.09c-12.57-11.98-13.04-30.55-5.5-45.37q7-13.76 19.43-23.52a1.81 1.8-35 0 1 2.65.46c8.06 12.89 14.35 28.7 13.45 44.26q-.95 16.43-14.99 26.22a1.01 1.01 0 0 1-1.59-.82q-.11-13.06-.31-26.65ZM589.69 410.08c-3.28-1.42-5.53.43-8.22 2.04q-36.29 21.74-66.16 51.68-1.26 1.26-2.26 2.52a.76.76 0 0 1-1.34-.34c-2.9-16.97 5.49-37.15 16.23-49.55 22.17-25.59 57.42-32.08 89.8-29.78q2.2.15 3.65.42a1.53 1.52 8 0 1 1.25 1.65c-2.68 26.52-13.42 56.29-32.53 74.97q-20.46 20-50.61 23.49-8.22.95-14.72-.07a.7.69-82.6 0 1-.58-.76q.22-2.03 1.34-4.1 9.65-17.74 23.44-30.76 20.83-19.66 40.37-32.14c.9-.57 2.42-1.76 2.95-2.84q2.15-4.38-2.61-6.43ZM435.28 475.16c-22.89-16.62-34.12-43.38-37.39-71.19q-.25-2.11.04-3.64.09-.51.59-.66 2.85-.88 6.73-1.13c28.11-1.79 56.52 4.39 75.31 27 11.16 13.43 17.72 32.7 14.24 50.68a1.14 1.14 0 0 1-2.09.37c-14.19-23.44-34.21-44.18-58.56-57.25-7.25-3.89-11.85 4.08-5.39 7.91q31.75 18.8 49.15 51.31 2.36 4.4 3.83 8.95a.82.82 0 0 1-.74 1.07c-16.74 1-32.14-3.55-45.72-13.42ZM718.29 518.25c3.35 53.16-13.56 105.9-48.19 146.47a.81.81 0 0 1-1.19.05L524.73 518.31q-1.16-1.18.49-1.18l192.03.14a1.04 1.04 0 0 1 1.04.98Zm-119.793 34.754a7.75 7.46 40.8 0 0-.992-10.711 7.75 7.46 40.8 0 0-10.742.583 7.75 7.46 40.8 0 0 .992 10.711 7.75 7.46 40.8 0 0 10.742-.583Zm98.023 14.066a22.65 22.65 0 0 0-22.65-22.65 22.65 22.65 0 0 0-22.65 22.65 22.65 22.65 0 0 0 22.65 22.65 22.65 22.65 0 0 0 22.65-22.65Zm-35.18 51.61a6.28 6.28 0 0 0-6.28-6.28 6.28 6.28 0 0 0-6.28 6.28 6.28 6.28 0 0 0 6.28 6.28 6.28 6.28 0 0 0 6.28-6.28ZM576.02 729.18c-72.01 23.5-145.73 6.42-201.83-43.24q-7.47-6.61-14.23-14.01-58.44-63.98-55.48-153.51a1.21 1.2 1 0 1 1.21-1.16l187.77-.06a2.99 2.99 0 0 1 2.14.9q77.06 78.56 154.17 157.64 3.04 3.13 5.02 5.63.33.42-.06.79-34.84 32.7-78.71 47.02Zm-65.09-146.45a22.84 22.5 47.5 0 0 1.159-32.04 22.84 22.5 47.5 0 0-32.02-1.64 22.84 22.5 47.5 0 0-1.158 32.04 22.84 22.5 47.5 0 0 32.02 1.64Zm-88.68-24.04a6.04 6.04 0 0 0-6.04-6.04 6.04 6.04 0 0 0-6.04 6.04 6.04 6.04 0 0 0 6.04 6.04 6.04 6.04 0 0 0 6.04-6.04Zm-75.219 14.622a8.11 7.98 2.7 0 0-7.725-8.353 8.11 7.98 2.7 0 0-8.477 7.589 8.11 7.98 2.7 0 0 7.725 8.353 8.11 7.98 2.7 0 0 8.477-7.589Zm91.629 9.068a6.05 6.05 0 0 0-6.05-6.05 6.05 6.05 0 0 0-6.05 6.05 6.05 6.05 0 0 0 6.05 6.05 6.05 6.05 0 0 0 6.05-6.05Zm-35.65 46.87a22.69 22.69 0 0 0-22.69-22.69 22.69 22.69 0 0 0-22.69 22.69 22.69 22.69 0 0 0 22.69 22.69 22.69 22.69 0 0 0 22.69-22.69Zm76.91-1.81a7.53 7.53 0 0 0-7.53-7.53 7.53 7.53 0 0 0-7.53 7.53 7.53 7.53 0 0 0 7.53 7.53 7.53 7.53 0 0 0 7.53-7.53Zm95.58 19.69a22.75 22.75 0 0 0-22.75-22.75A22.75 22.75 0 0 0 530 647.13a22.75 22.75 0 0 0 22.75 22.75 22.75 22.75 0 0 0 22.75-22.75Zm-131.02-10.25a5.65 5.65 0 0 0-5.65-5.65 5.65 5.65 0 0 0-5.65 5.65 5.65 5.65 0 0 0 5.65 5.65 5.65 5.65 0 0 0 5.65-5.65Zm52.422 57.608a22.74 22.47 46.4 0 0 .59-31.964 22.74 22.47 46.4 0 0-31.954-.972 22.74 22.47 46.4 0 0-.59 31.964 22.74 22.47 46.4 0 0 31.954.972ZM612.43 668.91a5.97 5.97 0 0 0-5.97-5.97 5.97 5.97 0 0 0-5.97 5.97 5.97 5.97 0 0 0 5.97 5.97 5.97 5.97 0 0 0 5.97-5.97Zm-63.517 30.527a6.54 6.27 113.3 0 0 8.346-3.527 6.54 6.27 113.3 0 0-3.172-8.487 6.54 6.27 113.3 0 0-8.346 3.527 6.54 6.27 113.3 0 0 3.172 8.487Z"/><ellipse fill="#f7f6f1" transform="rotate(40.8 -440.368 1070.737)" rx="7.75" ry="7.46"/><ellipse fill="#f7f6f1" transform="rotate(47.5 -395.291 846)" rx="22.84" ry="22.5"/><circle fill="#f7f6f1" cx="673.87" cy="567.07" r="22.65"/><circle fill="#f7f6f1" cx="416.21" cy="558.69" r="6.04"/><ellipse fill="#f7f6f1" transform="rotate(2.7 -11986.237 7477.452)" rx="8.11" ry="7.98"/><circle fill="#f7f6f1" cx="432.61" cy="582.38" r="6.05"/><circle fill="#f7f6f1" cx="380.32" cy="629.25" r="22.69"/><circle fill="#f7f6f1" cx="655.06" cy="618.68" r="6.28"/><circle fill="#f7f6f1" cx="472.39" cy="627.44" r="7.53"/><circle fill="#f7f6f1" cx="552.75" cy="647.13" r="22.75"/><circle fill="#f7f6f1" cx="438.83" cy="636.88" r="5.65"/><ellipse fill="#f7f6f1" transform="rotate(46.4 -550.36 900.395)" rx="22.74" ry="22.47"/><circle fill="#f7f6f1" cx="606.46" cy="668.91" r="5.97"/><ellipse fill="#f7f6f1" transform="rotate(113.3 47.567 528.194)" rx="6.54" ry="6.27"/><path fill="#f1f1e9" d="M995.39 1024H64q-17.94-.58-35.9-.3c-7.84.13-15.56-.33-23.39-.54q-3.98-.1-4.71-5.06V780.38q.56-4.23.05-9.38-.2-2.02.77-3.89.21-.4-.02-.8l-.36-.67q-.23-.4.24-.39.22.01.41.23.35.43.35-.13v-1.37a.63.6-24.3 0 1 .17-.42q1.04-1.16 1.09-2.79.02-.61-.24-1.18-.46-.97-.19-1.96.11-.41.39-.74.39-.48-.07-1-.37-.43.11-.73 1.42-.9 1.03-2.31-.1-.34-.05-.7.25-1.72.54-3.39a.49.32-52.1 0 1 .78-.27v.34q0 .04.03.05.74.21.95-.55a.75.75 0 0 1 .91-.53q1.99.5 3.52-.6.31-.23.64-.01c1.31.87 2.52.28 3.59.39q1.62.17 3.23.62 1.11.3.98 1.19-.14.99.27.73l.39-.26q.24-.16.3-.44.09-.51.52-.86.31-.26.89-.31 3.36-.33 6.73-.18 1.36.06 4.12-.12 1.4-.09 2.8.05 1.72.16 2.77.09 7.6-.49 15.19-1.12.18-.01.27-.17.07-.14.14-.27.1-.2.31-.16l.84.12q.31.04.14-.23-.08-.12-.14-.26-.07-.13-.21-.13h-.64q-.45 0-.44-.45l.04-2.79a1.46 1.46 0 0 1 2.91-.09q.11 1.5.56 2.67.17.45-.04.88l-.26.54a.38.38 0 0 0 .65.39q.41-.58 1.12-.24.56.28.76-.32.38-1.13.71-2.23.33-1.04.3-2.26-.1-4.15.21-8.33.04-.45-.24-.8-.77-.97-.2-1.91.22-.34.15-.74-.35-2.12 1.15-3.43.32-.28.42-.69l.07-.33q.1-.47.58-.49 2.19-.11 3.92 1.3a.26.26 0 0 1-.23.45l-.32-.1q-.43-.14-.12.19.18.2.39.34.55.35.88-.22l.31-.52q.04-.07-.04-.09-.11-.03-.25-.06-.11-.02-.06-.11 1.27-2.16-.21-3.79-.44-.48.13-.79l.91-.5q.2-.11.04-.27l-.36-.36a.3.3 0 0 1 .15-.51q.53-.11.52-.68a.27.27 0 0 0-.53-.08q-.46 1.44-1.81 1.67-.25.04-.36.27l-.55 1.19a.66.65 23.2 0 1-.83.33q-.62-.24-.45.36a.69.68 10 0 1-1.06.74q-3.47-2.46-1.15-6.06.14-.22-.12-.18-.18.03-.3-.04a.12.12 0 0 1 .02-.22l1.21-.38q.37-.12.39.27.02.34-.09.73a.05.04 70 0 0 .08.04q1-1.61 3.02-1.45.56.04.32.55-.15.3.28.39 1.71.37 2.07-1.69a.82.81-87.2 0 1 .73-.67l5.08-.47q.65-.06 1.11-.52l2.66-2.63a.68.67-44.7 0 1 .95 0q.39.39.79.08.67-.53.91.29.18.64-.39 1.15a.35.35 0 0 0 .3.6q.98-.17 1.24.68.19.61.77.37l.68-.28q.44-.18.1-.52l-.21-.22q-.16-.16-.03-.34l.5-.74q.27-.4-.21-.39l-.39.01a.27.27 0 0 0-.26.32q.16.9-.39.9-.27 0-.55-.25-1.91-1.76.47-3.25a.13.13 0 0 0-.13-.22q-.91.46-1.97-.06-.87-.43.09-.56 2.97-.39 5.86-.74c1.71-.21 3.06-.88 4.82.13q.47.28.57.83l1.33 7.19q.08.42-.02.85-.39 1.78-.04 3.56.08.42-.09.81-1.36 3.04-4.66 2.1-.43-.12-.81.1-1.78.98-3.41-.26-.49-.38-.92-.14-.29.16-.62.13-2.39-.23-4.68.66-.34.13-.34.5l.01 1.57q0 .69.24.04l.1-.29q.06-.16.23-.16h.57a.34.33 16.3 0 1 .28.51q-.29.47.11.8 1.39 1.14 1.9 2.84.13.44.57.55 2.25.53 4.56.25.37-.05.58-.37l.68-1.03q.23-.35-.14-.55l-.3-.16q-.23-.12-.1.11.29.49-.36.76a.32.32 0 0 1-.44-.32q.04-.6.56-.97.34-.24.91-.21 1.59.08 3.23.57.47.15.6.62.72 2.63 3.84 2.44 2.17-.14 4.87.36a.62.61-80 0 1 .49.71l-.57 3.26q-.05.29.17.47.73.62.29 1.71a2.02 1.6-86.8 0 0 1.96 2.78q.71-.35.96.24a.51.23 44.2 0 0 .75.27q-.05-.15-.05-.28.01-.41.36-.21 1.41.81 2.16 2.41.2.44.2.92-.01 1.11.72 1.88 1.56 1.62.99 3.33-.66 1.95-.68 2.29-.07.94.04 1.92.1.88-.65.42-1.35-.84-2.5.53-.38.45-.88.14-.64-.4-1.53-.18-.43.1-.51.54l-.15.84q-.07.41.34.52l1.42.35q.67.16.34-.44-.15-.27-.48-.39-.39-.14-.06-.38l.43-.33a.39.39 0 0 1 .51.04q.26.28.15.65-.04.13.06.22.92.77 2.17.53a.33.33 0 0 1 .31.54q-.35.39-.9.19-.36-.14-.31.24l.06.48q.03.22.24.29 1.28.42.9-.9a.38.37 12.8 0 1 .61-.38l.84.74q.23.21.16.51-.8 3.53 2.22 5.36.28.17.17.48l-.14.39q-.02.07.04.11l.29.18a.32.32 0 0 1-.3.56q-.4-.18-.78.42-.21.34-.04.7.08.19.26.34.33.28.67.02.6-.45 1.1.08.33.35.81.38 3.2.21 5.46-.01.42-.04.37-.37-.07-.41-.47-.28-.87.27-1.9.03a.86.85-38.4 0 1 .2-1.69h.74q.7 0 .69-.69v-.56q0-.43.36-.66.6-.4 1.37.41.34.35.03.73-.08.11-.19.21-.27.23.08.21.52-.04.45-.78a.26.26 0 0 1 .5-.14q.1.19.21.38.07.13.17.03.1-.09.19-.19a.11.11 0 0 1 .18.04q.64 1.81-.59 3.13-.37.39.16.34l3.67-.36a.52.51-17.8 0 0 .4-.77q-.83-1.44.44-2.84a.46.46 0 0 1 .77.47l-.37.92a.49.49 0 0 0 .04.42q.76 1.27 2.24 1.39.37.03.35-.34-.09-1.25.81-2.16.21-.21.18-.51l-.02-.29q-.04-.39.33-.25l1.31.5q.64.24.19.75-.16.18-.28.37-.15.22-.12.48.12 1.52 1.62 1.47a.39.39 0 0 1 .06.77l-1.88.21a.95.95 0 0 0-.38 1.77q.49.28 1.14.18.76-.12.72.65-.12 1.92-2.31 1.59a.23.23 0 0 0-.12.45q1.11.44 1.69-.01a.08.07 73 0 1 .12.07q-.03.29-.03.62 0 .12.12.13 1.99.13 2.36 1.91.02.13-.1.19-.11.06-.26.09a.05.05 0 0 0 0 .1q2.41.38 3.31-1.78a.61.61 0 0 1 1.13 0l.7 1.71a.24.24 0 0 1-.35.29l-.44-.29q-.32-.2-.4.16l-.09.43q-.09.43.35.42.62-.02.89.64.24.58.09.99-.07.2.03.38.73 1.3 1.86.44.31-.24-.03-.43l-.28-.14a.36.35-34.1 0 1 .13-.67q1.16-.11.41-1.16-.3-.41-.11-.88.67-1.72-.33-3.14-.28-.4.04-.77.47-.57.17-1.28a.55.55 0 0 1 .85-.65q.98.76.18 1.71-.32.38.03.73l.39.38q.35.35.2.82-.41 1.28.24 2.31.54.84.41-.14-.06-.47.41-.74.52-.29.73.27l.45 1.2q.06.16.21.07.17-.11.38-.17a.05.05 0 0 0 .02-.08q-.7-.95.9-1.85a1.22 1.22 0 0 1 1.71 1.57q-.54 1.17.29 1.85a.8.8 0 0 1-.28 1.39l-3.76 1.08q-.55.15-.55-.42v-.68a.16.16 0 0 0-.26-.12q-.1.09-.19.18-.04.05.03.06.33.05.4.35.11.45-.33.62-1.07.41-1.45 1.41a1.33 1.33 0 0 0 2.44 1.05l.64-1.32a.39.39 0 0 1 .73.26l-.1.42q-.12.46.36.46.78 0 1.16.79.21.44-.24.63-.21.08-.24.37-.03.42.32.19l.32-.21q.58-.37.91.22.89 1.6.23 3.41-.13.36.08.68 1.39 2.19-.68 3.41-.53.31.05.53l1.04.38q.62.23.42.86-.54 1.66 1.28 2.09a.36.36 0 0 1 .05.68q-.86.34-1.11 1.27-.17.66.5.76l1.73.26q.27.04.46.24.13.13.18.31.2.63-.46.63h-1.9q-.2 0-.03.11.11.07.18.19.06.09.07.25.16 2.42 2.46 2.28.53-.03.83-.46.77-1.12-.13-2.02a.37.36 45.6 0 1 0-.51l.19-.19q.56-.56.89.17l1.14 2.56q.23.52.75.74l4.13 1.72a.5.5 0 0 0 .68-.6q-.53-1.79 1.16-1.81.38-.01.66.24 1.39 1.24 3.14 1.88a.55.54 25.6 0 0 .65-.22q.72-1.13 1.99-.44.81.44 1.43.14.43-.21.9-.08 1.45.43 2.28-1a.61.61 0 0 1 .72-.27l3.03 1.08q.44.15.89.02 1.44-.44 2.78.29a.79.78-79.9 0 1 .41.6l.44 4.1a3 3 0 0 0 3.7 2.59q1.5-.37 3.14.08.47.13.93-.05l1.87-.75a.3.3 0 0 1 .38.41q-.17.32.34.2.05-.01-.01-.14-.02-.06-.01-.13.01-.12.14-.15.22-.05.38.05.32.2.64-.02 1-.68 2.25-.37a.88.87 26.3 0 0 .9-.3q1.01-1.24.61-3.09-.45-2.1.27-4.63.12-.42.45-.71l1.14-.99q.5-.43.52.23.04.94 1.12.85.45-.03.52-.47l.19-1.13q.09-.51-.42-.46-2.77.26-2.93-2.29-.05-.94.76-.47.53.3 1.13-.57.28-.4.72-.2l.83.38q.41.18.85.1l3.57-.64a.17.17 0 0 0 .02-.33l-.37-.13a.14.14 0 0 1-.03-.24q.63-.43.81.26.84 3.13.26 6.36-.07.4.13.75.31.52-.3 1.21-.31.35-.09.76.59 1.12.45 2.12-.16 1.1.54 1.61a.08.08 0 0 0 .11-.1l-.16-.3a.16.16 0 0 1 .1-.23l1.12-.28a.31.31 0 0 1 .21.57q-1.05.52-1.04 1.75 0 .7.64.43 1.37-.57 2.33.66.32.41.52-.07.07-.14.14-.27a.14.14 0 0 1 .26.02l.15.61a.56.55-10.6 0 0 .61.41q1.57-.2 2.02 1.65.13.53.67.42l1-.21q.3-.06.1-.3-.23-.28-.2-.63.01-.2.2-.42 1.13-1.26 1.48-2.86a.87.87 0 0 1 1.71.04q.22 1.31 1.52 1.07a.9.9 0 0 1 .9.35l.55.75q.39.53 1.02.32 3.08-1.07 5.7 1.04a.27.27 0 0 1-.16.48q-.14.01-.29.01-.03 0-.06.13-.25 1.17 1.07.93.71-.13.54.57l-.12.46a.19.19 0 0 0 .31.19q.33-.3-.05-.59a.28.28 0 0 1 .15-.5l1.02-.07q.28-.02.44-.26l.35-.54a.39.39 0 0 0-.5-.56l-.29.15a.4.4 0 0 1-.51-.59l.47-.67a1.4 1.4 0 0 1 2.55.8v1.77q0 .43-.33.71l-1.7 1.44q-.47.39.07.68 1.48.8 2.69-.14a.39.39 0 0 1 .63.3v1.29q0 .47-.44.64-.88.33-1.71-.08-.36-.17-.72-.02l-1.38.57q-.44.18-.1.53l.21.21q.06.05.12.01 1.31-.95 2.63-.2a1.36 1.17 10.7 0 0 2.02-1.16q-.1-.39.25-.63.39-.28.46-.76l.73-5.17q.09-.62.69-.81l3.62-1.1a.72.68 39.7 0 1 .33-.02l6.05 1a.39.38-61 0 1 .19.67l-1.37 1.2q-.18.17-.01.34l.23.23a.21.21 0 0 0 .36-.1l.09-.34a.39.39 0 0 1 .75-.02l.33.96q.22.66-.47.53-.86-.15-.96.52-.06.36.09.68c.29.64.06 1.3.37 1.95q.56 1.19 1.86 1.27.41.03.71.32l4.34 4.21q.4.39.96.28 2.14-.46 4.2-.04.35.07.71.03 1.68-.16 2.75 1.21a.53.52 56.3 0 0 .67.14q1.9-1.1 3.39.6a.49.49 0 0 0 .84-.18q.33-1.11 1.72-.98.33.03.39.35.35 1.87 2.37 3.8 2.34 2.23 4.71 1.84 3.1-.51 5.02 1.64.29.32.26.76-.08 1.11 1.3 1.76a1.03 1.03 0 0 0 1.19-1.64q-.56-.59-.32-1.29.2-.6.65-.15l.31.32q.31.3.24-.12l-.53-3.49a.92.91 79.7 0 1 .71-1.04q1.85-.4 2.39-2.34a.45.45 0 0 1 .83-.08l.34.67q.23.47.68.19.95-.61 1.55.5.27.49.67.09l.26-.27q.14-.14.3-.02 2.55 1.85 4.98-.44a.65.65 0 0 1 1.06.27q.49 1.46 1.62.64a.45.45 0 0 1 .72.35l.18 6.73q.02.51.53.59l5.19.8q.56.09.72.63l1.16 3.92a.54.54 0 0 0 .63.38l1.67-.33q.55-.11.11-.46l-.59-.47q-.34-.27-.03-.58l.27-.28a.5.5 0 0 1 .84.48q-.2.77.57.66.66-.1.79.56.29 1.53 1.69 1.62.61.03.36-.52-.14-.31.16-.42.45-.16.63.28.57 1.46 1.79 2.53.32.3.71.09 1.86-.99 2.8-.64 1.9.7 3.94.5.73-.07.45.61-.88 2.08-.19 4.15.13.42-.18.74l-.5.5q-.42.42.11.68.96.48.46 1.17a.6.6 0 0 0 .55.95q2.15-.21 4.25.18.49.09.7.55.54 1.14 0 1.81-.13.16.05.27.57.38.38 1.14-.08.32-.37.16l-.51-.28q-.14-.08-.14-.01v.28a.21.21 0 0 1-.3.19q-.38-.18-.16-.5-.03.13-.04.24 0 .07.04.13l.72 1.08q.16.24-.07.41l-.44.32a.39.39 0 0 0 .39.67q.62-.28.35-1.04a.27.27 0 0 1 .48-.25q.16.23-.03.59a.13.13 0 0 0 .2.15l.22-.23q.17-.17.3.04.15.24.12.44a.01.01 0 0 1-.02 0v-.46q0-.61.45-.21.68.61.8 1.41.08.57.57.26 2.15-1.34 3.78.42.07.08.18.08h.33q.61.02.04-.15-.14-.04-.25-.09a.13.13 0 0 1-.03-.22q.7-.58 1.52-.43 1.04.19.11.69l-.26.14q-.17.1-.03.24l.51.51q.23.23.41-.05.14-.21.12-.51a.78.78 0 0 1 .74-.84l3.46-.17a.69.69 0 0 1 .72.7l-.05 2.51a.45.45 0 0 1-.8.28l-1.09-1.34q-.25-.31-.44.04-.61 1.18.13 2.05.32.38-.02.73-1.06 1.11-.21 2.94a.17.16-51.5 0 0 .31-.04q.03-.14 0-.26-.11-.48.36-.62l.97-.28q.63-.18.67.48.1 1.4 1.53 1.87a.31.31 0 0 1-.06.6q-.58.05-.59.66-.03 1.11-.89.42l-1.2-.94q-.39-.31-.8-.03l-1.29.86q-.54.36-.85-.21l-.9-1.62a.37.37 0 0 0-.54-.12q-2.39 1.8-2.47 4.72a.22.07 72.7 0 1-.19-.27q0-.23-.29-.39a.12.1 40.3 0 0-.11 0l-.22.12q-.13.07-.03.17 2.46 2.33 5.55.73.4-.21.82-.02 1.97.89 3.88.05.38-.17.76.01.72.36 1.17-.46a.51.51 0 0 1 .96.25v.79q0 .62.63.66l5.58.29q.48.02.84-.3l1.44-1.31q.74-.67 1.31.3.17.31.8.24.59-.07 1.05.3 2.39 1.88 5.33 1.08.28-.08.54.02l.71.25q.28.1.55-.02 1.26-.55 1.94.92a.41.41 0 0 0 .68.11q1.07-1.16 2.57-.45a.85.84-73.9 0 1 .47.86l-.25 2.03a.03.03 0 0 0 .06.02l.19-.29q.43-.68.79.05.12.26.14.57.02.38.38.27l.32-.1q.18-.06.07-.21-.65-.85-.54-1.86.07-.58.57-.88 2.48-1.49 5.36-.48.18.06.23.24l.15.48a.92.92 0 0 0 1.77-.07q.29-1.26 1.75-1.18.3.01.32-.29.01-.15.01-.29a.26.26 0 0 1 .42-.21l1.5 1.22q.14.12.31.04 1.82-.89 3.62.26 1.54.98 2.62-.3a.3.3 0 0 1 .5.33q-.08.15-.14.32-.05.12.04.22l.39.38q.41.42.84.02l1.74-1.61q.21-.2-.02-.38l-1.99-1.53a1.15 1.15 0 0 1 .11-1.9q1.54-.92 2.11.77a.55.54 63.8 0 0 .81.28q1.06-.69 2.06-.49.37.07.7-.12 1.42-.84 1.17-2.4a.6.6 0 0 1 .48-.69q.91-.18.74-1.08a.56.56 0 0 1 .48-.67l1.52-.18q.1-.01.15.07.07.11.09.24.04.32.36.34.77.04.84-.95a.49.49 0 0 1 .97-.04l.12.74q.04.33.32.15l.22-.15q.3-.19.51.1 1.23 1.78.72 3.77-.06.22.17.22.15.01.21.16.03.06-.03.2l-1.11 2.7q-.18.46.25.7 1.4.77 2.77.2.46-.19.67.26 1.08 2.26 3.52 2.51.48.05.49-.43v-.26a.12.12 0 0 0-.1-.12l-.55-.08a.26.26 0 0 1 .03-.51q1.29-.01 1.8-1.01.26-.51.8-.31l3.15 1.23a.38.38 0 0 1-.14.74q-.56 0-.53.56.02.3-.26.39l-.71.25q-.16.05-.03.15l1.26.94q.28.21.28-.14v-.61q0-.37.36-.43l1.74-.28q.89-.14.47.65-.83 1.54.75 2.39.17.09.18-.1.02-.43-.45-.67a.5.5 0 0 1 .26-.94q.21.01.39.01.23 0 .28-.23.27-1.32 1.76-.97a.73.68-13.1 0 1 .38.22q1 1.1 2.34 1.09.47-.01.9.16l1.4.54q.56.22.83-.32l.72-1.48q.19-.38.19-.8v-.33a.55.55 0 0 1 1.09-.11q.5 2.48 3.19 1.93.47-.09.75-.49.38-.53.97-.47.49.04.49.54v.58q0 .48-.47.38-.28-.07-.53.02a.26.26 0 0 0 .13.51q1.22-.23 2.06-1.12.26-.28.59-.1l.24.13q.67.37.33-.31l-.52-1.04a.59.59 0 0 1 .43-.84q1.17-.2 1.07-1.56-.02-.28.25-.21l.51.12q.41.11.24.49-.5 1.12-.67 2.4-.17 1.35.83 1.63a.56.56 0 0 0 .72-.59l-.19-2.36q-.04-.42.34-.62l.51-.28a.59.58 71 0 0 .3-.63q-.48-2.46 1.82-2.84.48-.08.69.37l.5 1.09q.27.59.79.2 2.51-1.88 2.58-4.85a1.63 1.63 0 0 1 3.19-.45q.38 1.21 1.49 1.52.32.09.26-.24-.12-.67.45-.98.45-.24.95-.13l1.26.27q.86.18.45-.59l-.26-.5q-.2-.38-.6-.23-.81.3-1.41-.48-.2-.26-.41-.2-.34.1-.6-.14-1.41-1.36-.64-2.77.26-.47.14-.99-.25-1.07.18-2.15.19-.51-.29-.74-.83-.4-.25-.88a.46.46 0 0 1 .68.09l1.49 2.17q.52.76 1.03 0l1.1-1.65a.55.55 0 0 1 .99.45q-.32 1.11.88.75a.52.52 0 0 1 .35.98q-.31.13-.5.13-.54.01-.25.3l.35.35q.38.38.15.85-.4.87-1.24.46a.46.46 0 0 0-.66.43l.03 1.13q.01.75.45.14.81-1.14 2.21-1.29.62-.07.47.54l-.1.4q-.02.05.03.09 1.05.82 1.68 1.97.22.39.23.84 0 .81-.51 1.26-.48.43.17.44h.61a.18.18 0 0 1 .08.34q-.17.09-.35.18-.17.08-.05.22l.49.61a.28.27-7.2 0 1-.33.42q-.29-.14-.18.22a.33.24 22.2 0 0 .08.13q.65.69 1.61.83.55.08.55.63v.76q0 .74.74.7 1.23-.05 1.53-1.29.06-.26-.07-.49l-1.33-2.42q-.35-.64-.72-.01-.59 1-1.66.43-.3-.16-.17-.48l.27-.64a.47.47 0 0 1 .54-.28q.28.06.55-.13.17-.12.03-.28-.09-.1-.19-.18a.05.04-37.8 0 1 .01-.07l1.55-.75a.41.4 79.5 0 1 .58.4q-.09.96.61 1.75.47.53.71-.14l.42-1.16a.43.43 0 0 1 .75-.12q.63.81.58 1.94-.02.67.63.8.49.1.54.79a.44.44 0 0 0 .59.38l1-.37q.65-.24.66.45.02.98.62 1.16.39.11.28-.28-.48-1.67.11-3.37.23-.68.57-.05l.17.31q.29.54.65.05l.56-.76a.35.35 0 0 1 .63.26q-.05.32.36.41.62.15.62-.49.01-1.45 1.37-2.19.52-.28.71.28l.31.89q.15.43.15-.03V870a.22.22 0 0 1 .43-.07q.28.83 1.11-.02.17-.17.2-.42.01-.13.01-.26 0-.4.4-.37.88.05 1.37.96a.92.92 0 0 0 1.72-.28q.31-1.87 2.05-2.61.38-.16.43-.58l.09-.95q.05-.54.59-.55 1.18-.04 1.91-.92a.57.57 0 0 1 .74-.11l.43.28q.3.2.13.52-.32.62-.01 1.22.2.39.47.03l.26-.34q.44-.58 1.02-.14.73.56 1.16-.12a.8.8 0 0 1 1.24-.15q1.28 1.26 2.87.37.49-.28 1.04-.25c1.28.06 2.69.47 3.93.24q4.71-.88 9.46 0 .53.1 1.02-.09 2.21-.85 3.53 1.02a.58.57 31.2 0 0 1.04-.25l.11-.87q.07-.56.48-.17.93.89 2.02 1.59.1.07.18-.02l.18-.18q.01 0 .01-.02l-.15-.73q-.08-.41.32-.54.94-.31 1.68.24a.82.82 0 0 0 .67.15q1.83-.4 2.94 1.23.27.4.43-.05l.12-.33q.05-.14.19-.13 2.74.02 5.01-1.57a.5.49 61.8 0 1 .75.23q.74 1.98 2.68 1.92.67-.02 1.2.38 1.55 1.2 3.55.77a.56.56 0 0 1 .68.53l.07 1.68q.02.32.33.28 1.42-.16 2.87-.56.26-.07.19-.33-.28-1.16 1.46-.99 1.54.15 1.08 1.64-.19.62.06 1.36a.63.63 0 0 1-1.16.5l-.5-.94q-.05-.1-.16-.1-.2.01-.32.17-.18.23.08.37.52.28.21.78-.24.36.2.36l3.33-.05q.31-.01.54-.22l1.97-1.94a.23.23 0 0 1 .35.02l.41.54q.27.36.37-.07.38-1.59 2.07-1.2.51.12.6-.4.16-.93 1.18-.57a.59.58 17 0 0 .76-.4l.46-1.69q.16-.58.61-.98.38-.34.84-.19a.13.13 0 0 0 .09-.24q-.43-.18-1.07-.02a.49.49 0 0 1-.47-.82q.7-.73.32-1.3-.28-.43-.1-.92.58-1.54 1.7-2.86a.23.23 0 0 1 .41.17q-.02.44.68.18.47-.17.62-.65.07-.22.33-.32.41-.15.35-.58-.36-2.71.19-4.61.86-2.92 4.15-1.97a.89.87-63.1 0 0 .95-.32q.55-.72 1.22-.05.44.44.68-.13.38-.93 1.3-.46.49.25.71-.26l1.1-2.62a.44.44 0 0 1 .84.1l.53 3.36q.06.34.39.25 3.33-.9 4.78.35.41.35.94.33l5.52-.15q.53-.02.9.36.94.93.89 2.23-.02.42-.33.15-.39-.34-.86-.33-.44 0-.11.29.26.22.56.33.44.16.02.36l-.52.25a.53.53 0 0 1-.75-.52q.04-.66-.61-.51a.62.62 0 0 0-.35.2q-.46.48-.81.75-.5.38-.31-.21.27-.86-.82-.69-.41.06-.21.42.72 1.25 2.06 1.68.85.27.07.7l-2.52 1.38q-.42.24-.53.7-.22.91.68 1.37.55.29.55-.33v-1.11q0-.66.65-.59 1.39.13 2.37-.49.33-.2.62.05l.76.66a.38.37-32.2 0 1-.15.64l-1.56.44q-.8.22-.05.6l.72.37a.46.45 21.1 0 1 .24.53q-.09.3-.4.39-.28.08-.19.36l1.17 3.77q.21.64.77.28.66-.41 1.15.19 1.78 2.17 3.9.86.48-.3.3-.84-.33-1.01.94-1.45.51-.17.46-.71-.16-1.66.89-3.06.31-.39.2-.88-.82-3.96.22-7.91.16-.6.78-.68 1.3-.16 1.95 1 .2.35.6.27.18-.03.36.05.12.06.22.22 1.4 2.36 3.09 4.53.32.4.8.2l3.09-1.29q.57-.24 1.11.08 1.95 1.15 4.28 1.22.53.02.64-.5.1-.44.29-.83.22-.47.7-.76 2.52-1.55 5.19-2.92a.77.77 0 0 0-.22-1.44l-.88-.15a.4.4 0 0 1-.17-.71l1-.74q.5-.38 1.08-.14 2.52 1.02 4.73-.55.47-.33 1.02-.5 3.52-1.06 5.48-4.14a1.27.86-35.3 0 1 2.11-.05q-.03.23-.02.39.01.08.03 0l.09-.31q.12-.43.44-.12l.52.52q.19.19.27-.06l.26-.84q.2-.61.75-.27 1.43.9 1.12 2.65a1.68 1.66-14.2 0 1-.63 1.04q-1.08.81-1.52 2.1-.17.51.32.74 2.2 1.02 4.58.68.52-.07.52.45v3.5q0 .57-.56.64l-1.46.18a.37.28 31 0 0 .24.61q.34-.04.61.11.17.08.17.27 0 .12.01.25 0 .07.07.08.3.05.55.05.35 0 .36.36.01.9.89.85.48-.02.69-.45.83-1.7-.23-3-.41-.5-.31-1.15.16-1.09 1.12-1.5a.74.74 0 0 0 .42-.54l.37-2.08q.09-.49.56-.33 2.89 1 5.6-.25.62-.28-.05-.45-1.02-.25-1.34-1.38-.05-.19.12-.28l.46-.24q.35-.19.35-.59.01-1.07 1.09-1.44a1.36 1.36 0 0 1 1.18 2.43q-.36.23-1.31-.24a.31.3 82.2 0 0-.36.48l.93 1.09q.24.28.15.63l-.18.74a.39.39 0 0 0 .53.45l3.11-1.35q.85-.37.42.45l-.23.41q-.26.49.29.47 2.27-.08 1.99 2.41a.02.02 0 0 1-.04 0q.05-1.47.55-2.95.12-.36.47-.22.15.06.33.06.19 0 .24-.19c.57-2.08-.43-4.95 1.67-6.01q.28-.13.09-.38-.09-.1-.18-.19-.08-.09.01-.17 1.09-.94 2.25 0 .54.42.87-.18l.4-.74q.25-.44-.24-.31-.43.12-.68-.28a.33.32-21.7 0 1 .22-.5l.62-.1q.25-.04.15-.27l-.9-2.16q-.25-.61.27-1.01l2.09-1.65q.32-.26.41-.67l.63-2.97q.07-.36.44-.36h.57a.66.66 0 0 1 .53 1.05q-1.46 1.99.38 3.83.78.78.61 0-.04-.19.03-.35.15-.36.5-.2l1.05.48q.16.07.16-.1c.03-1.74-.4-4.32.57-5.72q.54-.77 1.27-1.39.39-.34.77.01 1.44 1.33 1.26 3.09-.06.52-.38.74-.27.2-.6.16-.58-.07-.58.51v.29q.01.24.22.35l1.05.54q.68.35 0 .7l-1.01.51q-.37.18.02.3l1.51.46q.66.2.5.88-.54 2.23-.58 4.49 0 .2.52 2.91c.3 1.57-.52 2.69-.4 4.1q.23 2.59.81 5.11.1.4.45.59.65.36.61 1.07-.05.87-.69.27-.3-.29-.43-.07a.9.01-59.9 0 0-.44.77l.29 1.31q.08.37.43.54l1.35.65q.31.15.58-.06l1.22-.93q.46-.35.43.23v.29q0 .16.11.28 1.03 1.09 1.46-.05a.59.59 0 0 1 .81-.32q1.76.85 3.57 1.14 1.38.22 1.01 1.16a.04.04 0 0 0 .06.05q2.05-1.58 4.59-1.26.39.05.74-.13.54-.28 1.15-.35.48-.06.88.21.92.64 3.01-.34a1.9 1.87-5.7 0 0 1.01-1.22l.65-2.49a.58.58 0 0 1 .74-.41l1.43.48q.15.05.05.17l-.49.59q-.24.29-.19.66l.2 1.51a.22.22 0 0 0 .44-.01l.07-1.05a.39.38 24.7 0 1 .66-.24l.28.28a.12.12 0 0 0 .2-.11q-.32-2.21 1.42-3.26.34-.2.42-.59.25-1.18 1.41-1.71a.53.53 0 0 0 .24-.75l-1.1-1.83q-.13-.21-.36-.14l-.78.21q-.43.12-.43-.32v-1.1q0-.69.66-.49l.9.27q.45.14.4-.33-.11-1.03 1.13-1.24a.86.85-1.8 0 0 .71-.75l.42-4.1q.03-.33.33-.5l1.03-.56q.35-.19.66.05l1.19.88a.18.18 0 0 0 .27-.21l-.36-.83a.21.21 0 0 1 .37-.19q.53.82 1.08.12.3-.37.45.08.05.16.01.33-.08-.45.28-.71.96-.69 1.85-.12.21.14.37-.05l1.25-1.46q.26-.32-.02-.61l-.2-.2a.3.29 39.1 0 1-.04-.37q.59-.92 1.51-1.3.52-.21 1.98.03 1.11.18 2.19-.22.5-.19 1.02-.11 1.67.24 2.22-1.47.14-.43.59-.47 1.56-.14 1.48-1.8-.03-.65.12-1 .4-.91.84-.7a2.31 2.22 14.9 0 0 3.28-1.82q.06-.95 1.16-.47a.53.53 0 0 0 .73-.59l-.63-3.18q-.06-.3-.35-.4-.12-.05-.27-.12-.11-.06-.12-.18-.38-3.72 3.19-3.05.56.11.56.68v1.79q0 .37.37.4.25.02.44-.12.9-.65 1.1-.27l.25.48q.04.07.1.02.93-.82.18-1.94-.23-.35.05-.65.1-.11.21-.21a.12.11 61.2 0 1 .19.06l.13.49a.25.25 0 0 0 .37.16l.49-.27a.29.29 0 0 1 .41.37q-.52 1.26.12 2.5.1.19.3.14l.62-.13q.36-.08.59.2l1.19 1.49a.53.53 0 0 0 .94-.26q.15-1.24 1.25-.74.46.2.54-.29l.32-2q.08-.48-.23-.86l-.67-.8q-.24-.29.08-.49 2.02-1.25 1.59-3.6c-.38-2.07-.14-3.1.11-4.92q.07-.58.38-.08.95 1.56.55 3.34-.62 2.77 1.22 4.02.73.5 2.5.42 1.5-.06 2.62.44a2.15 2.15 0 0 0 3.01-2.09q-.01-.29 1.27-.38a.26.26 0 0 0 .11-.49q-.48-.28-.36-.96a.27.27 0 0 1 .53-.02q.28 1.06.77 1.84a.23.22-67.3 0 0 .41-.17q-.03-.13-.04-.26-.01-.3.27-.39l1.07-.34q.14-.04.02-.13-1.44-1.06-2.31-2.79-.38-.77.47-.64l1.09.16a.65.65 0 0 1 .52.85q-.29.92 1.04.78a.54.54 0 0 1 .54.77q-.97 1.95.72 2.51.61.2.63.84l.16 3.49a.86.85 12.8 0 0 .46.72q.5.26.55.83.02.28.27.41l1.4.75q.19.1.28-.09.61-1.27 2.11-1.3.46 0 .63-.17.11-.12.09-.33a.29.29 0 0 1 .51-.23q.51.59.84.37.88-.57 1.13.33l1.08 3.89q.06.24.31.24h.3a.3.29-72.8 0 1 .24.46q-1.75 2.6-1.27 5.93a.8.8 0 0 0 .98.66q2.16-.51 3.45 1.19.42.56.82-.02 1.3-1.95.49-3.94-.16-.4.14-.72 1.46-1.52.4-3.22a.46.46 0 0 1 .68-.61l.36.29q.3.23.66.14 1.53-.38 2.99.15.66.25.64-.46l-.04-2.47q-.01-.47.3-.84l1.91-2.17q.25-.3.17-.68l-.19-.85q-.1-.46.34-.64l.5-.19a.54.53-14.3 0 1 .73.43q.16 1.3 1.56.72.4-.16.66-.51.64-.84 1.75-1.34.45-.21.38-.7l-.37-2.61q-.06-.46-.16-.01l-.36 1.58a.32.31-49.3 0 1-.6.05q-.78-2.11.77-3.5.5-.45-.07-.8l-.6-.37a.43.42-26.8 0 1 .26-.78l1.02.08q.26.02.49-.1.83-.42 1.55-.41.4 0 .5-.38.05-.19-.16-.12a.12.12 0 0 1-.17-.13q.2-1.6 1.68-1.9.49-.1.28-.56l-.4-.87q-.31-.67.37-.97l1.48-.65q.62-.27.46.38-.1.43.3.71.5.34.55-.27l.17-2.09a.54.53-.7 0 1 .49-.49l1.56-.15a.63.63 0 0 1 .69.63v.94a.36.35 62 0 0 .65.2l.83-1.24q.28-.42.78-.47l5.87-.67a.96.95 3.9 0 0 .83-.72q.33-1.3 1.47-1.02.84.2.39-.54-.36-.59-.97-.28a.43.43 0 0 1-.61-.47l.22-.97q.1-.48.59-.51l2.46-.14q.24-.02.07-.19l-.47-.47q-.12-.12-.08.05.03.12.03.25a.16.16 0 0 1-.27.11l-1.32-1.25q-.15-.14.05-.21 1.32-.5 2.1.28.25.25.52.01l1.47-1.33a.31.31 0 0 1 .5.12l.59 1.59q.22.61.53.03.22-.42.65-.41.57.01.39.56-.31.99.27 1.73.45.57-.28.59-.62.01-.71.63a1.09.05-81.7 0 0-.1.99q.26.58-.1 1.2-.27.45.25.53l1.35.2q.42.06.64-.31l1.55-2.49a.53.52-57.3 0 0-.15-.71q-1.46-.98-1.31-2.74.06-.73.79-.83l5.57-.72q.14-.02.21-.14.07-.11.17-.23.29-.34.62-.03 1.03.98 2.59.63.8-.18.8.64v5.72q0 .46.44.61.77.26 1.25-.31.21-.26-.05-.47-.32-.27-.36-.49a.52.26-81.3 0 1 .47-.67q.25.53.62.03a.66.46 72.9 0 1 .86.67q-.04.88 1.24.79a.58.58 0 0 1 .45.98l-.52.51a.33.33 0 0 0 0 .46l.52.51q.35.36-.05.67l-.85.66a.68.67-28.3 0 0-.22.73l.41 1.28q.14.45.05.91-.15.69.44.71a.04.03 0 0 0 .04-.03l.07-1.69a.58.58 0 0 1 1.15-.05l.31 2.25q.06.43.41.69 1.14.83 2.57.38.37-.12.74.02 1.05.38 1.42-.96a.67.66-68.1 0 0-.32-.76l-.32-.17q-.91-.5.06-.87l1.4-.53q.12-.05.13-.19 0-.14.15-.21.2-.1-.41-.14-1.3-.1-2.05-1.27-.44-.67.36-.6l.25.02q.21.01.24-.2.17-1.39-1.14-1.67-.61-.13-.31-.67.66-1.18-.61-1.74a.42.41-25.4 0 1 .28-.78q.8.22.88-.55.05-.56.6-.65l1.72-.3q.55-.1.45-.65l-.53-2.9a.77.76 84.6 0 1 .74-.91q.64 0 .54-.6-.07-.4.23-.68.62-.56 1.24-.39.16.04.17-.12.11-1.54.83-4.33.54-2.07-.82-4.38a.55.55 0 0 1 .3-.8l.61-.2q.53-.16.18-.59-1.21-1.49-.01-2.96.4-.49.16-1.08-.66-1.57.78-2.22.64-.29.34-.92l-.51-1.12a.5.48 43.5 0 1-.02-.38l.11-.3a.28.27-52.9 0 1 .48-.07l2.49 3.49q.34.48.81.13 1.86-1.39.56-3.51a1.49 1.4 83.6 0 1 1.65-2.19q.57.22.9-.23.25-.36.67-.25 2.08.55 3.95-.1.51-.18.32.32-.12.35-.62.52-.39.14-.9.24-.26.05-.04.2 1.84 1.29 1.88 3.46.01.46.38.74.62.46.61 1.28 0 .21-.12.35-.2.23-.53.23-.31.01-.09.23l.24.24q.25.24 0 .49l-.39.4q-.27.26.01.52.93.87.62 2.23-.1.43-.03.87.19 1.17 1.22 1.62.44.19.62.64.82 2.09-.44 3.42-.27.29-.29.7-.05 1.06-.59 1.62-.43.44-.3 1.04l.34 1.55q.09.4.44.62l2.16 1.36q.26.16.57.14.96-.04 1.17.69.16.54.71.66 1.3.29 2.51.17 1.04-.11.18-.7-.93-.63-1.87-.06a.54.53 67.5 0 1-.79-.33q-.23-.91-1.08-.92a.46.46 0 0 1-.31-.8q1.26-1.19.34-3.28-.19-.43.03-.84l1.52-2.86q.2-.38.12-.81l-.79-4.04q-.11-.56.16-1.05.95-1.73.35-3.65-.14-.44-.06-.91l.43-2.7q.04-.24.28-.28.14-.02.26.05.15.1.15.29v.52a.26.26 0 0 0 .5.09q.74-2.07 2.83-3.06a.42.42 0 0 1 .53.6l-.42.69a.74.74 0 0 0 .75 1.12q2.05-.35 3.52 1.51.66.84-.38.59l-.62-.15a.43.43 0 0 0-.32.78l1.89 1.15q.33.2.59-.1l1.41-1.61a.38.38 0 0 1 .66.16l.24.99q.16.64.24-.02l.04-.29a.19.19 0 0 1 .37.03q0 1.45 1.91 1 .51-.12.63-.63l.26-1.09q.13-.55.69-.59 2.61-.2 2.73 2.29a.37.37 0 0 0 .7.15q1.32-2.5 4.12-3 .61-.11.37-.68-.53-1.27-.74-2.58-.41-2.65-2.79-2.21-.45.09-.46-.37-.01-3.22-3.12-4.21-.24-.07-.12-.3.06-.12.12-.25.03-.06.1-.05 2.52.43 3.86-1.28.17-.22.43-.1 1.1.52 2.29.26a.27.27 0 0 0 .2-.2q.41-1.43-.84-1.76-.43-.11-.39.33l.05.67q.07 1.04-.73.39-.77-.63-1.81-.29-.6.19-.88-.38-.36-.72.23-1.14.46-.32.15-.78-.39-.6-.99-.14-.74.57.09 1.01.43.22.35.8a.3.3 0 0 1-.43.24q-1.43-.67-.72-2.44a.03.03 0 0 0-.03-.04q-.01 0-.02.01-.04 0-.04.04-.02.38 0 .76.03.56-.51.68-1.15.27-1.64 1.35-.21.47-.72.37-1.46-.27-.02-1.28a.37.37 0 0 0-.12-.67q-.68-.16-1.33.87-.31.48-.64.03-.11-.15-.14-.34-.02-.17.1-.34.27-.42.78-.65.41-.19.36-.64-.43-3.89 2.59-6.16a.34.34 0 0 1 .5.1q.15.27.49.14a.35.34-24.3 0 0 .19-.49q-.41-.74.39-1.28.7-.47.52.35-.27 1.21.6 1.62.27.12.42-.13l.5-.86a.38.38 0 0 1 .65-.01l1.32 2.05q.27.42.51-.01l.31-.52a.68.66 15.6 0 1 .62-.34q2.04.12 4.04.11.12 0 1.18.13 1.05.13 1.99-.75a.54.53-34.8 0 1 .84.15q1.09 2.12 3.53 1.33a.53.53 0 0 1 .69.5v.96a.25.24 54.1 0 0 .48.08l.32-.99q.17-.54.67-.26 1.83 1.01 2.17 2.9a.31.31 0 0 0 .5.18q.66-.55-.02-.93a.44.44 0 0 1 .27-.83q2.26.28 3.46-1.3.28-.38.41.07.09.31 0 .7-.13-.54.01-.98.15-.46.63-.38l3.24.55q1.1.19.31-.6l-.17-.18q-.42-.41.17-.4 2.17.03 1.72-2.01a.38.38 0 0 1 .58-.39q.51.34.35.69-.16.35.22.27l1.82-.36q.37-.07.7.09l.58.28q.48.24.74-.23l2.18-3.99a.18.18 0 0 1 .24-.07l.45.25q.3.17.51-.1 1-1.27 2.69-1.24a.51.5 87.5 0 0 .51-.56q-.14-1.45 1.48-.89a.45.45 0 0 0 .58-.32q.3-1.23 1.53-1.09.12.01.14-.11.2-1.06-.49-1.85-.59-.68.31-.72 1.15-.06 1.91.67.39.37.92.45 1.67.24 2.92-.86a.75.73-66.8 0 1 .41-.17l3.63-.2q.51-.03.45-.54-.26-1.9 1.38-2.46.4-.14.57-.54.39-.96 1.32-.69a.59.59 0 0 0 .71-.81q-.45-1 .77-.96.52.02.88.39.37.39.96-.13.41-.35.54.17l.11.43q.07.3.3.09.3-.29.81-.18.26.06.36.33.03.07.1.05.49-.13.85-.46.79-.73.73-.54-.26.82.28 1.53a.17.16 32.8 0 0 .29-.06l.13-.52q.12-.46-.33-.62-.4-.15-.25-.77.15-.6.76-.61l4.99-.1a1.25 1.25 0 0 1 1 2.03q-.71.9.36 1.42a.79.78-77.6 0 1 .44.69q.02 1.54-1.2 1.93-.77.24-.11.71 1.5 1.07 3.4 1.23a.5.49 58.3 0 0 .22-.95q-.71-.29.27-.82.56-.31.65-.95.28-2.18 2.73-1.56.52.14.14.51l-.28.28a.29.29 0 0 0 .21.5h.6a.76.75-88 0 0 .75-.71l.1-1.3q.04-.58.6-.74.88-.25.82-1.17-.03-.58.43-.94 1.26-.99-.37-2.3-.53-.42.13-.58.47-.11.78-.01-2.92-.19-.64-.37.19-.02.19-.2v-.46q-.02-.82.7-.42l.41.22q.12.06.75-.02.46-.06.38-.54-.09-.47.39-.47l4.46-.05q.52-.01.87.39l1.61 1.86q.43.48.77-.06 1.06-1.68 2.93-.7.44.23.11.6-.32.35-.95.23-.53-.11-.71.4-.13.38-.49.64-.57.42.13.48 1.24.11 2.4.15.25.01.21.26-.02.14.04.25a.24.24 0 0 0 .44-.16q-.05-.23-.23-.45-.28-.32.13-.42.69-.17 1.21.63.88 1.35.47 2.42-.12.31.02.61.51 1.11 1.61.37.35-.24.41.18.02.17-.04.38-.1.32.22.2l.99-.37q.24-.09.41.12.16.19.33.38.31.36.64.41.53.08.78-.39.24-.47.75-.36l3.87.8q.22.05.38-.11l.47-.47q.37-.37.81-.08 1.43.93 2.93.06a1.11 1.08 42.6 0 1 1.03-.03q.9.45 2.12.01.48-.18.89.13l.5.38q.38.28.79.06 1.71-.95 3.67-.53.21.04.37-.11l.33-.33q.11-.12.18.03.54 1.27 1.88 1.55.48.1.93-.09 1.05-.45 1.96-.13.7.25 1.36-.11l.65-.35q.46-.25.64.23.28.75 1.19.62.42-.06.41-.15-.01-.14-.01-.28t-.09-.04q-.38.4-.56.3a1.08 1.01 53.8 0 1 .24-1.99q2.3-.28 2.71 2.06.06.38-.24.61-.17.13-.26.36-.06.17 0 .33.75 2.14.14 4.31-.11.41.02.81.4 1.29.26 2.58-.19 1.78-.14 2.38 1.08 12.57.37 17.07-.32 2.06-.17 3.55.29 2.86.29 2.94c-.08 9.05-.02 16.34-.11 27.14-.04 5.64.41 11.42.25 16.82-.52 17.47.34 34.28.15 51.05-.2 17.87.36 34.99.13 52.5-.19 14.81-.09 27.17.01 40.74.11 14.27-.36 31.48.22 47.26q.16 4.57-.69 11.66-.06.52-.58.6c-8.78 1.46-18.27.58-27.19.99Z"/><path fill="#f7f6f1" d="M0 1018.1q.73 4.96 4.71 5.06c7.83.21 15.55.67 23.39.54q17.96-.28 35.9.3H0v-5.9Z"/></svg>