<svg width="304" height="367" viewBox="0 0 304 367" fill="none" xmlns="http://www.w3.org/2000/svg">
<g opacity="0.05">
<path d="M195.882 120.119C189.158 109.241 173.648 119.246 179.407 131.195C186.165 145.171 195.784 161.473 208.261 180.099C208.712 180.797 208.531 181.392 207.718 181.884C204.451 183.881 201.178 184.815 197.899 184.684C162.385 183.288 142.362 151.702 140.964 114.247C140.098 91.064 143.941 67.4 152.495 43.2553C152.701 42.672 153.01 42.1172 153.4 41.6272C153.79 41.1372 154.252 40.723 154.758 40.4116C155.263 40.1002 155.8 39.8986 156.333 39.8199C156.866 39.7412 157.383 39.7873 157.851 39.9551C185.996 49.9128 213.893 67.6904 228.286 96.1586C238.419 116.198 238.23 139.138 227.72 164.979C227.551 165.396 227.29 165.779 226.964 166.085C226.638 166.391 226.261 166.609 225.872 166.716C225.483 166.822 225.098 166.813 224.758 166.689C224.419 166.565 224.137 166.331 223.945 166.012C214.828 150.975 205.474 135.677 195.882 120.119Z" fill="#333333"/>
<path d="M141.982 235.005C131.762 242.4 137.901 260.462 148.883 254.204C161.731 246.859 176.978 236.303 194.623 222.538C195.283 222.041 195.759 222.265 196.053 223.21C197.253 227.012 197.551 230.79 196.948 234.544C190.428 275.204 160.676 297.245 128.756 297.774C108.998 298.103 89.5406 293.02 70.3846 282.526C69.9218 282.273 69.4985 281.903 69.1423 281.442C68.7861 280.981 68.5049 280.439 68.3172 279.851C68.1295 279.263 68.0395 278.642 68.0531 278.029C68.0666 277.416 68.1833 276.825 68.3957 276.293C81.0569 244.324 100.301 212.864 126.567 197.184C145.056 186.146 164.45 187.019 184.747 199.804C185.075 200.009 185.36 200.32 185.57 200.702C185.78 201.084 185.908 201.523 185.94 201.972C185.972 202.421 185.906 202.862 185.75 203.247C185.594 203.633 185.354 203.948 185.055 204.16C170.954 214.177 156.596 224.459 141.982 235.005Z" fill="#333333"/>
</g>
</svg>
