<svg width="128" height="38" viewBox="0 0 128 38" fill="none" xmlns="http://www.w3.org/2000/svg">
<path d="M24.2413 1.94074C30.6261 4.41814 35.1409 10.291 35.8873 17.1957C36.4773 22.65 34.7355 28.0642 31.0101 32.043C26.9524 36.3763 21.2214 38.3991 15.3869 37.5594C14.9435 37.4958 14.5038 37.4104 14.0679 37.3031C5.87207 35.2946 -0.0180818 27.9326 4.17082e-05 19.3071C0.00943909 14.7208 1.44814 10.721 4.31613 7.30787C6.30166 4.94474 8.73424 3.17069 11.6139 1.98572C15.6776 0.31322 20.1843 0.367061 24.2413 1.94074ZM25.0488 4.40996C21.8503 2.79335 18.2357 2.22971 14.7412 3.03257C11.9542 3.67253 9.35648 5.01858 7.26422 6.98686C3.82411 10.2221 1.83052 14.6467 1.86945 19.4434C1.92785 26.8061 6.7279 33.0224 13.6007 35.1522C14.7114 35.4962 15.8463 35.7011 17.0053 35.767C20.7938 35.9832 24.2193 34.9848 27.282 32.7716C28.5278 31.8706 29.6141 30.8335 30.5409 29.6603C32.3953 27.3127 33.5319 24.6317 33.9508 21.6175C34.307 19.054 34.1155 16.6068 33.3762 14.2759C32.0351 10.0436 29.036 6.42459 25.0488 4.40996Z" fill="#916400"/>
<path d="M17.7449 7.81243C17.7375 7.36915 17.163 7.28804 17.1275 7.73832C17.0866 8.26551 17.0853 8.91948 17.1238 9.70024C17.1248 9.72914 17.1105 9.74103 17.0809 9.7359C16.9616 9.71586 16.8591 9.66715 16.7733 9.58977C15.8439 8.75214 15.8092 7.45375 16.3667 6.41755C16.7117 5.77616 17.1906 5.228 17.8033 4.77306C17.8181 4.76207 17.8351 4.75413 17.8534 4.74978C17.8716 4.74542 17.8906 4.74474 17.9091 4.74777C17.9276 4.75081 17.9451 4.75749 17.9607 4.76739C17.9762 4.77729 17.9893 4.79018 17.9992 4.80522C18.5951 5.70647 19.0602 6.81189 18.9937 7.89983C18.9468 8.66568 18.5774 9.27677 17.8853 9.73311C17.8742 9.7405 17.8611 9.74488 17.8475 9.74575C17.8339 9.74662 17.8203 9.74396 17.8082 9.73806C17.7961 9.73215 17.7859 9.72323 17.7788 9.71225C17.7717 9.70127 17.7679 9.68865 17.7678 9.67577C17.7623 9.06701 17.7547 8.4459 17.7449 7.81243Z" fill="#916400"/>
<path d="M22.9312 10.3928C22.7253 10.2948 22.5841 10.4225 22.4152 10.5336C20.8966 11.5339 19.5123 12.7229 18.2623 14.1006C18.2096 14.1586 18.1623 14.2165 18.1205 14.2745C18.1147 14.2824 18.1071 14.2882 18.0984 14.2914C18.0897 14.2946 18.0804 14.295 18.0716 14.2925C18.0627 14.29 18.0547 14.2848 18.0484 14.2775C18.0422 14.2701 18.038 14.2609 18.0364 14.2511C17.8543 13.0798 18.381 11.6869 19.0551 10.8311C20.4468 9.06483 22.6594 8.61688 24.6919 8.77563C24.784 8.78253 24.8604 8.7922 24.9211 8.80462C24.9448 8.80936 24.9661 8.82372 24.9807 8.84483C24.9952 8.86594 25.0019 8.89224 24.9995 8.9185C24.8313 10.7489 24.1571 12.8037 22.9576 14.093C22.1014 15.0133 21.0425 15.5537 19.7808 15.7143C19.4368 15.758 19.1288 15.7564 18.8568 15.7095C18.8458 15.7076 18.8359 15.7011 18.8292 15.6914C18.8224 15.6816 18.8192 15.6693 18.8204 15.657C18.8296 15.5636 18.8576 15.4693 18.9045 15.374C19.3083 14.5577 19.7988 13.85 20.3758 13.2509C21.2475 12.3463 22.0922 11.6069 22.9099 11.0326C22.9664 10.9933 23.0618 10.9111 23.0951 10.8366C23.185 10.6351 23.1304 10.4871 22.9312 10.3928Z" fill="#916400"/>
<path d="M12.68 14.8469C11.0444 13.7446 10.2419 11.9698 10.0083 10.1253C9.99636 10.032 9.99731 9.95154 10.0111 9.88389C10.0154 9.86134 10.0295 9.84676 10.0533 9.84012C10.1891 9.80121 10.3494 9.77623 10.5342 9.76518C12.5429 9.64646 14.5729 10.0563 15.9156 11.5559C16.7131 12.4466 17.1818 13.7247 16.9332 14.9172C16.9299 14.9321 16.922 14.9457 16.9102 14.9563C16.8985 14.967 16.8836 14.9741 16.8675 14.9767C16.8514 14.9794 16.8348 14.9774 16.8199 14.9712C16.8049 14.965 16.7924 14.9547 16.7838 14.9417C15.7699 13.3871 14.3393 12.0116 12.5993 11.1447C12.0812 10.8867 11.7525 11.4153 12.2142 11.6693C13.7267 12.5006 14.8974 13.6349 15.7263 15.0724C15.8387 15.2669 15.9299 15.4648 15.9999 15.666C16.0027 15.6739 16.0034 15.6823 16.0021 15.6906C16.0008 15.6988 15.9975 15.7067 15.9924 15.7136C15.9872 15.7204 15.9805 15.7261 15.9726 15.7301C15.9648 15.7342 15.956 15.7365 15.9471 15.7369C14.7509 15.8033 13.6504 15.5015 12.68 14.8469Z" fill="#916400"/>
<path d="M31.9721 17.8216C32.1961 21.4165 31.0656 24.983 28.7505 27.7265C28.7456 27.7323 28.7397 27.737 28.733 27.7403C28.7262 27.7437 28.7189 27.7455 28.7114 27.7459C28.704 27.7462 28.6965 27.7449 28.6895 27.7422C28.6825 27.7394 28.6762 27.7353 28.6709 27.7299L19.032 17.8257C18.9803 17.7725 18.9912 17.7459 19.0648 17.7459L31.9026 17.7554C31.9204 17.7553 31.9375 17.7622 31.9504 17.7745C31.9633 17.7868 31.9711 17.8037 31.9721 17.8216ZM23.9636 20.1719C24.0064 20.1217 24.0386 20.0632 24.0584 19.9996C24.0782 19.9361 24.0853 19.8688 24.0791 19.8015C24.073 19.7343 24.0537 19.6684 24.0225 19.6076C23.9913 19.5469 23.9487 19.4925 23.8972 19.4475C23.7932 19.3567 23.6591 19.3098 23.5244 19.3172C23.3898 19.3246 23.2656 19.3857 23.1791 19.487C23.1363 19.5371 23.1041 19.5956 23.0843 19.6592C23.0645 19.7227 23.0574 19.79 23.0636 19.8573C23.0697 19.9246 23.089 19.9904 23.1202 20.0512C23.1514 20.1119 23.194 20.1663 23.2455 20.2113C23.3495 20.3021 23.4836 20.349 23.6183 20.3416C23.7529 20.3342 23.8771 20.2731 23.9636 20.1719ZM30.5167 21.1231C30.5167 20.9219 30.4776 20.7227 30.4015 20.5369C30.3254 20.3511 30.2138 20.1822 30.0732 20.04C29.9326 19.8978 29.7657 19.7849 29.582 19.708C29.3983 19.631 29.2014 19.5914 29.0025 19.5914C28.8037 19.5914 28.6068 19.631 28.423 19.708C28.2393 19.7849 28.0724 19.8978 27.9318 20.04C27.7912 20.1822 27.6796 20.3511 27.6035 20.5369C27.5275 20.7227 27.4883 20.9219 27.4883 21.1231C27.4883 21.5293 27.6478 21.9189 27.9318 22.2061C28.2158 22.4934 28.6009 22.6547 29.0025 22.6547C29.4041 22.6547 29.7893 22.4934 30.0732 22.2061C30.3572 21.9189 30.5167 21.5293 30.5167 21.1231ZM28.1648 24.6131C28.1648 24.5005 28.1206 24.3925 28.0419 24.3128C27.9631 24.2332 27.8563 24.1885 27.745 24.1885C27.6337 24.1885 27.5269 24.2332 27.4481 24.3128C27.3694 24.3925 27.3252 24.5005 27.3252 24.6131C27.3252 24.7258 27.3694 24.8338 27.4481 24.9134C27.5269 24.9931 27.6337 25.0378 27.745 25.0378C27.8563 25.0378 27.9631 24.9931 28.0419 24.9134C28.1206 24.8338 28.1648 24.7258 28.1648 24.6131Z" fill="#916400"/>
<g style="mix-blend-mode:plus-darker">
<path d="M22.5976 32.0438C17.6683 33.6288 12.6219 32.4768 8.78165 29.1273C8.44075 28.8301 8.11605 28.5151 7.80756 28.1823C5.14062 25.3054 3.87469 21.854 4.00977 17.8282C4.01048 17.8072 4.01952 17.7873 4.03497 17.7727C4.05043 17.7581 4.07109 17.7499 4.0926 17.75L16.9461 17.7459C16.9734 17.7459 17.0004 17.7513 17.0255 17.7617C17.0507 17.7721 17.0735 17.7874 17.0926 17.8066C20.6092 21.3392 24.1271 24.8834 27.646 28.4393C27.7847 28.58 27.8993 28.7066 27.9896 28.819C28.0047 28.8379 28.0033 28.8557 27.9855 28.8723C26.3956 30.3427 24.5996 31.3999 22.5976 32.0438ZM18.142 22.1658C18.2911 22.0312 18.4115 21.8685 18.4961 21.687C18.5808 21.5055 18.6282 21.3088 18.6356 21.1082C18.6429 20.9075 18.6101 20.7068 18.539 20.5174C18.468 20.3281 18.36 20.1539 18.2213 20.0047C17.9411 19.7035 17.5528 19.5226 17.1418 19.5019C16.7307 19.4812 16.3306 19.6223 16.0294 19.8942C15.8803 20.0288 15.76 20.1916 15.6753 20.373C15.5906 20.5545 15.5432 20.7512 15.5359 20.9519C15.5285 21.1525 15.5613 21.3533 15.6324 21.5426C15.7035 21.7319 15.8115 21.9061 15.9502 22.0553C16.2303 22.3565 16.6186 22.5374 17.0297 22.5581C17.4407 22.5789 17.8408 22.4377 18.142 22.1658ZM12.0715 20.5444C12.0715 20.4909 12.0608 20.4379 12.04 20.3885C12.0193 20.339 11.9888 20.2941 11.9504 20.2563C11.912 20.2185 11.8664 20.1885 11.8163 20.168C11.7661 20.1475 11.7124 20.137 11.6581 20.137C11.6038 20.137 11.55 20.1475 11.4998 20.168C11.4497 20.1885 11.4041 20.2185 11.3657 20.2563C11.3273 20.2941 11.2968 20.339 11.2761 20.3885C11.2553 20.4379 11.2446 20.4909 11.2446 20.5444C11.2446 20.6524 11.2882 20.756 11.3657 20.8324C11.4432 20.9088 11.5484 20.9518 11.6581 20.9518C11.7677 20.9518 11.8729 20.9088 11.9504 20.8324C12.028 20.756 12.0715 20.6524 12.0715 20.5444ZM6.92252 21.5306C6.92935 21.388 6.87747 21.2486 6.7783 21.1429C6.67913 21.0372 6.54079 20.974 6.39372 20.9672C6.24664 20.9604 6.10288 21.0105 5.99406 21.1065C5.88524 21.2025 5.82027 21.3365 5.81344 21.4791C5.80662 21.6217 5.8585 21.7611 5.95767 21.8668C6.05684 21.9725 6.19518 22.0357 6.34225 22.0425C6.48933 22.0493 6.63309 21.9992 6.74191 21.9032C6.85073 21.8072 6.9157 21.6732 6.92252 21.5306ZM13.1948 22.1422C13.1948 22.034 13.1512 21.9302 13.0735 21.8537C12.9959 21.7772 12.8905 21.7342 12.7807 21.7342C12.6709 21.7342 12.5655 21.7772 12.4878 21.8537C12.4102 21.9302 12.3665 22.034 12.3665 22.1422C12.3665 22.2505 12.4102 22.3543 12.4878 22.4308C12.5655 22.5073 12.6709 22.5503 12.7807 22.5503C12.8905 22.5503 12.9959 22.5073 13.0735 22.4308C13.1512 22.3543 13.1948 22.2505 13.1948 22.1422ZM10.7545 25.3036C10.7545 24.8977 10.5908 24.5084 10.2995 24.2214C10.0083 23.9344 9.6132 23.7732 9.20127 23.7732C8.78933 23.7732 8.39427 23.9344 8.10298 24.2214C7.8117 24.5084 7.64806 24.8977 7.64806 25.3036C7.64806 25.5046 7.68824 25.7036 7.76629 25.8893C7.84435 26.0749 7.95876 26.2436 8.10298 26.3858C8.24721 26.5279 8.41844 26.6406 8.60688 26.7175C8.79532 26.7944 8.9973 26.834 9.20127 26.834C9.40524 26.834 9.60721 26.7944 9.79565 26.7175C9.9841 26.6406 10.1553 26.5279 10.2995 26.3858C10.4438 26.2436 10.5582 26.0749 10.6362 25.8893C10.7143 25.7036 10.7545 25.5046 10.7545 25.3036ZM16.0192 25.1815C16.0192 25.0468 15.9649 24.9176 15.8682 24.8224C15.7716 24.7271 15.6405 24.6736 15.5038 24.6736C15.3671 24.6736 15.2359 24.7271 15.1393 24.8224C15.0426 24.9176 14.9883 25.0468 14.9883 25.1815C14.9883 25.3162 15.0426 25.4454 15.1393 25.5406C15.2359 25.6359 15.3671 25.6894 15.5038 25.6894C15.6405 25.6894 15.7716 25.6359 15.8682 25.5406C15.9649 25.4454 16.0192 25.3162 16.0192 25.1815ZM22.562 26.5096C22.562 26.1026 22.3979 25.7123 22.1059 25.4245C21.8138 25.1368 21.4177 24.9751 21.0047 24.9751C20.5916 24.9751 20.1955 25.1368 19.9035 25.4245C19.6114 25.7123 19.4474 26.1026 19.4474 26.5096C19.4474 26.9165 19.6114 27.3068 19.9035 27.5946C20.1955 27.8824 20.5916 28.044 21.0047 28.044C21.4177 28.044 21.8138 27.8824 22.1059 27.5946C22.3979 27.3068 22.562 26.9165 22.562 26.5096ZM13.5932 25.8182C13.5932 25.7172 13.5525 25.6202 13.48 25.5488C13.4074 25.4773 13.309 25.4371 13.2065 25.4371C13.1039 25.4371 13.0055 25.4773 12.933 25.5488C12.8605 25.6202 12.8197 25.7172 12.8197 25.8182C12.8197 25.9193 12.8605 26.0162 12.933 26.0877C13.0055 26.1592 13.1039 26.1993 13.2065 26.1993C13.309 26.1993 13.4074 26.1592 13.48 26.0877C13.5525 26.0162 13.5932 25.9193 13.5932 25.8182ZM17.1817 29.7038C17.328 29.5666 17.445 29.4019 17.5262 29.2193C17.6074 29.0367 17.6512 28.8396 17.6549 28.6394C17.6587 28.4392 17.6224 28.2398 17.5481 28.0525C17.4738 27.8652 17.3631 27.6938 17.2221 27.5479C16.9374 27.2533 16.547 27.0809 16.1368 27.0686C15.7266 27.0563 15.3301 27.2052 15.0347 27.4824C14.8884 27.6196 14.7714 27.7842 14.6902 27.9669C14.609 28.1495 14.5653 28.3465 14.5615 28.5467C14.5578 28.7469 14.594 28.9464 14.6683 29.1336C14.7426 29.3209 14.8534 29.4924 14.9943 29.6383C15.279 29.9328 15.6694 30.1052 16.0796 30.1175C16.4898 30.1298 16.8863 29.981 17.1817 29.7038ZM25.09 27.9786C25.09 27.8718 25.0469 27.7694 24.9703 27.6939C24.8936 27.6184 24.7897 27.576 24.6813 27.576C24.5729 27.576 24.469 27.6184 24.3923 27.6939C24.3157 27.7694 24.2726 27.8718 24.2726 27.9786C24.2726 28.0854 24.3157 28.1878 24.3923 28.2634C24.469 28.3389 24.5729 28.3813 24.6813 28.3813C24.7897 28.3813 24.8936 28.3389 24.9703 28.2634C25.0469 28.1878 25.09 28.0854 25.09 27.9786ZM20.742 30.0376C20.7938 30.0596 20.8496 30.0709 20.9064 30.0708C20.9631 30.0707 21.0196 30.0593 21.0726 30.0372C21.1257 30.0152 21.1742 29.9828 21.2155 29.9421C21.2568 29.9013 21.2901 29.853 21.3133 29.7998C21.3603 29.6923 21.3638 29.5716 21.3231 29.4643C21.2823 29.3569 21.2007 29.2717 21.0962 29.2273C21.0444 29.2054 20.9886 29.1941 20.9319 29.1942C20.8751 29.1942 20.8186 29.2056 20.7656 29.2277C20.7125 29.2498 20.664 29.2821 20.6227 29.3229C20.5814 29.3636 20.5482 29.412 20.5249 29.4652C20.4779 29.5726 20.4744 29.6933 20.5151 29.8007C20.5559 29.908 20.6375 29.9933 20.742 30.0376Z" fill="#9F5600"/>
</g>
<path d="M45.8066 25.6776H42.1836V23.3924H45.8066C46.3665 23.3924 46.8223 23.3012 47.1738 23.119C47.5254 22.9302 47.7826 22.6697 47.9453 22.3377C48.1081 22.0057 48.1895 21.6313 48.1895 21.2147C48.1895 20.7915 48.1081 20.3976 47.9453 20.033C47.7826 19.6684 47.5254 19.3755 47.1738 19.1541C46.8223 18.9328 46.3665 18.8221 45.8066 18.8221H43.1992V30.7459H40.2695V16.5272H45.8066C46.9199 16.5272 47.8737 16.729 48.668 17.1326C49.4688 17.5298 50.0807 18.0799 50.5039 18.783C50.9271 19.4861 51.1387 20.2902 51.1387 21.1951C51.1387 22.1131 50.9271 22.9074 50.5039 23.5779C50.0807 24.2485 49.4688 24.7661 48.668 25.1307C47.8737 25.4953 46.9199 25.6776 45.8066 25.6776ZM55.9531 20.1795V30.7459H53.1309V20.1795H55.9531ZM52.9551 17.4256C52.9551 17.0154 53.0983 16.6769 53.3848 16.41C53.6712 16.143 54.0553 16.0096 54.5371 16.0096C55.0124 16.0096 55.3932 16.143 55.6797 16.41C55.9727 16.6769 56.1191 17.0154 56.1191 17.4256C56.1191 17.8358 55.9727 18.1743 55.6797 18.4412C55.3932 18.7082 55.0124 18.8416 54.5371 18.8416C54.0553 18.8416 53.6712 18.7082 53.3848 18.4412C53.0983 18.1743 52.9551 17.8358 52.9551 17.4256ZM66.6855 28.5486V30.7459H58.6582V28.5486H66.6855ZM66.5293 21.8006L59.791 30.7459H57.9062V29.076L64.6152 20.1795H66.5293V21.8006ZM65.5332 20.1795V22.3865H58.0625V20.1795H65.5332ZM76.8613 28.5486V30.7459H68.834V28.5486H76.8613ZM76.7051 21.8006L69.9668 30.7459H68.082V29.076L74.791 20.1795H76.7051V21.8006ZM75.709 20.1795V22.3865H68.2383V20.1795H75.709ZM84.332 28.3631V23.6561C84.332 23.3175 84.2767 23.0278 84.166 22.7869C84.0553 22.5395 83.8828 22.3475 83.6484 22.2108C83.4206 22.074 83.1243 22.0057 82.7598 22.0057C82.4473 22.0057 82.1771 22.061 81.9492 22.1717C81.7214 22.2759 81.5456 22.4289 81.4219 22.6307C81.2982 22.826 81.2363 23.0571 81.2363 23.324H78.4238C78.4238 22.8748 78.528 22.4484 78.7363 22.0447C78.9447 21.6411 79.2474 21.2863 79.6445 20.9803C80.0417 20.6678 80.5137 20.4236 81.0605 20.2479C81.6139 20.0721 82.2324 19.9842 82.916 19.9842C83.7363 19.9842 84.4655 20.1209 85.1035 20.3943C85.7415 20.6678 86.2428 21.0779 86.6074 21.6248C86.9785 22.1717 87.1641 22.8553 87.1641 23.6756V28.1971C87.1641 28.7765 87.1999 29.2518 87.2715 29.6229C87.3431 29.9874 87.4473 30.3065 87.584 30.5799V30.7459H84.7422C84.6055 30.4595 84.5013 30.1014 84.4297 29.6717C84.3646 29.2355 84.332 28.7993 84.332 28.3631ZM84.7031 24.3104L84.7227 25.9022H83.1504C82.7793 25.9022 82.457 25.9445 82.1836 26.0291C81.9102 26.1137 81.6855 26.2342 81.5098 26.3904C81.334 26.5402 81.2038 26.716 81.1191 26.9178C81.041 27.1196 81.002 27.341 81.002 27.5818C81.002 27.8227 81.0573 28.0408 81.168 28.2361C81.2786 28.4249 81.4382 28.5747 81.6465 28.6854C81.8548 28.7895 82.099 28.8416 82.3789 28.8416C82.8021 28.8416 83.1699 28.757 83.4824 28.5877C83.7949 28.4184 84.0358 28.2101 84.2051 27.9627C84.3809 27.7153 84.472 27.4809 84.4785 27.2596L85.2207 28.451C85.1165 28.7179 84.9733 28.9946 84.791 29.2811C84.6152 29.5675 84.3906 29.8377 84.1172 30.0916C83.8438 30.339 83.515 30.5441 83.1309 30.7068C82.7467 30.8631 82.291 30.9412 81.7637 30.9412C81.0931 30.9412 80.4844 30.8078 79.9375 30.5408C79.3971 30.2674 78.9674 29.893 78.6484 29.4178C78.3359 28.936 78.1797 28.3891 78.1797 27.7772C78.1797 27.2238 78.2839 26.7322 78.4922 26.3026C78.7005 25.8729 79.0065 25.5115 79.4102 25.2186C79.8203 24.9191 80.3314 24.6945 80.9434 24.5447C81.5553 24.3885 82.265 24.3104 83.0723 24.3104H84.7031ZM92.1445 22.4842V30.7459H89.332V20.1795H91.9785L92.1445 22.4842ZM95.3281 20.1111L95.2793 22.7186C95.1426 22.699 94.9766 22.6828 94.7812 22.6697C94.5924 22.6502 94.4199 22.6404 94.2637 22.6404C93.8665 22.6404 93.5215 22.6925 93.2285 22.7967C92.9421 22.8943 92.7012 23.0408 92.5059 23.2361C92.3171 23.4315 92.1738 23.6691 92.0762 23.949C91.985 24.229 91.9329 24.548 91.9199 24.9061L91.3535 24.7303C91.3535 24.0467 91.4219 23.4184 91.5586 22.8455C91.6953 22.2661 91.8939 21.7615 92.1543 21.3318C92.4212 20.9022 92.7467 20.5701 93.1309 20.3358C93.515 20.1014 93.9544 19.9842 94.4492 19.9842C94.6055 19.9842 94.765 19.9972 94.9277 20.0233C95.0905 20.0428 95.224 20.0721 95.3281 20.1111ZM101.324 30.9412C100.504 30.9412 99.7682 30.811 99.1172 30.5506C98.4661 30.2837 97.9128 29.9158 97.457 29.4471C97.0078 28.9783 96.6628 28.4347 96.4219 27.8162C96.181 27.1912 96.0605 26.5272 96.0605 25.824V25.4334C96.0605 24.6326 96.1745 23.9002 96.4023 23.2361C96.6302 22.5721 96.9557 21.9959 97.3789 21.5076C97.8086 21.0193 98.3294 20.645 98.9414 20.3846C99.5534 20.1177 100.243 19.9842 101.012 19.9842C101.76 19.9842 102.424 20.1079 103.004 20.3553C103.583 20.6027 104.068 20.9542 104.459 21.41C104.856 21.8657 105.156 22.4126 105.357 23.0506C105.559 23.6821 105.66 24.3852 105.66 25.16V26.3318H97.2617V24.4568H102.896V24.242C102.896 23.8514 102.825 23.5031 102.682 23.1971C102.545 22.8846 102.337 22.6372 102.057 22.4549C101.777 22.2726 101.419 22.1815 100.982 22.1815C100.611 22.1815 100.292 22.2628 100.025 22.4256C99.7585 22.5884 99.5404 22.8162 99.3711 23.1092C99.2083 23.4022 99.0846 23.7472 99 24.1443C98.9219 24.535 98.8828 24.9647 98.8828 25.4334V25.824C98.8828 26.2472 98.9414 26.6378 99.0586 26.9959C99.1823 27.354 99.3548 27.6632 99.5762 27.9236C99.804 28.1841 100.077 28.3859 100.396 28.5291C100.722 28.6723 101.09 28.744 101.5 28.744C102.008 28.744 102.48 28.6463 102.916 28.451C103.359 28.2492 103.74 27.9464 104.059 27.5428L105.426 29.0272C105.204 29.3462 104.902 29.6522 104.518 29.9451C104.14 30.2381 103.684 30.479 103.15 30.6678C102.617 30.8501 102.008 30.9412 101.324 30.9412ZM110.23 15.7459V30.7459H107.408V15.7459H110.23ZM115.523 15.7459V30.7459H112.701V15.7459H115.523ZM123.551 28.3631V23.6561C123.551 23.3175 123.495 23.0278 123.385 22.7869C123.274 22.5395 123.102 22.3475 122.867 22.2108C122.639 22.074 122.343 22.0057 121.979 22.0057C121.666 22.0057 121.396 22.061 121.168 22.1717C120.94 22.2759 120.764 22.4289 120.641 22.6307C120.517 22.826 120.455 23.0571 120.455 23.324H117.643C117.643 22.8748 117.747 22.4484 117.955 22.0447C118.163 21.6411 118.466 21.2863 118.863 20.9803C119.26 20.6678 119.732 20.4236 120.279 20.2479C120.833 20.0721 121.451 19.9842 122.135 19.9842C122.955 19.9842 123.684 20.1209 124.322 20.3943C124.96 20.6678 125.462 21.0779 125.826 21.6248C126.197 22.1717 126.383 22.8553 126.383 23.6756V28.1971C126.383 28.7765 126.419 29.2518 126.49 29.6229C126.562 29.9874 126.666 30.3065 126.803 30.5799V30.7459H123.961C123.824 30.4595 123.72 30.1014 123.648 29.6717C123.583 29.2355 123.551 28.7993 123.551 28.3631ZM123.922 24.3104L123.941 25.9022H122.369C121.998 25.9022 121.676 25.9445 121.402 26.0291C121.129 26.1137 120.904 26.2342 120.729 26.3904C120.553 26.5402 120.423 26.716 120.338 26.9178C120.26 27.1196 120.221 27.341 120.221 27.5818C120.221 27.8227 120.276 28.0408 120.387 28.2361C120.497 28.4249 120.657 28.5747 120.865 28.6854C121.074 28.7895 121.318 28.8416 121.598 28.8416C122.021 28.8416 122.389 28.757 122.701 28.5877C123.014 28.4184 123.255 28.2101 123.424 27.9627C123.6 27.7153 123.691 27.4809 123.697 27.2596L124.439 28.451C124.335 28.7179 124.192 28.9946 124.01 29.2811C123.834 29.5675 123.609 29.8377 123.336 30.0916C123.062 30.339 122.734 30.5441 122.35 30.7068C121.965 30.8631 121.51 30.9412 120.982 30.9412C120.312 30.9412 119.703 30.8078 119.156 30.5408C118.616 30.2674 118.186 29.893 117.867 29.4178C117.555 28.936 117.398 28.3891 117.398 27.7772C117.398 27.2238 117.503 26.7322 117.711 26.3026C117.919 25.8729 118.225 25.5115 118.629 25.2186C119.039 24.9191 119.55 24.6945 120.162 24.5447C120.774 24.3885 121.484 24.3104 122.291 24.3104H123.922Z" fill="#333333"/>
</svg>
