<svg width="28" height="28" viewBox="0 0 28 28" fill="none" xmlns="http://www.w3.org/2000/svg">
<path fill-rule="evenodd" clip-rule="evenodd" d="M14 28C17.713 28 21.274 26.525 23.8995 23.8995C26.525 21.274 28 17.713 28 14C28 10.287 26.525 6.72601 23.8995 4.10051C21.274 1.475 17.713 0 14 0C10.287 0 6.72601 1.475 4.10051 4.10051C1.475 6.72601 0 10.287 0 14C0 17.713 1.475 21.274 4.10051 23.8995C6.72601 26.525 10.287 28 14 28ZM8.75 12.25C8.28587 12.25 7.84075 12.4344 7.51256 12.7626C7.18437 13.0908 7 13.5359 7 14C7 14.4641 7.18437 14.9092 7.51256 15.2374C7.84075 15.5656 8.28587 15.75 8.75 15.75H19.25C19.7141 15.75 20.1592 15.5656 20.4874 15.2374C20.8156 14.9092 21 14.4641 21 14C21 13.5359 20.8156 13.0908 20.4874 12.7626C20.1592 12.4344 19.7141 12.25 19.25 12.25H8.75Z" fill="#333333"/>
</svg>
